<?xml version="1.0" encoding="UTF-8"?>
<!DOCTYPE svg PUBLIC "-//W3C//DTD SVG 1.1//EN" "http://www.w3.org/Graphics/SVG/1.1/DTD/svg11.dtd">
<svg xmlns="http://www.w3.org/2000/svg" version="1.1" width="500px" height="500px" style="shape-rendering:geometricPrecision; text-rendering:geometricPrecision; image-rendering:optimizeQuality; fill-rule:evenodd; clip-rule:evenodd" xmlns:xlink="http://www.w3.org/1999/xlink">
<g><path style="opacity:1" fill="#f9faf9" d="M 72.5,19.5 C 73.8333,20.1667 73.8333,20.1667 72.5,19.5 Z"/></g>
<g><path style="opacity:1" fill="#f9faf9" d="M 443.5,19.5 C 444.833,20.1667 444.833,20.1667 443.5,19.5 Z"/></g>
<g><path style="opacity:1" fill="#f9faf9" d="M 476.5,35.5 C 477.833,36.1667 477.833,36.1667 476.5,35.5 Z"/></g>
<g><path style="opacity:1" fill="#f9faf9" d="M 335.5,37.5 C 336.833,38.1667 336.833,38.1667 335.5,37.5 Z"/></g>
<g><path style="opacity:1" fill="#f9faf9" d="M 314.5,41.5 C 315.833,42.1667 315.833,42.1667 314.5,41.5 Z"/></g>
<g><path style="opacity:1" fill="#f9faf9" d="M 8.5,72.5 C 9.83333,73.1667 9.83333,73.1667 8.5,72.5 Z"/></g>
<g><path style="opacity:1" fill="#f9faf9" d="M 184.5,76.5 C 185.833,77.1667 185.833,77.1667 184.5,76.5 Z"/></g>
<g><path style="opacity:1" fill="#f9faf9" d="M 159.5,80.5 C 160.833,81.1667 160.833,81.1667 159.5,80.5 Z"/></g>
<g><path style="opacity:1" fill="#f9faf9" d="M 415.5,82.5 C 416.833,83.1667 416.833,83.1667 415.5,82.5 Z"/></g>
<g><path style="opacity:1" fill="#f9faf9" d="M 202.5,97.5 C 203.833,98.1667 203.833,98.1667 202.5,97.5 Z"/></g>
<g><path style="opacity:1" fill="#f9faf9" d="M 199.5,98.5 C 200.833,99.1667 200.833,99.1667 199.5,98.5 Z"/></g>
<g><path style="opacity:1" fill="#f9faf9" d="M 408.5,99.5 C 409.833,100.167 409.833,100.167 408.5,99.5 Z"/></g>
<g><path style="opacity:1" fill="#f9faf9" d="M 404.5,101.5 C 405.833,102.167 405.833,102.167 404.5,101.5 Z"/></g>
<g><path style="opacity:1" fill="#f9faf9" d="M 465.5,118.5 C 466.833,119.167 466.833,119.167 465.5,118.5 Z"/></g>
<g><path style="opacity:1" fill="#f9faf9" d="M 434.5,124.5 C 435.833,125.167 435.833,125.167 434.5,124.5 Z"/></g>
<g><path style="opacity:1" fill="#f9faf9" d="M 72.5,135.5 C 73.8333,136.167 73.8333,136.167 72.5,135.5 Z"/></g>
<g><path style="opacity:1" fill="#f9faf9" d="M 344.5,135.5 C 345.833,136.167 345.833,136.167 344.5,135.5 Z"/></g>
<g><path style="opacity:1" fill="#f9faf9" d="M 63.5,142.5 C 64.8333,143.167 64.8333,143.167 63.5,142.5 Z"/></g>
<g><path style="opacity:1" fill="#f9faf9" d="M 8.5,144.5 C 9.83333,145.167 9.83333,145.167 8.5,144.5 Z"/></g>
<g><path style="opacity:1" fill="#f9faf9" d="M 62.5,144.5 C 63.8333,145.167 63.8333,145.167 62.5,144.5 Z"/></g>
<g><path style="opacity:1" fill="#f9faf9" d="M 190.5,147.5 C 191.833,148.167 191.833,148.167 190.5,147.5 Z"/></g>
<g><path style="opacity:1" fill="#f9faf9" d="M 93.5,149.5 C 94.8333,150.167 94.8333,150.167 93.5,149.5 Z"/></g>
<g><path style="opacity:1" fill="#f9faf9" d="M 426.5,149.5 C 427.833,150.167 427.833,150.167 426.5,149.5 Z"/></g>
<g><path style="opacity:1" fill="#f9faf9" d="M 243.5,152.5 C 244.833,153.167 244.833,153.167 243.5,152.5 Z"/></g>
<g><path style="opacity:1" fill="#f9faf9" d="M 319.5,161.5 C 320.833,162.167 320.833,162.167 319.5,161.5 Z"/></g>
<g><path style="opacity:1" fill="#f9faf9" d="M 59.5,164.5 C 60.8333,165.167 60.8333,165.167 59.5,164.5 Z"/></g>
<g><path style="opacity:1" fill="#f9faf9" d="M 412.5,164.5 C 413.833,165.167 413.833,165.167 412.5,164.5 Z"/></g>
<g><path style="opacity:1" fill="#f9faf9" d="M 139.5,165.5 C 140.833,166.167 140.833,166.167 139.5,165.5 Z"/></g>
<g><path style="opacity:1" fill="#f9faf9" d="M 331.5,166.5 C 332.833,167.167 332.833,167.167 331.5,166.5 Z"/></g>
<g><path style="opacity:1" fill="#f9faf9" d="M 30.5,168.5 C 31.8333,169.167 31.8333,169.167 30.5,168.5 Z"/></g>
<g><path style="opacity:1" fill="#b9d192" d="M 123.5,169.5 C 132.991,168.342 142.658,168.175 152.5,169C 153.823,169.816 154.489,170.983 154.5,172.5C 153.027,171.928 151.693,171.095 150.5,170C 141.506,169.5 132.506,169.334 123.5,169.5 Z"/></g>
<g><path style="opacity:1" fill="#9cbd65" d="M 381.5,290.5 C 380.504,276.343 380.171,262.01 380.5,247.5C 380.828,235.988 380.495,224.654 379.5,213.5C 379.5,212.167 379.5,210.833 379.5,209.5C 379.606,200.467 379.106,191.467 378,182.5C 375.695,180.978 374.195,178.978 373.5,176.5C 370.833,175.167 368.167,173.833 365.5,172.5C 365.082,171.778 364.416,171.278 363.5,171C 346.503,170.5 329.503,170.333 312.5,170.5C 285.5,170.5 258.5,170.5 231.5,170.5C 209.49,170.167 187.49,170.5 165.5,171.5C 163.957,174.39 161.624,176.057 158.5,176.5C 156.833,176.5 155.167,176.5 153.5,176.5C 153.079,174.09 151.746,172.257 149.5,171C 139.122,170.162 128.788,170.495 118.5,172C 113.876,175.413 110.876,179.913 109.5,185.5C 109.167,185.5 108.833,185.5 108.5,185.5C 108.5,184.167 108.5,182.833 108.5,181.5C 111.121,174.548 116.121,170.548 123.5,169.5C 132.506,169.334 141.506,169.5 150.5,170C 151.693,171.095 153.027,171.928 154.5,172.5C 155.885,173.614 157.385,174.614 159,175.5C 161.179,173.652 163.013,171.485 164.5,169C 231.167,168.333 297.833,168.333 364.5,169C 373.342,171.176 378.842,176.676 381,185.5C 381.5,220.498 381.667,255.498 381.5,290.5 Z"/></g>
<g><path style="opacity:1" fill="#82ba33" d="M 231.5,170.5 C 258.5,170.5 285.5,170.5 312.5,170.5C 310.169,171.317 307.669,171.984 305,172.5C 303.743,172.85 303.409,173.517 304,174.5C 305.779,173.521 307.445,173.854 309,175.5C 309.667,172.833 310.333,172.833 311,175.5C 311.519,174.484 312.353,173.818 313.5,173.5C 317.471,174.197 321.471,174.697 325.5,175C 323.895,177.733 322.895,180.733 322.5,184C 323.86,185.938 323.527,187.604 321.5,189C 322.571,189.852 323.571,190.685 324.5,191.5C 324.5,191.833 324.5,192.167 324.5,192.5C 317.5,192.5 310.5,192.5 303.5,192.5C 297.893,191.882 292.227,190.882 286.5,189.5C 286.167,189.167 285.833,188.833 285.5,188.5C 286.716,187.904 288.049,187.737 289.5,188C 291.84,184.929 291.34,182.095 288,179.5C 285.848,181.816 283.348,182.15 280.5,180.5C 276.556,180.901 272.889,182.067 269.5,184C 271.271,184.535 271.604,185.369 270.5,186.5C 266.984,188.374 263.318,189.708 259.5,190.5C 259.218,185.421 258.218,185.254 256.5,190C 252.39,190.248 248.39,190.415 244.5,190.5C 243.417,189.635 243.251,188.635 244,187.5C 245.135,187.273 246.302,186.94 247.5,186.5C 244.444,185.593 241.778,184.093 239.5,182C 244.029,180.268 244.196,178.768 240,177.5C 238.887,178.711 237.72,178.711 236.5,177.5C 235.318,179.645 233.818,179.645 232,177.5C 230.333,178.833 228.667,180.167 227,181.5C 224.259,180.778 223.259,179.112 224,176.5C 226.824,174.684 229.324,172.684 231.5,170.5 Z"/></g>
<g><path style="opacity:1" fill="#f9faf9" d="M 35.5,171.5 C 36.8333,172.167 36.8333,172.167 35.5,171.5 Z"/></g>
<g><path style="opacity:1" fill="#8ac035" d="M 312.5,170.5 C 329.503,170.333 346.503,170.5 363.5,171C 364.416,171.278 365.082,171.778 365.5,172.5C 364.45,172.905 364.45,173.571 365.5,174.5C 362.343,175.717 359.343,177.217 356.5,179C 357.167,179.333 357.833,179.667 358.5,180C 352.736,181.914 347.402,184.581 342.5,188C 336.66,189.928 330.66,191.094 324.5,191.5C 323.571,190.685 322.571,189.852 321.5,189C 323.527,187.604 323.86,185.938 322.5,184C 322.895,180.733 323.895,177.733 325.5,175C 321.471,174.697 317.471,174.197 313.5,173.5C 312.353,173.818 311.519,174.484 311,175.5C 310.333,172.833 309.667,172.833 309,175.5C 307.445,173.854 305.779,173.521 304,174.5C 303.409,173.517 303.743,172.85 305,172.5C 307.669,171.984 310.169,171.317 312.5,170.5 Z"/></g>
<g><path style="opacity:1" fill="#70af32" d="M 158.5,176.5 C 157.143,178.499 157.81,179.665 160.5,180C 161.252,180.671 161.586,181.504 161.5,182.5C 164.091,183.524 164.924,185.191 164,187.5C 165,186.167 166,186.167 167,187.5C 167.941,185.939 169.108,184.605 170.5,183.5C 171.885,187.378 173.051,187.378 174,183.5C 175.118,185.765 175.951,188.099 176.5,190.5C 179.394,190.958 181.894,190.291 184,188.5C 189.017,191.216 194.351,191.882 200,190.5C 202.346,190.99 204.513,191.657 206.5,192.5C 195.828,192.333 185.161,192.5 174.5,193C 173.263,193.232 172.263,193.732 171.5,194.5C 170.399,195.8 169.066,196.3 167.5,196C 168.15,194.391 167.65,192.891 166,191.5C 165.682,193.061 164.849,194.228 163.5,195C 164.956,195.423 165.456,196.256 165,197.5C 164.667,197.167 164.333,196.833 164,196.5C 160.129,201.585 155.629,202.418 150.5,199C 149.167,197.667 149.167,196.333 150.5,195C 149.216,194.316 148.049,194.483 147,195.5C 142.22,194.361 138.386,192.694 135.5,190.5C 135.649,191.552 135.483,192.552 135,193.5C 132.796,191.983 130.462,190.65 128,189.5C 126.951,191.107 125.451,191.773 123.5,191.5C 123.723,188.886 122.556,187.219 120,186.5C 117.539,187.218 115.039,187.885 112.5,188.5C 111.265,187.66 110.265,186.66 109.5,185.5C 110.876,179.913 113.876,175.413 118.5,172C 128.788,170.495 139.122,170.162 149.5,171C 151.746,172.257 153.079,174.09 153.5,176.5C 155.167,176.5 156.833,176.5 158.5,176.5 Z M 157.5,193.5 C 157.183,190.428 157.516,187.428 158.5,184.5C 158.833,186 159.167,187.5 159.5,189C 159.431,190.986 158.765,192.486 157.5,193.5 Z"/></g>
<g><path style="opacity:1" fill="#79b432" d="M 231.5,170.5 C 229.324,172.684 226.824,174.684 224,176.5C 223.259,179.112 224.259,180.778 227,181.5C 228.667,180.167 230.333,178.833 232,177.5C 233.818,179.645 235.318,179.645 236.5,177.5C 237.72,178.711 238.887,178.711 240,177.5C 244.196,178.768 244.029,180.268 239.5,182C 241.778,184.093 244.444,185.593 247.5,186.5C 246.302,186.94 245.135,187.273 244,187.5C 243.251,188.635 243.417,189.635 244.5,190.5C 248.39,190.415 252.39,190.248 256.5,190C 258.218,185.254 259.218,185.421 259.5,190.5C 263.318,189.708 266.984,188.374 270.5,186.5C 271.604,185.369 271.271,184.535 269.5,184C 272.889,182.067 276.556,180.901 280.5,180.5C 283.348,182.15 285.848,181.816 288,179.5C 291.34,182.095 291.84,184.929 289.5,188C 288.049,187.737 286.716,187.904 285.5,188.5C 285.833,188.833 286.167,189.167 286.5,189.5C 292.227,190.882 297.893,191.882 303.5,192.5C 271.167,192.5 238.833,192.5 206.5,192.5C 204.513,191.657 202.346,190.99 200,190.5C 194.351,191.882 189.017,191.216 184,188.5C 181.894,190.291 179.394,190.958 176.5,190.5C 175.951,188.099 175.118,185.765 174,183.5C 173.051,187.378 171.885,187.378 170.5,183.5C 169.108,184.605 167.941,185.939 167,187.5C 166,186.167 165,186.167 164,187.5C 164.924,185.191 164.091,183.524 161.5,182.5C 161.586,181.504 161.252,180.671 160.5,180C 157.81,179.665 157.143,178.499 158.5,176.5C 161.624,176.057 163.957,174.39 165.5,171.5C 187.49,170.5 209.49,170.167 231.5,170.5 Z"/></g>
<g><path style="opacity:1" fill="#86a657" d="M 161.5,182.5 C 162.696,186.586 162.529,190.586 161,194.5C 159.244,195.985 158.077,195.652 157.5,193.5C 156.223,192.306 155.556,190.64 155.5,188.5C 154.869,183.822 156.869,181.822 161.5,182.5 Z M 157.5,193.5 C 158.765,192.486 159.431,190.986 159.5,189C 159.167,187.5 158.833,186 158.5,184.5C 157.516,187.428 157.183,190.428 157.5,193.5 Z"/></g>
<g><path style="opacity:1" fill="#65a732" d="M 108.5,185.5 C 108.833,185.5 109.167,185.5 109.5,185.5C 110.265,186.66 111.265,187.66 112.5,188.5C 115.039,187.885 117.539,187.218 120,186.5C 122.556,187.219 123.723,188.886 123.5,191.5C 125.451,191.773 126.951,191.107 128,189.5C 130.462,190.65 132.796,191.983 135,193.5C 135.483,192.552 135.649,191.552 135.5,190.5C 138.386,192.694 142.22,194.361 147,195.5C 148.049,194.483 149.216,194.316 150.5,195C 149.167,196.333 149.167,197.667 150.5,199C 155.629,202.418 160.129,201.585 164,196.5C 164.333,196.833 164.667,197.167 165,197.5C 165.456,196.256 164.956,195.423 163.5,195C 164.849,194.228 165.682,193.061 166,191.5C 167.65,192.891 168.15,194.391 167.5,196C 169.066,196.3 170.399,195.8 171.5,194.5C 171.157,196.483 171.824,197.817 173.5,198.5C 197.477,200.49 221.81,201.157 246.5,200.5C 245.828,201.267 244.995,201.934 244,202.5C 228.354,201.83 213.854,201.83 200.5,202.5C 195.86,201.603 191.194,201.436 186.5,202C 182.024,202.903 177.69,204.07 173.5,205.5C 172.957,205.56 172.624,205.893 172.5,206.5C 173.729,207.281 175.062,207.781 176.5,208C 175.737,208.944 174.737,209.444 173.5,209.5C 170.062,208.364 167.229,206.364 165,203.5C 164.235,203.57 163.735,203.903 163.5,204.5C 162.5,204.5 161.5,204.5 160.5,204.5C 160.5,203.833 160.167,203.5 159.5,203.5C 158.399,202.402 157.066,202.235 155.5,203C 154.736,205.069 154.236,207.236 154,209.5C 152.129,210.668 150.629,210.168 149.5,208C 152.742,207.717 153.076,206.883 150.5,205.5C 147.863,208.416 145.697,208.083 144,204.5C 140.878,207.69 137.712,207.357 134.5,203.5C 133.808,204.025 133.308,204.692 133,205.5C 126.614,204.799 120.447,203.299 114.5,201C 113.167,200.333 113.167,199.667 114.5,199C 113.584,198.626 112.75,198.126 112,197.5C 111.395,199.481 110.395,199.815 109,198.5C 108.501,194.179 108.334,189.846 108.5,185.5 Z"/></g>
<g><path style="opacity:1" fill="#f9faf9" d="M 101.5,192.5 C 102.833,193.167 102.833,193.167 101.5,192.5 Z"/></g>
<g><path style="opacity:1" fill="#97b46b" d="M 206.5,192.5 C 238.833,192.5 271.167,192.5 303.5,192.5C 310.5,192.5 317.5,192.5 324.5,192.5C 329.88,192.324 335.213,192.658 340.5,193.5C 341.11,194.391 341.443,195.391 341.5,196.5C 340.118,195.199 338.452,194.366 336.5,194C 284.185,194.704 232.018,194.537 180,193.5C 178.189,194.078 176.355,194.578 174.5,195C 173.663,196.011 173.33,197.178 173.5,198.5C 171.824,197.817 171.157,196.483 171.5,194.5C 172.263,193.732 173.263,193.232 174.5,193C 185.161,192.5 195.828,192.333 206.5,192.5 Z"/></g>
<g><path style="opacity:1" fill="#84bb34" d="M 365.5,172.5 C 368.167,173.833 370.833,175.167 373.5,176.5C 374.195,178.978 375.695,180.978 378,182.5C 379.106,191.467 379.606,200.467 379.5,209.5C 378.549,210.919 378.216,212.585 378.5,214.5C 374.887,214.042 372.387,212.042 371,208.5C 369.883,209.949 369.216,211.616 369,213.5C 368.667,213.167 368.333,212.833 368,212.5C 367.696,206.905 368.196,201.405 369.5,196C 369.167,195.667 368.833,195.333 368.5,195C 365.15,194.75 361.983,193.917 359,192.5C 357.077,193.316 355.077,193.983 353,194.5C 352.454,193.711 351.787,192.711 351,191.5C 349.6,193.841 349.1,196.174 349.5,198.5C 347.829,196.49 347.162,194.157 347.5,191.5C 344.892,191.4 342.558,192.067 340.5,193.5C 335.213,192.658 329.88,192.324 324.5,192.5C 324.5,192.167 324.5,191.833 324.5,191.5C 330.66,191.094 336.66,189.928 342.5,188C 347.402,184.581 352.736,181.914 358.5,180C 357.833,179.667 357.167,179.333 356.5,179C 359.343,177.217 362.343,175.717 365.5,174.5C 364.45,173.571 364.45,172.905 365.5,172.5 Z"/></g>
<g><path style="opacity:1" fill="#f9faf9" d="M 406.5,198.5 C 407.833,199.167 407.833,199.167 406.5,198.5 Z"/></g>
<g><path style="opacity:1" fill="#f9faf9" d="M 458.5,198.5 C 459.833,199.167 459.833,199.167 458.5,198.5 Z"/></g>
<g><path style="opacity:1" fill="#5ba032" d="M 108.5,185.5 C 108.334,189.846 108.501,194.179 109,198.5C 110.395,199.815 111.395,199.481 112,197.5C 112.75,198.126 113.584,198.626 114.5,199C 113.167,199.667 113.167,200.333 114.5,201C 120.447,203.299 126.614,204.799 133,205.5C 133.308,204.692 133.808,204.025 134.5,203.5C 137.712,207.357 140.878,207.69 144,204.5C 145.697,208.083 147.863,208.416 150.5,205.5C 153.076,206.883 152.742,207.717 149.5,208C 150.629,210.168 152.129,210.668 154,209.5C 154.236,207.236 154.736,205.069 155.5,203C 157.066,202.235 158.399,202.402 159.5,203.5C 158.833,203.5 158.167,203.5 157.5,203.5C 156.521,206.625 156.187,209.958 156.5,213.5C 157.833,213.5 159.167,213.5 160.5,213.5C 160.5,210.5 160.5,207.5 160.5,204.5C 161.5,204.5 162.5,204.5 163.5,204.5C 164.605,206.713 164.605,208.88 163.5,211C 164.167,212 164.833,213 165.5,214C 162.097,214.2 161.097,215.7 162.5,218.5C 162.167,219.167 161.833,219.833 161.5,220.5C 159.716,219.28 158.05,219.28 156.5,220.5C 154.983,220.511 153.816,221.177 153,222.5C 150.11,219.282 147.11,216.949 144,215.5C 142.912,218.993 141.745,219.159 140.5,216C 136.843,216.108 133.177,216.108 129.5,216C 127.685,213.512 125.685,213.179 123.5,215C 119.833,215.333 116.167,215.667 112.5,216C 116.397,217.411 116.397,218.578 112.5,219.5C 110.927,219.248 109.594,218.582 108.5,217.5C 107.5,206.67 107.5,196.003 108.5,185.5 Z"/></g>
<g><path style="opacity:1" fill="#9dbb6d" d="M 173.5,198.5 C 226.501,198.333 279.501,198.5 332.5,199C 333.416,199.278 334.082,199.778 334.5,200.5C 305.5,200.5 276.5,200.5 247.5,200.5C 247.167,200.5 246.833,200.5 246.5,200.5C 221.81,201.157 197.477,200.49 173.5,198.5 Z"/></g>
<g><path style="opacity:1" fill="#64a732" d="M 200.5,202.5 C 200.082,203.222 199.416,203.722 198.5,204C 199.416,204.374 200.25,204.874 201,205.5C 206.669,204.709 212.502,204.376 218.5,204.5C 223.6,206.168 228.6,207.168 233.5,207.5C 232.271,208.281 230.938,208.781 229.5,209C 233.845,211.375 238.011,211.541 242,209.5C 244.051,209.423 245.884,209.923 247.5,211C 246.376,211.249 245.376,211.749 244.5,212.5C 246.364,213.993 248.53,214.66 251,214.5C 261.456,212.62 271.789,210.954 282,209.5C 283.004,212.442 283.504,215.442 283.5,218.5C 283.21,220.044 282.544,221.377 281.5,222.5C 287.104,224.879 292.771,225.046 298.5,223C 301.5,221.333 304.5,219.667 307.5,218C 311.204,216.929 314.871,216.762 318.5,217.5C 321.489,215.961 324.656,214.961 328,214.5C 328.273,216.101 328.773,217.601 329.5,219C 329.167,219.333 328.833,219.667 328.5,220C 330.53,220.548 332.53,221.715 334.5,223.5C 334.5,225.167 334.5,226.833 334.5,228.5C 333.527,229.791 332.527,229.791 331.5,228.5C 330.522,228.977 329.689,229.643 329,230.5C 327.913,228.068 327.413,228.402 327.5,231.5C 318.23,230.196 308.897,229.196 299.5,228.5C 294.662,230.246 289.662,231.412 284.5,232C 282.697,232.637 281.364,233.803 280.5,235.5C 276.561,233.138 272.561,233.138 268.5,235.5C 267.5,235.167 266.833,234.5 266.5,233.5C 267.641,232.575 267.641,231.741 266.5,231C 268.381,229.898 270.048,228.565 271.5,227C 269.634,223.235 266.634,221.902 262.5,223C 261.91,224.509 261.244,226.009 260.5,227.5C 258.729,226.965 258.396,226.131 259.5,225C 257.593,223.878 255.593,223.045 253.5,222.5C 252.5,222.5 251.5,222.5 250.5,222.5C 250.5,223.5 250.5,224.5 250.5,225.5C 248.089,225.863 246.589,224.863 246,222.5C 245.617,223.056 245.117,223.389 244.5,223.5C 243.15,224.483 242.15,225.816 241.5,227.5C 240.904,226.284 240.737,224.951 241,223.5C 240.667,223.833 240.333,224.167 240,224.5C 239.626,223.584 239.126,222.75 238.5,222C 235.736,221.468 233.07,220.634 230.5,219.5C 228.5,220.833 226.5,220.833 224.5,219.5C 223.784,220.311 222.95,220.978 222,221.5C 218.238,219.333 213.071,217.499 206.5,216C 201.567,214.682 196.567,213.849 191.5,213.5C 191.5,212.5 191.5,211.5 191.5,210.5C 188.545,209.841 185.545,209.508 182.5,209.5C 182.657,208.127 182.49,206.793 182,205.5C 181.667,206.167 181.333,206.833 181,207.5C 180.326,206.422 179.326,205.755 178,205.5C 176.307,206.203 174.807,206.203 173.5,205.5C 177.69,204.07 182.024,202.903 186.5,202C 191.194,201.436 195.86,201.603 200.5,202.5 Z"/></g>
<g><path style="opacity:1" fill="#6aaf33" d="M 246.5,200.5 C 246.833,200.5 247.167,200.5 247.5,200.5C 248.878,201.234 250.378,201.901 252,202.5C 252.333,202.167 252.667,201.833 253,201.5C 254.883,202.653 255.716,204.319 255.5,206.5C 260.599,206.069 265.432,205.736 270,205.5C 271.301,206.893 272.801,207.393 274.5,207C 273.167,206.333 273.167,205.667 274.5,205C 273.833,204.667 273.167,204.333 272.5,204C 277.54,202.295 282.54,202.295 287.5,204C 281.039,205.937 281.373,207.27 288.5,208C 287.833,210.333 287.167,212.667 286.5,215C 286.957,215.414 287.291,215.914 287.5,216.5C 293.807,217.664 300.141,217.831 306.5,217C 312.279,215.276 318.113,213.442 324,211.5C 326.923,211.045 329.09,212.045 330.5,214.5C 331.689,215.429 333.022,215.762 334.5,215.5C 334.5,217.167 334.5,218.833 334.5,220.5C 334.5,221.5 334.5,222.5 334.5,223.5C 332.53,221.715 330.53,220.548 328.5,220C 328.833,219.667 329.167,219.333 329.5,219C 328.773,217.601 328.273,216.101 328,214.5C 324.656,214.961 321.489,215.961 318.5,217.5C 314.871,216.762 311.204,216.929 307.5,218C 304.5,219.667 301.5,221.333 298.5,223C 292.771,225.046 287.104,224.879 281.5,222.5C 282.544,221.377 283.21,220.044 283.5,218.5C 283.504,215.442 283.004,212.442 282,209.5C 271.789,210.954 261.456,212.62 251,214.5C 248.53,214.66 246.364,213.993 244.5,212.5C 245.376,211.749 246.376,211.249 247.5,211C 245.884,209.923 244.051,209.423 242,209.5C 238.011,211.541 233.845,211.375 229.5,209C 230.938,208.781 232.271,208.281 233.5,207.5C 228.6,207.168 223.6,206.168 218.5,204.5C 212.502,204.376 206.669,204.709 201,205.5C 200.25,204.874 199.416,204.374 198.5,204C 199.416,203.722 200.082,203.222 200.5,202.5C 213.854,201.83 228.354,201.83 244,202.5C 244.995,201.934 245.828,201.267 246.5,200.5 Z"/></g>
<g><path style="opacity:1" fill="#72af33" d="M 247.5,200.5 C 276.5,200.5 305.5,200.5 334.5,200.5C 335.167,200.5 335.5,200.833 335.5,201.5C 335.5,207.833 335.5,214.167 335.5,220.5C 335.167,220.5 334.833,220.5 334.5,220.5C 334.5,218.833 334.5,217.167 334.5,215.5C 333.022,215.762 331.689,215.429 330.5,214.5C 329.09,212.045 326.923,211.045 324,211.5C 318.113,213.442 312.279,215.276 306.5,217C 300.141,217.831 293.807,217.664 287.5,216.5C 287.291,215.914 286.957,215.414 286.5,215C 287.167,212.667 287.833,210.333 288.5,208C 281.373,207.27 281.039,205.937 287.5,204C 282.54,202.295 277.54,202.295 272.5,204C 273.167,204.333 273.833,204.667 274.5,205C 273.167,205.667 273.167,206.333 274.5,207C 272.801,207.393 271.301,206.893 270,205.5C 265.432,205.736 260.599,206.069 255.5,206.5C 255.716,204.319 254.883,202.653 253,201.5C 252.667,201.833 252.333,202.167 252,202.5C 250.378,201.901 248.878,201.234 247.5,200.5 Z"/></g>
<g><path style="opacity:1" fill="#79b533" d="M 379.5,209.5 C 379.5,210.833 379.5,212.167 379.5,213.5C 379.5,215.833 379.5,218.167 379.5,220.5C 378.778,220.082 378.278,219.416 378,218.5C 375.686,222.658 372.353,224.325 368,223.5C 367.517,224.448 367.351,225.448 367.5,226.5C 365.473,226.662 363.473,226.495 361.5,226C 362.833,225.333 362.833,224.667 361.5,224C 353.246,224.532 350.913,220.865 354.5,213C 354.507,211.188 353.84,209.688 352.5,208.5C 352.938,207.494 353.604,207.494 354.5,208.5C 355.251,209.376 355.751,210.376 356,211.5C 360.916,206.785 359.75,204.952 352.5,206C 351.929,207.205 351.262,208.372 350.5,209.5C 349.479,207.812 348.145,206.479 346.5,205.5C 346.672,204.508 346.338,203.842 345.5,203.5C 345.833,201.5 346.167,199.5 346.5,197.5C 344.784,197.371 343.117,197.038 341.5,196.5C 341.443,195.391 341.11,194.391 340.5,193.5C 342.558,192.067 344.892,191.4 347.5,191.5C 347.162,194.157 347.829,196.49 349.5,198.5C 349.1,196.174 349.6,193.841 351,191.5C 351.787,192.711 352.454,193.711 353,194.5C 355.077,193.983 357.077,193.316 359,192.5C 361.983,193.917 365.15,194.75 368.5,195C 368.833,195.333 369.167,195.667 369.5,196C 368.196,201.405 367.696,206.905 368,212.5C 368.333,212.833 368.667,213.167 369,213.5C 369.216,211.616 369.883,209.949 371,208.5C 372.387,212.042 374.887,214.042 378.5,214.5C 378.216,212.585 378.549,210.919 379.5,209.5 Z"/></g>
<g><path style="opacity:1" fill="#5ba232" d="M 173.5,205.5 C 174.807,206.203 176.307,206.203 178,205.5C 179.326,205.755 180.326,206.422 181,207.5C 181.333,206.833 181.667,206.167 182,205.5C 182.49,206.793 182.657,208.127 182.5,209.5C 185.545,209.508 188.545,209.841 191.5,210.5C 191.5,211.5 191.5,212.5 191.5,213.5C 196.567,213.849 201.567,214.682 206.5,216C 213.071,217.499 218.238,219.333 222,221.5C 222.95,220.978 223.784,220.311 224.5,219.5C 226.5,220.833 228.5,220.833 230.5,219.5C 233.07,220.634 235.736,221.468 238.5,222C 239.126,222.75 239.626,223.584 240,224.5C 240.333,224.167 240.667,223.833 241,223.5C 240.737,224.951 240.904,226.284 241.5,227.5C 242.15,225.816 243.15,224.483 244.5,223.5C 246.799,227.246 247.132,231.246 245.5,235.5C 240.208,234.228 234.875,233.062 229.5,232C 229.833,231.667 230.167,231.333 230.5,231C 228.341,230.088 226.175,229.255 224,228.5C 218.338,228.688 212.672,229.021 207,229.5C 205.229,228.696 203.729,227.529 202.5,226C 192.003,224.55 182.337,222.55 173.5,220C 172.413,218.391 171.247,216.891 170,215.5C 168.779,216.272 167.779,217.272 167,218.5C 165.549,218.264 164.049,218.264 162.5,218.5C 161.097,215.7 162.097,214.2 165.5,214C 164.833,213 164.167,212 163.5,211C 164.605,208.88 164.605,206.713 163.5,204.5C 163.735,203.903 164.235,203.57 165,203.5C 167.229,206.364 170.062,208.364 173.5,209.5C 174.737,209.444 175.737,208.944 176.5,208C 175.062,207.781 173.729,207.281 172.5,206.5C 172.624,205.893 172.957,205.56 173.5,205.5 Z"/></g>
<g><path style="opacity:1" fill="#a7c48b" d="M 157.5,203.5 C 158.167,215.5 158.833,215.5 159.5,203.5C 160.167,203.5 160.5,203.833 160.5,204.5C 160.5,207.5 160.5,210.5 160.5,213.5C 159.167,213.5 157.833,213.5 156.5,213.5C 156.187,209.958 156.521,206.625 157.5,203.5 Z M 157.5,203.5 C 158.167,203.5 158.833,203.5 159.5,203.5C 158.833,215.5 158.167,215.5 157.5,203.5 Z"/></g>
<g><path style="opacity:1" fill="#f9faf9" d="M 39.5,210.5 C 40.8333,211.167 40.8333,211.167 39.5,210.5 Z"/></g>
<g><path style="opacity:1" fill="#709951" d="M 108.5,181.5 C 108.5,182.833 108.5,184.167 108.5,185.5C 107.5,196.003 107.5,206.67 108.5,217.5C 108.393,219.903 109.393,221.736 111.5,223C 115.894,223.707 119.894,225.207 123.5,227.5C 123.5,227.833 123.5,228.167 123.5,228.5C 119.49,226.28 115.157,225.113 110.5,225C 108.68,224.021 107.513,222.521 107,220.5C 105.722,208.641 105.722,196.641 107,184.5C 107.232,183.263 107.732,182.263 108.5,181.5 Z"/></g>
<g><path style="opacity:1" fill="#509b32" d="M 156.5,220.5 C 155.597,223.391 155.264,226.391 155.5,229.5C 153.72,230.99 153.054,232.99 153.5,235.5C 150.785,234.595 148.119,234.262 145.5,234.5C 144.41,235.391 144.41,236.391 145.5,237.5C 144.675,238.386 143.675,238.719 142.5,238.5C 142.617,236.516 141.95,234.85 140.5,233.5C 139.575,234.641 138.741,234.641 138,233.5C 137.749,235.433 137.249,237.266 136.5,239C 135.551,239.617 134.718,239.451 134,238.5C 133.83,235.532 133.664,232.699 133.5,230C 134.167,229.667 134.833,229.333 135.5,229C 134,228.5 132.5,228 131,227.5C 130.055,227.905 129.388,228.572 129,229.5C 127.599,227.808 125.766,227.141 123.5,227.5C 119.894,225.207 115.894,223.707 111.5,223C 109.393,221.736 108.393,219.903 108.5,217.5C 109.594,218.582 110.927,219.248 112.5,219.5C 116.397,218.578 116.397,217.411 112.5,216C 116.167,215.667 119.833,215.333 123.5,215C 125.685,213.179 127.685,213.512 129.5,216C 133.177,216.108 136.843,216.108 140.5,216C 141.745,219.159 142.912,218.993 144,215.5C 147.11,216.949 150.11,219.282 153,222.5C 153.816,221.177 154.983,220.511 156.5,220.5 Z"/></g>
<g><path style="opacity:1" fill="#f9faf9" d="M 41.5,223.5 C 42.8333,224.167 42.8333,224.167 41.5,223.5 Z"/></g>
<g><path style="opacity:1" fill="#519b31" d="M 245.5,235.5 C 244.449,236.222 243.782,237.222 243.5,238.5C 237.833,238.5 232.167,238.5 226.5,238.5C 224.707,238.884 223.707,240.05 223.5,242C 224.783,243.136 225.783,244.469 226.5,246C 226.387,247.28 225.72,248.113 224.5,248.5C 222.812,246.971 221.479,245.137 220.5,243C 214.411,242.082 208.411,240.748 202.5,239C 198.909,238.211 195.409,238.378 192,239.5C 191.5,238.333 190.667,237.5 189.5,237C 185.197,235.95 180.863,235.116 176.5,234.5C 176.769,232.571 176.269,230.905 175,229.5C 173.768,232.3 173.101,235.3 173,238.5C 171.989,239.337 170.822,239.67 169.5,239.5C 169.665,236.15 169.498,232.817 169,229.5C 167.594,228.332 166.428,228.665 165.5,230.5C 163.11,227.506 163.11,224.673 165.5,222C 164.099,221.59 162.766,221.09 161.5,220.5C 161.833,219.833 162.167,219.167 162.5,218.5C 164.049,218.264 165.549,218.264 167,218.5C 167.779,217.272 168.779,216.272 170,215.5C 171.247,216.891 172.413,218.391 173.5,220C 182.337,222.55 192.003,224.55 202.5,226C 203.729,227.529 205.229,228.696 207,229.5C 212.672,229.021 218.338,228.688 224,228.5C 226.175,229.255 228.341,230.088 230.5,231C 230.167,231.333 229.833,231.667 229.5,232C 234.875,233.062 240.208,234.228 245.5,235.5 Z"/></g>
<g><path style="opacity:1" fill="#7da055" d="M 341.5,196.5 C 343.117,197.038 344.784,197.371 346.5,197.5C 346.167,199.5 345.833,201.5 345.5,203.5C 345.5,215.167 345.5,226.833 345.5,238.5C 345.5,239.167 345.5,239.833 345.5,240.5C 344.833,259.167 344.167,277.833 343.5,296.5C 343.667,264.165 343.5,231.832 343,199.5C 342.487,198.473 341.987,197.473 341.5,196.5 Z"/></g>
<g><path style="opacity:1" fill="#6cae33" d="M 346.5,205.5 C 348.145,206.479 349.479,207.812 350.5,209.5C 351.262,208.372 351.929,207.205 352.5,206C 359.75,204.952 360.916,206.785 356,211.5C 355.751,210.376 355.251,209.376 354.5,208.5C 353.604,207.494 352.938,207.494 352.5,208.5C 353.84,209.688 354.507,211.188 354.5,213C 350.913,220.865 353.246,224.532 361.5,224C 362.833,224.667 362.833,225.333 361.5,226C 363.473,226.495 365.473,226.662 367.5,226.5C 367.351,225.448 367.517,224.448 368,223.5C 372.353,224.325 375.686,222.658 378,218.5C 378.278,219.416 378.778,220.082 379.5,220.5C 379.825,228.352 379.492,236.018 378.5,243.5C 377.917,240.759 376.917,238.092 375.5,235.5C 376.326,234.549 376.492,233.549 376,232.5C 373.697,232.409 372.03,233.743 371,236.5C 370.683,234.699 370.016,234.366 369,235.5C 367.823,234.682 366.49,233.682 365,232.5C 363.829,233.34 362.662,234.173 361.5,235C 357.812,235.19 354.312,236.024 351,237.5C 350.667,236.833 350.333,236.167 350,235.5C 349,235.833 348,236.167 347,236.5C 346.82,230.101 346.653,223.767 346.5,217.5C 347.167,215.5 347.833,213.5 348.5,211.5C 346.914,209.827 346.247,207.827 346.5,205.5 Z"/></g>
<g><path style="opacity:1" fill="#6a9550" d="M 156.5,220.5 C 158.179,220.285 159.179,220.952 159.5,222.5C 162.994,225.542 163.494,229.208 161,233.5C 156.848,235.492 155.015,234.159 155.5,229.5C 155.264,226.391 155.597,223.391 156.5,220.5 Z M 159.5,222.5 C 159.82,225.898 159.487,229.232 158.5,232.5C 158.167,230.833 157.833,229.167 157.5,227.5C 157.556,225.36 158.223,223.694 159.5,222.5 Z"/></g>
<g><path style="opacity:1" fill="#77a157" d="M 253.5,222.5 C 256.725,227.334 259.059,232.667 260.5,238.5C 259.624,238.631 258.957,238.298 258.5,237.5C 256.607,232.713 254.44,228.047 252,223.5C 250.008,228.133 248.008,232.799 246,237.5C 245.329,238.252 244.496,238.586 243.5,238.5C 243.782,237.222 244.449,236.222 245.5,235.5C 247.132,231.246 246.799,227.246 244.5,223.5C 245.117,223.389 245.617,223.056 246,222.5C 246.589,224.863 248.089,225.863 250.5,225.5C 250.5,224.5 250.5,223.5 250.5,222.5C 251.5,222.5 252.5,222.5 253.5,222.5 Z"/></g>
<g><path style="opacity:1" fill="#5ca133" d="M 253.5,222.5 C 255.593,223.045 257.593,223.878 259.5,225C 258.396,226.131 258.729,226.965 260.5,227.5C 261.244,226.009 261.91,224.509 262.5,223C 266.634,221.902 269.634,223.235 271.5,227C 270.048,228.565 268.381,229.898 266.5,231C 267.641,231.741 267.641,232.575 266.5,233.5C 266.833,234.5 267.5,235.167 268.5,235.5C 272.561,233.138 276.561,233.138 280.5,235.5C 281.364,233.803 282.697,232.637 284.5,232C 289.662,231.412 294.662,230.246 299.5,228.5C 308.897,229.196 318.23,230.196 327.5,231.5C 327.413,228.402 327.913,228.068 329,230.5C 329.689,229.643 330.522,228.977 331.5,228.5C 332.527,229.791 333.527,229.791 334.5,228.5C 334.5,236.5 334.5,244.5 334.5,252.5C 333.883,252.611 333.383,252.944 333,253.5C 331.56,251.954 329.727,251.121 327.5,251C 324.322,249.177 321.322,247.177 318.5,245C 310.606,244.347 302.606,243.347 294.5,242C 296.167,241.667 297.833,241.333 299.5,241C 296.594,240.78 293.761,239.947 291,238.5C 286.873,240.035 283.039,242.035 279.5,244.5C 278.893,244.376 278.56,244.043 278.5,243.5C 278.5,242.167 278.5,240.833 278.5,239.5C 272.682,238.349 267.015,238.349 261.5,239.5C 260.833,239.5 260.5,239.167 260.5,238.5C 259.059,232.667 256.725,227.334 253.5,222.5 Z"/></g>
<g><path style="opacity:1" fill="#6a9959" d="M 123.5,228.5 C 125.929,228.884 128.263,229.551 130.5,230.5C 131.92,233.261 132.587,236.261 132.5,239.5C 132.5,240.167 132.5,240.833 132.5,241.5C 131.379,239.259 130.213,236.925 129,234.5C 126.96,232.63 125.127,230.63 123.5,228.5 Z"/></g>
<g><path style="opacity:1" fill="#f9faf9" d="M 455.5,232.5 C 456.833,233.167 456.833,233.167 455.5,232.5 Z"/></g>
<g><path style="opacity:1" fill="#65a833" d="M 345.5,203.5 C 346.338,203.842 346.672,204.508 346.5,205.5C 346.247,207.827 346.914,209.827 348.5,211.5C 347.833,213.5 347.167,215.5 346.5,217.5C 346.653,223.767 346.82,230.101 347,236.5C 348,236.167 349,235.833 350,235.5C 350.333,236.167 350.667,236.833 351,237.5C 354.312,236.024 357.812,235.19 361.5,235C 362.662,234.173 363.829,233.34 365,232.5C 366.49,233.682 367.823,234.682 369,235.5C 370.016,234.366 370.683,234.699 371,236.5C 372.03,233.743 373.697,232.409 376,232.5C 376.492,233.549 376.326,234.549 375.5,235.5C 376.917,238.092 377.917,240.759 378.5,243.5C 378.958,249.662 377.625,249.995 374.5,244.5C 373.526,246.743 373.192,249.076 373.5,251.5C 372.5,251.5 371.5,251.5 370.5,251.5C 370.98,243.87 367.647,241.704 360.5,245C 361.624,245.249 362.624,245.749 363.5,246.5C 360.349,247.894 357.349,247.727 354.5,246C 355.167,245.667 355.833,245.333 356.5,245C 353.313,244.999 350.48,244.166 348,242.5C 347.667,242.833 347.333,243.167 347,243.5C 346.802,241.618 346.302,239.952 345.5,238.5C 345.5,226.833 345.5,215.167 345.5,203.5 Z"/></g>
<g><path style="opacity:1" fill="#f9faf9" d="M 417.5,235.5 C 418.833,236.167 418.833,236.167 417.5,235.5 Z"/></g>
<g><path style="opacity:1" fill="#479632" d="M 156.5,220.5 C 158.05,219.28 159.716,219.28 161.5,220.5C 162.766,221.09 164.099,221.59 165.5,222C 163.11,224.673 163.11,227.506 165.5,230.5C 166.428,228.665 167.594,228.332 169,229.5C 169.498,232.817 169.665,236.15 169.5,239.5C 170.822,239.67 171.989,239.337 173,238.5C 173.101,235.3 173.768,232.3 175,229.5C 176.269,230.905 176.769,232.571 176.5,234.5C 180.863,235.116 185.197,235.95 189.5,237C 190.667,237.5 191.5,238.333 192,239.5C 195.409,238.378 198.909,238.211 202.5,239C 208.411,240.748 214.411,242.082 220.5,243C 221.479,245.137 222.812,246.971 224.5,248.5C 225.72,248.113 226.387,247.28 226.5,246C 225.783,244.469 224.783,243.136 223.5,242C 223.707,240.05 224.707,238.884 226.5,238.5C 226.077,239.265 225.743,240.098 225.5,241C 227.296,242.753 228.462,244.92 229,247.5C 231.473,248.033 233.307,249.366 234.5,251.5C 231.873,253.344 232.04,254.677 235,255.5C 236.261,255.241 237.261,254.574 238,253.5C 238.495,255.473 238.662,257.473 238.5,259.5C 238.5,259.833 238.5,260.167 238.5,260.5C 237.542,260.953 236.708,261.619 236,262.5C 235.502,265.482 235.335,268.482 235.5,271.5C 232.134,271.091 231.134,269.425 232.5,266.5C 233.249,265.469 233.915,264.302 234.5,263C 233.533,260.195 232.7,257.695 232,255.5C 230.078,257.895 228.578,260.561 227.5,263.5C 226.149,260.905 224.983,258.238 224,255.5C 218.896,256.702 213.729,257.702 208.5,258.5C 207.636,256.803 206.303,255.637 204.5,255C 205.833,254 205.833,253 204.5,252C 197.863,252.441 191.196,252.441 184.5,252C 185.167,251.667 185.833,251.333 186.5,251C 183.042,250.403 179.709,249.403 176.5,248C 175.739,242.334 174.572,242.168 173,247.5C 171.333,246.167 169.667,244.833 168,243.5C 167.654,245.218 167.154,246.885 166.5,248.5C 167.367,251.362 166.367,253.529 163.5,255C 164.167,255.333 164.833,255.667 165.5,256C 161.357,256.38 160.69,255.047 163.5,252C 163.272,251.601 162.938,251.435 162.5,251.5C 164.772,246.106 163.438,242.106 158.5,239.5C 157.353,239.818 156.519,240.484 156,241.5C 155.238,245.587 155.404,249.587 156.5,253.5C 156.217,254.289 155.717,254.956 155,255.5C 152.899,252.735 151.233,249.735 150,246.5C 148.899,244.606 147.566,243.939 146,244.5C 144.887,243.24 144.72,242.073 145.5,241C 143.796,241.972 141.962,243.139 140,244.5C 137.061,243.377 134.561,241.711 132.5,239.5C 132.587,236.261 131.92,233.261 130.5,230.5C 128.263,229.551 125.929,228.884 123.5,228.5C 123.5,228.167 123.5,227.833 123.5,227.5C 125.766,227.141 127.599,227.808 129,229.5C 129.388,228.572 130.055,227.905 131,227.5C 132.5,228 134,228.5 135.5,229C 134.833,229.333 134.167,229.667 133.5,230C 133.664,232.699 133.83,235.532 134,238.5C 134.718,239.451 135.551,239.617 136.5,239C 137.249,237.266 137.749,235.433 138,233.5C 138.741,234.641 139.575,234.641 140.5,233.5C 141.95,234.85 142.617,236.516 142.5,238.5C 143.675,238.719 144.675,238.386 145.5,237.5C 144.41,236.391 144.41,235.391 145.5,234.5C 148.119,234.262 150.785,234.595 153.5,235.5C 153.054,232.99 153.72,230.99 155.5,229.5C 155.015,234.159 156.848,235.492 161,233.5C 163.494,229.208 162.994,225.542 159.5,222.5C 159.179,220.952 158.179,220.285 156.5,220.5 Z M 157.5,242.5 C 158.765,243.514 159.431,245.014 159.5,247C 159.167,248.5 158.833,250 158.5,251.5C 157.516,248.572 157.183,245.572 157.5,242.5 Z"/></g>
<g><path style="opacity:1" fill="#509b32" d="M 334.5,252.5 C 334.5,255.167 334.5,257.833 334.5,260.5C 330.167,260.356 325.5,260.522 320.5,261C 315.615,260.568 311.282,258.902 307.5,256C 300.182,255.261 293.182,254.095 286.5,252.5C 284.678,256.102 283.678,256.102 283.5,252.5C 281.403,252.003 279.57,251.67 278,251.5C 275.763,252.056 273.763,253.056 272,254.5C 270.108,253.383 269.275,251.716 269.5,249.5C 270.552,249.649 271.552,249.483 272.5,249C 274.631,247.152 276.631,245.319 278.5,243.5C 278.56,244.043 278.893,244.376 279.5,244.5C 283.039,242.035 286.873,240.035 291,238.5C 293.761,239.947 296.594,240.78 299.5,241C 297.833,241.333 296.167,241.667 294.5,242C 302.606,243.347 310.606,244.347 318.5,245C 321.322,247.177 324.322,249.177 327.5,251C 329.727,251.121 331.56,251.954 333,253.5C 333.383,252.944 333.883,252.611 334.5,252.5 Z"/></g>
<g><path style="opacity:1" fill="#f9faf9" d="M 437.5,242.5 C 438.833,243.167 438.833,243.167 437.5,242.5 Z"/></g>
<g><path style="opacity:1" fill="#f9faf9" d="M 86.5,243.5 C 87.8333,244.167 87.8333,244.167 86.5,243.5 Z"/></g>
<g><path style="opacity:1" fill="#3c8e32" d="M 132.5,239.5 C 134.561,241.711 137.061,243.377 140,244.5C 141.962,243.139 143.796,241.972 145.5,241C 144.72,242.073 144.887,243.24 146,244.5C 147.566,243.939 148.899,244.606 150,246.5C 151.233,249.735 152.899,252.735 155,255.5C 155.717,254.956 156.217,254.289 156.5,253.5C 158.858,253.747 160.858,253.081 162.5,251.5C 162.938,251.435 163.272,251.601 163.5,252C 160.69,255.047 161.357,256.38 165.5,256C 164.833,255.667 164.167,255.333 163.5,255C 166.367,253.529 167.367,251.362 166.5,248.5C 167.154,246.885 167.654,245.218 168,243.5C 169.667,244.833 171.333,246.167 173,247.5C 174.572,242.168 175.739,242.334 176.5,248C 179.709,249.403 183.042,250.403 186.5,251C 185.833,251.333 185.167,251.667 184.5,252C 191.196,252.441 197.863,252.441 204.5,252C 205.833,253 205.833,254 204.5,255C 206.303,255.637 207.636,256.803 208.5,258.5C 213.729,257.702 218.896,256.702 224,255.5C 224.983,258.238 226.149,260.905 227.5,263.5C 228.578,260.561 230.078,257.895 232,255.5C 232.7,257.695 233.533,260.195 234.5,263C 233.915,264.302 233.249,265.469 232.5,266.5C 231.833,266.833 231.167,267.167 230.5,267.5C 229.659,266.991 229.159,267.657 229,269.5C 228.667,269.167 228.333,268.833 228,268.5C 227.717,271.742 226.883,272.076 225.5,269.5C 226.609,268.035 226.109,267.035 224,266.5C 213.441,268.125 203.274,266.625 193.5,262C 189.959,260.745 186.459,260.578 183,261.5C 179.725,261.081 176.891,259.747 174.5,257.5C 173.571,258.689 173.238,260.022 173.5,261.5C 170.762,262.035 168.928,261.035 168,258.5C 167.311,259.357 166.478,260.023 165.5,260.5C 164.304,260.154 164.304,259.654 165.5,259C 161.675,257.372 157.842,257.205 154,258.5C 153.767,256.22 152.934,254.22 151.5,252.5C 150.761,254.544 149.427,256.711 147.5,259C 146.551,259.617 145.718,259.451 145,258.5C 144.174,260.405 143.007,260.739 141.5,259.5C 143.335,258.572 143.668,257.406 142.5,256C 145.612,255.149 145.946,253.983 143.5,252.5C 139.586,254.982 136.586,258.315 134.5,262.5C 133.692,262.192 133.025,261.692 132.5,261C 133.406,259.301 133.739,257.467 133.5,255.5C 133.818,250.968 133.485,246.634 132.5,242.5C 132.5,242.167 132.5,241.833 132.5,241.5C 132.5,240.833 132.5,240.167 132.5,239.5 Z"/></g>
<g><path style="opacity:1" fill="#649754" d="M 162.5,251.5 C 160.858,253.081 158.858,253.747 156.5,253.5C 155.404,249.587 155.238,245.587 156,241.5C 156.519,240.484 157.353,239.818 158.5,239.5C 163.438,242.106 164.772,246.106 162.5,251.5 Z M 157.5,242.5 C 157.183,245.572 157.516,248.572 158.5,251.5C 158.833,250 159.167,248.5 159.5,247C 159.431,245.014 158.765,243.514 157.5,242.5 Z"/></g>
<g><path style="opacity:1" fill="#5e9749" d="M 226.5,238.5 C 232.167,238.5 237.833,238.5 243.5,238.5C 238.358,239.647 233.025,240.48 227.5,241C 231.668,244.336 235.668,247.836 239.5,251.5C 239.806,254.385 239.473,257.052 238.5,259.5C 238.662,257.473 238.495,255.473 238,253.5C 237.261,254.574 236.261,255.241 235,255.5C 232.04,254.677 231.873,253.344 234.5,251.5C 233.307,249.366 231.473,248.033 229,247.5C 228.462,244.92 227.296,242.753 225.5,241C 225.743,240.098 226.077,239.265 226.5,238.5 Z"/></g>
<g><path style="opacity:1" fill="#8ea887" d="M 239.5,251.5 C 240.249,252.531 240.915,253.698 241.5,255C 240.806,258.025 239.806,260.858 238.5,263.5C 238.5,262.5 238.5,261.5 238.5,260.5C 238.5,260.167 238.5,259.833 238.5,259.5C 239.473,257.052 239.806,254.385 239.5,251.5 Z"/></g>
<g><path style="opacity:1" fill="#f9faf9" d="M 463.5,255.5 C 464.833,256.167 464.833,256.167 463.5,255.5 Z"/></g>
<g><path style="opacity:1" fill="#559e33" d="M 379.5,213.5 C 380.495,224.654 380.828,235.988 380.5,247.5C 379.508,255.316 379.174,263.316 379.5,271.5C 378.596,272.209 378.263,273.209 378.5,274.5C 376.903,273.91 375.569,272.91 374.5,271.5C 373.808,272.025 373.308,272.692 373,273.5C 370.86,272.272 369.193,270.605 368,268.5C 367.692,269.308 367.192,269.975 366.5,270.5C 362.89,269.297 359.223,268.297 355.5,267.5C 353.088,267.406 351.255,268.406 350,270.5C 349,269.833 348,269.167 347,268.5C 346.824,264.312 346.324,260.312 345.5,256.5C 345.5,251.167 345.5,245.833 345.5,240.5C 345.5,239.833 345.5,239.167 345.5,238.5C 346.302,239.952 346.802,241.618 347,243.5C 347.333,243.167 347.667,242.833 348,242.5C 350.48,244.166 353.313,244.999 356.5,245C 355.833,245.333 355.167,245.667 354.5,246C 357.349,247.727 360.349,247.894 363.5,246.5C 362.624,245.749 361.624,245.249 360.5,245C 367.647,241.704 370.98,243.87 370.5,251.5C 371.5,251.5 372.5,251.5 373.5,251.5C 373.192,249.076 373.526,246.743 374.5,244.5C 377.625,249.995 378.958,249.662 378.5,243.5C 379.492,236.018 379.825,228.352 379.5,220.5C 379.5,218.167 379.5,215.833 379.5,213.5 Z"/></g>
<g><path style="opacity:1" fill="#459632" d="M 269.5,249.5 C 269.275,251.716 270.108,253.383 272,254.5C 273.763,253.056 275.763,252.056 278,251.5C 279.57,251.67 281.403,252.003 283.5,252.5C 283.678,256.102 284.678,256.102 286.5,252.5C 293.182,254.095 300.182,255.261 307.5,256C 311.282,258.902 315.615,260.568 320.5,261C 325.5,260.522 330.167,260.356 334.5,260.5C 334.831,268.86 334.498,277.193 333.5,285.5C 332.876,283.042 331.376,281.376 329,280.5C 328.667,279.167 328.333,277.833 328,276.5C 327.667,277.167 327.333,277.833 327,278.5C 325.513,277.845 324.347,276.845 323.5,275.5C 318.587,274.972 313.92,273.638 309.5,271.5C 306.972,272.169 306.972,273.002 309.5,274C 307.512,274.18 305.512,274.014 303.5,273.5C 303.5,271.833 303.5,270.167 303.5,268.5C 299.486,268.334 295.486,268.501 291.5,269C 294.076,270.383 293.742,271.217 290.5,271.5C 284.244,271.345 278.41,271.345 273,271.5C 272.208,269.356 270.708,268.023 268.5,267.5C 267.428,264.106 266.428,260.606 265.5,257C 266.372,254.184 267.706,251.684 269.5,249.5 Z"/></g>
<g><path style="opacity:1" fill="#5e8d58" d="M 132.5,242.5 C 133.485,246.634 133.818,250.968 133.5,255.5C 131.72,256.99 131.054,258.99 131.5,261.5C 130.209,261.263 129.209,261.596 128.5,262.5C 125.636,265.769 121.969,267.769 117.5,268.5C 115.5,268.5 113.5,268.5 111.5,268.5C 126.484,266.499 133.484,257.832 132.5,242.5 Z"/></g>
<g><path style="opacity:1" fill="#328831" d="M 230.5,267.5 C 230.67,268.822 230.337,269.989 229.5,271C 231.699,272.697 234.032,274.197 236.5,275.5C 242.721,275.44 249.054,275.107 255.5,274.5C 255.33,275.822 255.663,276.989 256.5,278C 259.408,279.307 262.241,280.807 265,282.5C 270.009,283.5 274.843,285 279.5,287C 278.833,287.667 278.167,288.333 277.5,289C 280.833,289.333 284.167,289.667 287.5,290C 285.833,290.333 284.167,290.667 282.5,291C 288.167,291.667 293.833,291.667 299.5,291C 297.167,290.667 294.833,290.333 292.5,290C 293.833,289.667 295.167,289.333 296.5,289C 292.833,288.667 289.167,288.333 285.5,288C 286.416,287.626 287.25,287.126 288,286.5C 293.217,286.32 298.717,286.82 304.5,288C 302.709,288.415 301.376,289.415 300.5,291C 310.761,291.964 320.928,292.464 331,292.5C 331.464,291.906 331.631,291.239 331.5,290.5C 333.43,290.229 334.764,289.229 335.5,287.5C 335.5,289.5 335.5,291.5 335.5,293.5C 334.352,292.105 333.352,292.272 332.5,294C 308.502,294.5 284.502,294.667 260.5,294.5C 259.526,292.915 258.026,291.915 256,291.5C 254,294.167 252,294.167 250,291.5C 246.714,292.108 243.214,292.275 239.5,292C 239.833,291.667 240.167,291.333 240.5,291C 239.584,290.626 238.75,290.126 238,289.5C 237.333,290.833 236.667,290.833 236,289.5C 235.667,290.167 235.333,290.833 235,291.5C 234.5,290.333 233.667,289.5 232.5,289C 234.731,287.853 237.065,286.853 239.5,286C 237.302,285.627 235.135,285.127 233,284.5C 232.05,285.022 231.216,285.689 230.5,286.5C 225.372,284.436 220.705,281.602 216.5,278C 213.547,277.108 210.881,277.608 208.5,279.5C 208.612,277.831 207.612,276.498 205.5,275.5C 202.918,273.943 200.751,274.277 199,276.5C 195.876,275.439 192.709,274.439 189.5,273.5C 190.571,271.675 189.904,270.508 187.5,270C 184.937,269.082 182.77,269.582 181,271.5C 176.938,267.158 174.771,267.825 174.5,273.5C 173.269,272.349 173.269,271.183 174.5,270C 172.63,268.634 170.63,267.467 168.5,266.5C 168.168,267.789 167.834,269.455 167.5,271.5C 166.5,271.5 165.5,271.5 164.5,271.5C 163.182,268.435 163.182,265.269 164.5,262C 162.043,261.084 159.709,259.917 157.5,258.5C 156.353,258.818 155.519,259.484 155,260.5C 154.209,264.926 154.543,269.259 156,273.5C 158.041,272.577 160.208,272.244 162.5,272.5C 162.643,274.262 162.309,275.929 161.5,277.5C 159.025,277.964 157.025,278.964 155.5,280.5C 154.325,280.281 153.325,280.614 152.5,281.5C 153.853,284.245 153.686,286.912 152,289.5C 150.243,288.881 149.076,287.714 148.5,286C 150.356,283.953 151.689,281.62 152.5,279C 150.167,277 147.833,275 145.5,273C 144.101,272.405 142.768,272.572 141.5,273.5C 140.088,272.194 138.421,271.36 136.5,271C 135.663,269.989 135.33,268.822 135.5,267.5C 131.38,267.876 127.38,268.376 123.5,269C 126.352,267.618 128.018,265.451 128.5,262.5C 129.209,261.596 130.209,261.263 131.5,261.5C 131.054,258.99 131.72,256.99 133.5,255.5C 133.739,257.467 133.406,259.301 132.5,261C 133.025,261.692 133.692,262.192 134.5,262.5C 136.586,258.315 139.586,254.982 143.5,252.5C 145.946,253.983 145.612,255.149 142.5,256C 143.668,257.406 143.335,258.572 141.5,259.5C 143.007,260.739 144.174,260.405 145,258.5C 145.718,259.451 146.551,259.617 147.5,259C 149.427,256.711 150.761,254.544 151.5,252.5C 152.934,254.22 153.767,256.22 154,258.5C 157.842,257.205 161.675,257.372 165.5,259C 164.304,259.654 164.304,260.154 165.5,260.5C 166.478,260.023 167.311,259.357 168,258.5C 168.928,261.035 170.762,262.035 173.5,261.5C 173.238,260.022 173.571,258.689 174.5,257.5C 176.891,259.747 179.725,261.081 183,261.5C 186.459,260.578 189.959,260.745 193.5,262C 203.274,266.625 213.441,268.125 224,266.5C 226.109,267.035 226.609,268.035 225.5,269.5C 226.883,272.076 227.717,271.742 228,268.5C 228.333,268.833 228.667,269.167 229,269.5C 229.159,267.657 229.659,266.991 230.5,267.5 Z M 159.5,271.5 C 158.833,271.5 158.167,271.5 157.5,271.5C 158.167,259.5 158.833,259.5 159.5,271.5 Z"/></g>
<g><path style="opacity:1" fill="#619351" d="M 261.5,239.5 C 267.015,238.349 272.682,238.349 278.5,239.5C 278.5,240.833 278.5,242.167 278.5,243.5C 276.631,245.319 274.631,247.152 272.5,249C 271.552,249.483 270.552,249.649 269.5,249.5C 267.706,251.684 266.372,254.184 265.5,257C 266.428,260.606 267.428,264.106 268.5,267.5C 268.33,268.822 268.663,269.989 269.5,271C 266.593,271.718 263.926,271.218 261.5,269.5C 255.382,264.207 249.382,264.374 243.5,270C 241.187,270.662 238.854,271.162 236.5,271.5C 236.337,269.143 236.503,266.81 237,264.5C 237.383,263.944 237.883,263.611 238.5,263.5C 238.254,265.78 238.254,267.78 238.5,269.5C 242.94,266.613 247.607,264.28 252.5,262.5C 257.226,264.031 261.56,266.364 265.5,269.5C 265.833,269.167 266.167,268.833 266.5,268.5C 265.012,263.23 264.179,257.897 264,252.5C 268.072,248.55 272.238,244.717 276.5,241C 271.519,240.252 266.519,239.752 261.5,239.5 Z"/></g>
<g><path style="opacity:1" fill="#408f32" d="M 334.5,220.5 C 334.833,220.5 335.167,220.5 335.5,220.5C 335.5,242.833 335.5,265.167 335.5,287.5C 334.764,289.229 333.43,290.229 331.5,290.5C 329.586,289.815 327.586,289.315 325.5,289C 322.453,285.787 318.786,283.62 314.5,282.5C 313.006,282.709 311.839,283.376 311,284.5C 309.648,282.568 307.815,281.234 305.5,280.5C 295.633,278.692 285.633,277.359 275.5,276.5C 273.772,276.59 272.106,276.923 270.5,277.5C 269.808,276.975 269.308,276.308 269,275.5C 267.883,275.665 266.716,275.998 265.5,276.5C 264.749,275.624 264.249,274.624 264,273.5C 262.132,274.672 260.298,274.505 258.5,273C 260.426,272.578 261.426,271.411 261.5,269.5C 263.926,271.218 266.593,271.718 269.5,271C 268.663,269.989 268.33,268.822 268.5,267.5C 270.708,268.023 272.208,269.356 273,271.5C 278.41,271.345 284.244,271.345 290.5,271.5C 293.742,271.217 294.076,270.383 291.5,269C 295.486,268.501 299.486,268.334 303.5,268.5C 303.5,270.167 303.5,271.833 303.5,273.5C 305.512,274.014 307.512,274.18 309.5,274C 306.972,273.002 306.972,272.169 309.5,271.5C 313.92,273.638 318.587,274.972 323.5,275.5C 324.347,276.845 325.513,277.845 327,278.5C 327.333,277.833 327.667,277.167 328,276.5C 328.333,277.833 328.667,279.167 329,280.5C 331.376,281.376 332.876,283.042 333.5,285.5C 334.498,277.193 334.831,268.86 334.5,260.5C 334.5,257.833 334.5,255.167 334.5,252.5C 334.5,244.5 334.5,236.5 334.5,228.5C 334.5,226.833 334.5,225.167 334.5,223.5C 334.5,222.5 334.5,221.5 334.5,220.5 Z"/></g>
<g><path style="opacity:1" fill="#388e32" d="M 238.5,260.5 C 238.5,261.5 238.5,262.5 238.5,263.5C 237.883,263.611 237.383,263.944 237,264.5C 236.503,266.81 236.337,269.143 236.5,271.5C 238.854,271.162 241.187,270.662 243.5,270C 249.382,264.374 255.382,264.207 261.5,269.5C 261.426,271.411 260.426,272.578 258.5,273C 260.298,274.505 262.132,274.672 264,273.5C 264.249,274.624 264.749,275.624 265.5,276.5C 266.716,275.998 267.883,275.665 269,275.5C 269.308,276.308 269.808,276.975 270.5,277.5C 272.106,276.923 273.772,276.59 275.5,276.5C 285.633,277.359 295.633,278.692 305.5,280.5C 307.815,281.234 309.648,282.568 311,284.5C 311.839,283.376 313.006,282.709 314.5,282.5C 318.786,283.62 322.453,285.787 325.5,289C 327.586,289.315 329.586,289.815 331.5,290.5C 331.631,291.239 331.464,291.906 331,292.5C 320.928,292.464 310.761,291.964 300.5,291C 301.376,289.415 302.709,288.415 304.5,288C 298.717,286.82 293.217,286.32 288,286.5C 287.25,287.126 286.416,287.626 285.5,288C 289.167,288.333 292.833,288.667 296.5,289C 295.167,289.333 293.833,289.667 292.5,290C 294.833,290.333 297.167,290.667 299.5,291C 293.833,291.667 288.167,291.667 282.5,291C 284.167,290.667 285.833,290.333 287.5,290C 284.167,289.667 280.833,289.333 277.5,289C 278.167,288.333 278.833,287.667 279.5,287C 274.843,285 270.009,283.5 265,282.5C 262.241,280.807 259.408,279.307 256.5,278C 255.663,276.989 255.33,275.822 255.5,274.5C 249.054,275.107 242.721,275.44 236.5,275.5C 234.032,274.197 231.699,272.697 229.5,271C 230.337,269.989 230.67,268.822 230.5,267.5C 231.167,267.167 231.833,266.833 232.5,266.5C 231.134,269.425 232.134,271.091 235.5,271.5C 235.335,268.482 235.502,265.482 236,262.5C 236.708,261.619 237.542,260.953 238.5,260.5 Z"/></g>
<g><path style="opacity:1" fill="#457630" d="M 345.5,240.5 C 345.5,245.833 345.5,251.167 345.5,256.5C 345.5,263.833 345.5,271.167 345.5,278.5C 345.5,285.167 345.5,291.833 345.5,298.5C 343.833,299.833 342.167,301.167 340.5,302.5C 340.158,301.662 339.492,301.328 338.5,301.5C 340.5,300.167 342.167,298.5 343.5,296.5C 344.167,277.833 344.833,259.167 345.5,240.5 Z"/></g>
<g><path style="opacity:1" fill="#469532" d="M 345.5,256.5 C 346.324,260.312 346.824,264.312 347,268.5C 348,269.167 349,269.833 350,270.5C 351.255,268.406 353.088,267.406 355.5,267.5C 359.223,268.297 362.89,269.297 366.5,270.5C 367.192,269.975 367.692,269.308 368,268.5C 369.193,270.605 370.86,272.272 373,273.5C 373.308,272.692 373.808,272.025 374.5,271.5C 375.569,272.91 376.903,273.91 378.5,274.5C 378.362,278.004 377.362,280.671 375.5,282.5C 376.647,285.607 376.314,288.607 374.5,291.5C 372.941,290.926 371.441,290.26 370,289.5C 368.984,290.634 368.317,290.301 368,288.5C 367.667,288.833 367.333,289.167 367,289.5C 366.691,288.234 366.191,287.067 365.5,286C 359.381,285.785 353.881,283.952 349,280.5C 348.667,278.833 348.333,277.167 348,275.5C 347.764,277.119 346.931,278.119 345.5,278.5C 345.5,271.167 345.5,263.833 345.5,256.5 Z"/></g>
<g><path style="opacity:1" fill="#f9faf9" d="M 79.5,272.5 C 80.8333,273.167 80.8333,273.167 79.5,272.5 Z"/></g>
<g><path style="opacity:1" fill="#278231" d="M 260.5,294.5 C 251.5,294.5 242.5,294.5 233.5,294.5C 227.009,292.856 220.342,292.523 213.5,293.5C 208.792,292.523 204.459,291.523 200.5,290.5C 196.968,292.116 193.634,291.783 190.5,289.5C 188.491,290.056 186.491,291.389 184.5,293.5C 182.104,291.933 179.437,291.1 176.5,291C 175.631,289.535 176.131,288.369 178,287.5C 179.762,287.944 179.595,288.444 177.5,289C 182.239,289.726 186.905,289.393 191.5,288C 188.833,287.667 186.167,287.333 183.5,287C 184.451,286.282 184.617,285.449 184,284.5C 183.282,285.451 182.449,285.617 181.5,285C 182.623,283.956 183.956,283.29 185.5,283C 181.575,281.416 177.575,280.083 173.5,279C 173.943,277.482 173.276,276.315 171.5,275.5C 170.961,278.166 169.628,280.333 167.5,282C 169.661,286.448 168.328,288.615 163.5,288.5C 163.777,285.552 163.444,282.719 162.5,280C 165.311,277.594 165.977,274.761 164.5,271.5C 165.5,271.5 166.5,271.5 167.5,271.5C 167.834,269.455 168.168,267.789 168.5,266.5C 170.63,267.467 172.63,268.634 174.5,270C 173.269,271.183 173.269,272.349 174.5,273.5C 174.771,267.825 176.938,267.158 181,271.5C 182.77,269.582 184.937,269.082 187.5,270C 189.904,270.508 190.571,271.675 189.5,273.5C 192.709,274.439 195.876,275.439 199,276.5C 200.751,274.277 202.918,273.943 205.5,275.5C 207.612,276.498 208.612,277.831 208.5,279.5C 210.881,277.608 213.547,277.108 216.5,278C 220.705,281.602 225.372,284.436 230.5,286.5C 231.216,285.689 232.05,285.022 233,284.5C 235.135,285.127 237.302,285.627 239.5,286C 237.065,286.853 234.731,287.853 232.5,289C 233.667,289.5 234.5,290.333 235,291.5C 235.333,290.833 235.667,290.167 236,289.5C 236.667,290.833 237.333,290.833 238,289.5C 238.75,290.126 239.584,290.626 240.5,291C 240.167,291.333 239.833,291.667 239.5,292C 243.214,292.275 246.714,292.108 250,291.5C 252,294.167 254,294.167 256,291.5C 258.026,291.915 259.526,292.915 260.5,294.5 Z"/></g>
<g><path style="opacity:1" fill="#749861" d="M 335.5,201.5 C 336.222,201.918 336.722,202.584 337,203.5C 337.667,232.833 337.667,262.167 337,291.5C 336.722,292.416 336.222,293.082 335.5,293.5C 335.5,291.5 335.5,289.5 335.5,287.5C 335.5,265.167 335.5,242.833 335.5,220.5C 335.5,214.167 335.5,207.833 335.5,201.5 Z"/></g>
<g><path style="opacity:1" fill="#3d8f32" d="M 379.5,271.5 C 379.667,284.171 379.5,296.838 379,309.5C 378.487,310.527 377.987,311.527 377.5,312.5C 376.292,313.234 374.959,313.567 373.5,313.5C 373.67,312.178 373.337,311.011 372.5,310C 376.632,307.068 377.965,303.235 376.5,298.5C 375.319,301.462 373.486,304.462 371,307.5C 370.043,302.933 367.209,300.599 362.5,300.5C 361.833,301.5 361.167,302.5 360.5,303.5C 356.426,301.61 352.093,300.61 347.5,300.5C 347.798,303.336 347.131,303.836 345.5,302C 346.791,300.708 346.791,299.542 345.5,298.5C 345.5,291.833 345.5,285.167 345.5,278.5C 346.931,278.119 347.764,277.119 348,275.5C 348.333,277.167 348.667,278.833 349,280.5C 353.881,283.952 359.381,285.785 365.5,286C 366.191,287.067 366.691,288.234 367,289.5C 367.333,289.167 367.667,288.833 368,288.5C 368.317,290.301 368.984,290.634 370,289.5C 371.441,290.26 372.941,290.926 374.5,291.5C 376.314,288.607 376.647,285.607 375.5,282.5C 377.362,280.671 378.362,278.004 378.5,274.5C 378.263,273.209 378.596,272.209 379.5,271.5 Z"/></g>
<g><path style="opacity:1" fill="#558747" d="M 380.5,247.5 C 380.171,262.01 380.504,276.343 381.5,290.5C 381.821,298.561 381.321,306.561 380,314.5C 377.204,319.801 373.037,323.467 367.5,325.5C 367.5,325.167 367.5,324.833 367.5,324.5C 370.764,322.906 373.431,320.573 375.5,317.5C 376.456,315.925 377.123,314.258 377.5,312.5C 377.987,311.527 378.487,310.527 379,309.5C 379.5,296.838 379.667,284.171 379.5,271.5C 379.174,263.316 379.508,255.316 380.5,247.5 Z"/></g>
<g><path style="opacity:1" fill="#f9faf9" d="M 88.5,282.5 C 89.8333,283.167 89.8333,283.167 88.5,282.5 Z"/></g>
<g><path style="opacity:1" fill="#18782c" d="M 128.5,262.5 C 128.018,265.451 126.352,267.618 123.5,269C 127.38,268.376 131.38,267.876 135.5,267.5C 135.33,268.822 135.663,269.989 136.5,271C 138.421,271.36 140.088,272.194 141.5,273.5C 142.768,272.572 144.101,272.405 145.5,273C 147.833,275 150.167,277 152.5,279C 151.689,281.62 150.356,283.953 148.5,286C 149.076,287.714 150.243,288.881 152,289.5C 153.686,286.912 153.853,284.245 152.5,281.5C 153.325,280.614 154.325,280.281 155.5,280.5C 154.086,284.208 154.253,287.875 156,291.5C 158.783,293.379 161.283,293.379 163.5,291.5C 164.737,291.556 165.737,292.056 166.5,293C 165.712,296.076 165.212,299.242 165,302.5C 164.578,300.574 163.411,299.574 161.5,299.5C 159.274,298.244 156.941,298.244 154.5,299.5C 154.565,299.062 154.399,298.728 154,298.5C 153.075,299.047 152.242,299.713 151.5,300.5C 153.041,305.535 154.708,310.535 156.5,315.5C 154.939,316.347 153.439,316.014 152,314.5C 151.535,315.931 150.701,317.097 149.5,318C 150.571,318.852 151.571,319.685 152.5,320.5C 150.74,323.69 148.407,324.19 145.5,322C 146.24,318.354 147.907,315.187 150.5,312.5C 149.499,309.828 148.499,307.161 147.5,304.5C 146.549,303.674 145.549,303.508 144.5,304C 145.167,305.333 146.167,306.333 147.5,307C 146.134,308.6 145.134,310.433 144.5,312.5C 143.264,311.754 141.93,311.421 140.5,311.5C 140.703,309.61 140.037,308.11 138.5,307C 134.186,305.415 129.853,305.082 125.5,306C 124.833,305.333 124.167,304.667 123.5,304C 124.55,301.497 123.55,299.997 120.5,299.5C 118.865,300.33 117.198,300.497 115.5,300C 114.663,301.011 114.33,302.178 114.5,303.5C 113.022,303.762 111.689,303.429 110.5,302.5C 109.95,300.343 109.283,298.343 108.5,296.5C 108.334,289.492 108.5,282.492 109,275.5C 109.309,274.234 109.809,273.067 110.5,272C 112.713,270.384 115.047,269.217 117.5,268.5C 121.969,267.769 125.636,265.769 128.5,262.5 Z"/></g>
<g><path style="opacity:1" fill="#3f763f" d="M 335.5,293.5 C 335.423,294.75 334.756,295.583 333.5,296C 280.5,296.333 227.5,296.667 174.5,297C 173.272,298.49 173.272,299.99 174.5,301.5C 173.833,301.5 173.5,301.833 173.5,302.5C 170.567,299.158 170.901,296.158 174.5,293.5C 194.12,294.488 213.787,294.821 233.5,294.5C 242.5,294.5 251.5,294.5 260.5,294.5C 284.502,294.667 308.502,294.5 332.5,294C 333.352,292.272 334.352,292.105 335.5,293.5 Z"/></g>
<g><path style="opacity:1" fill="#f9faf9" d="M 30.5,296.5 C 31.8333,297.167 31.8333,297.167 30.5,296.5 Z"/></g>
<g><path style="opacity:1" fill="#13702c" d="M 108.5,296.5 C 109.283,298.343 109.95,300.343 110.5,302.5C 111.689,303.429 113.022,303.762 114.5,303.5C 114.33,302.178 114.663,301.011 115.5,300C 117.198,300.497 118.865,300.33 120.5,299.5C 123.55,299.997 124.55,301.497 123.5,304C 124.167,304.667 124.833,305.333 125.5,306C 129.853,305.082 134.186,305.415 138.5,307C 140.037,308.11 140.703,309.61 140.5,311.5C 141.93,311.421 143.264,311.754 144.5,312.5C 145.134,310.433 146.134,308.6 147.5,307C 146.167,306.333 145.167,305.333 144.5,304C 145.549,303.508 146.549,303.674 147.5,304.5C 148.499,307.161 149.499,309.828 150.5,312.5C 147.907,315.187 146.24,318.354 145.5,322C 148.407,324.19 150.74,323.69 152.5,320.5C 153.315,319.571 154.148,318.571 155,317.5C 158.412,317.973 161.578,318.973 164.5,320.5C 164.833,321.167 165.167,321.833 165.5,322.5C 163.833,321.833 162.167,321.167 160.5,320.5C 158.636,319.207 156.636,319.207 154.5,320.5C 153.687,321.814 152.687,322.981 151.5,324C 141.167,324.667 130.833,324.667 120.5,324C 109.987,317.902 105.987,308.735 108.5,296.5 Z"/></g>
<g><path style="opacity:1" fill="#528554" d="M 174.5,301.5 C 229.167,301.5 283.833,301.5 338.5,301.5C 339.492,301.328 340.158,301.662 340.5,302.5C 339.833,302.5 339.5,302.833 339.5,303.5C 313.833,303.5 288.167,303.5 262.5,303.5C 232.662,303.831 202.995,303.498 173.5,302.5C 173.5,301.833 173.833,301.5 174.5,301.5 Z"/></g>
<g><path style="opacity:1" fill="#217d31" d="M 262.5,303.5 C 288.167,303.5 313.833,303.5 339.5,303.5C 322.338,304.332 305.005,304.832 287.5,305C 290.075,307.31 292.909,308.143 296,307.5C 303.598,310.015 311.431,311.515 319.5,312C 325.35,316.039 331.516,318.539 338,319.5C 338.374,320.416 338.874,321.25 339.5,322C 344.625,322.925 349.625,323.759 354.5,324.5C 334.167,324.5 313.833,324.5 293.5,324.5C 290.695,323.681 287.695,323.181 284.5,323C 283.663,321.989 283.33,320.822 283.5,319.5C 279.466,319.505 275.466,319.838 271.5,320.5C 269.111,319.946 267.445,318.446 266.5,316C 261.116,315.495 255.782,315.495 250.5,316C 249.62,314.644 249.286,313.144 249.5,311.5C 246.834,311.067 244.168,310.567 241.5,310C 243.946,308.517 243.612,307.351 240.5,306.5C 236.712,307.031 233.045,308.031 229.5,309.5C 227.896,309.061 226.396,308.394 225,307.5C 221.769,309.09 219.269,308.257 217.5,305C 232.672,304.831 247.672,304.331 262.5,303.5 Z"/></g>
<g><path style="opacity:1" fill="#2d8432" d="M 345.5,298.5 C 346.791,299.542 346.791,300.708 345.5,302C 347.131,303.836 347.798,303.336 347.5,300.5C 352.093,300.61 356.426,301.61 360.5,303.5C 361.167,302.5 361.833,301.5 362.5,300.5C 367.209,300.599 370.043,302.933 371,307.5C 373.486,304.462 375.319,301.462 376.5,298.5C 377.965,303.235 376.632,307.068 372.5,310C 373.337,311.011 373.67,312.178 373.5,313.5C 374.959,313.567 376.292,313.234 377.5,312.5C 377.123,314.258 376.456,315.925 375.5,317.5C 373.431,320.573 370.764,322.906 367.5,324.5C 363.167,324.5 358.833,324.5 354.5,324.5C 349.625,323.759 344.625,322.925 339.5,322C 338.874,321.25 338.374,320.416 338,319.5C 331.516,318.539 325.35,316.039 319.5,312C 311.431,311.515 303.598,310.015 296,307.5C 292.909,308.143 290.075,307.31 287.5,305C 305.005,304.832 322.338,304.332 339.5,303.5C 339.5,302.833 339.833,302.5 340.5,302.5C 342.167,301.167 343.833,299.833 345.5,298.5 Z"/></g>
<g><path style="opacity:1" fill="#1e7730" d="M 164.5,271.5 C 165.977,274.761 165.311,277.594 162.5,280C 163.444,282.719 163.777,285.552 163.5,288.5C 168.328,288.615 169.661,286.448 167.5,282C 169.628,280.333 170.961,278.166 171.5,275.5C 173.276,276.315 173.943,277.482 173.5,279C 177.575,280.083 181.575,281.416 185.5,283C 183.956,283.29 182.623,283.956 181.5,285C 182.449,285.617 183.282,285.451 184,284.5C 184.617,285.449 184.451,286.282 183.5,287C 186.167,287.333 188.833,287.667 191.5,288C 186.905,289.393 182.239,289.726 177.5,289C 179.595,288.444 179.762,287.944 178,287.5C 176.131,288.369 175.631,289.535 176.5,291C 179.437,291.1 182.104,291.933 184.5,293.5C 186.491,291.389 188.491,290.056 190.5,289.5C 193.634,291.783 196.968,292.116 200.5,290.5C 204.459,291.523 208.792,292.523 213.5,293.5C 220.342,292.523 227.009,292.856 233.5,294.5C 213.787,294.821 194.12,294.488 174.5,293.5C 170.901,296.158 170.567,299.158 173.5,302.5C 202.995,303.498 232.662,303.831 262.5,303.5C 247.672,304.331 232.672,304.831 217.5,305C 219.269,308.257 221.769,309.09 225,307.5C 226.396,308.394 227.896,309.061 229.5,309.5C 233.045,308.031 236.712,307.031 240.5,306.5C 243.612,307.351 243.946,308.517 241.5,310C 244.168,310.567 246.834,311.067 249.5,311.5C 249.286,313.144 249.62,314.644 250.5,316C 255.782,315.495 261.116,315.495 266.5,316C 267.445,318.446 269.111,319.946 271.5,320.5C 259.879,321.163 248.546,321.496 237.5,321.5C 233.21,320.24 229.21,318.573 225.5,316.5C 222.217,317.327 218.884,317.66 215.5,317.5C 215.5,316.5 215.5,315.5 215.5,314.5C 213.658,314.277 211.825,313.943 210,313.5C 208.635,313.844 207.468,314.511 206.5,315.5C 204.271,314.423 201.937,313.756 199.5,313.5C 199.719,312.325 199.386,311.325 198.5,310.5C 198.5,312.691 197.166,314.357 194.5,315.5C 192.474,314.63 191.141,313.13 190.5,311C 189.167,310.667 187.833,310.333 186.5,310C 186.943,308.482 186.276,307.315 184.5,306.5C 182.725,310.266 179.725,312.099 175.5,312C 176.167,312.333 176.833,312.667 177.5,313C 176.062,313.219 174.729,313.719 173.5,314.5C 173.36,316.256 173.86,317.922 175,319.5C 175.494,317.866 175.66,316.199 175.5,314.5C 178.167,314.167 180.833,313.833 183.5,313.5C 183.5,314.833 183.5,316.167 183.5,317.5C 177.019,318.816 177.352,319.649 184.5,320C 179.961,320.253 175.461,320.753 171,321.5C 169.831,320.991 168.998,320.158 168.5,319C 169.264,316.931 169.764,314.764 170,312.5C 171.522,310.978 173.022,309.478 174.5,308C 173.924,306.286 172.757,305.119 171,304.5C 169.689,307.135 168.022,309.469 166,311.5C 165.581,310.328 164.915,309.328 164,308.5C 164.233,311.29 164.733,314.123 165.5,317C 165.352,318.256 165.018,319.423 164.5,320.5C 161.578,318.973 158.412,317.973 155,317.5C 154.148,318.571 153.315,319.571 152.5,320.5C 151.571,319.685 150.571,318.852 149.5,318C 150.701,317.097 151.535,315.931 152,314.5C 153.439,316.014 154.939,316.347 156.5,315.5C 154.708,310.535 153.041,305.535 151.5,300.5C 152.242,299.713 153.075,299.047 154,298.5C 154.399,298.728 154.565,299.062 154.5,299.5C 153.982,304.771 155.315,309.438 158.5,313.5C 160.002,312.917 161.335,312.084 162.5,311C 162.167,310.667 161.833,310.333 161.5,310C 164.122,306.464 164.122,302.964 161.5,299.5C 163.411,299.574 164.578,300.574 165,302.5C 165.212,299.242 165.712,296.076 166.5,293C 165.737,292.056 164.737,291.556 163.5,291.5C 161.283,293.379 158.783,293.379 156,291.5C 154.253,287.875 154.086,284.208 155.5,280.5C 157.025,278.964 159.025,277.964 161.5,277.5C 162.309,275.929 162.643,274.262 162.5,272.5C 160.208,272.244 158.041,272.577 156,273.5C 154.543,269.259 154.209,264.926 155,260.5C 155.519,259.484 156.353,258.818 157.5,258.5C 159.709,259.917 162.043,261.084 164.5,262C 163.182,265.269 163.182,268.435 164.5,271.5 Z M 157.5,281.5 C 158.765,282.514 159.431,284.014 159.5,286C 159.167,287.5 158.833,289 158.5,290.5C 157.516,287.572 157.183,284.572 157.5,281.5 Z M 159.5,271.5 C 158.833,271.5 158.167,271.5 157.5,271.5C 158.167,259.5 158.833,259.5 159.5,271.5 Z M 159.5,309.5 C 158.833,309.5 158.167,309.5 157.5,309.5C 158.167,297.5 158.833,297.5 159.5,309.5 Z"/></g>
<g><path style="opacity:1" fill="#99bc99" d="M 159.5,271.5 C 158.833,259.5 158.167,259.5 157.5,271.5C 156.521,268.375 156.187,265.042 156.5,261.5C 157.833,261.5 159.167,261.5 160.5,261.5C 160.813,265.042 160.479,268.375 159.5,271.5 Z M 159.5,271.5 C 158.833,271.5 158.167,271.5 157.5,271.5C 158.167,259.5 158.833,259.5 159.5,271.5 Z"/></g>
<g><path style="opacity:1" fill="#14752b" d="M 271.5,320.5 C 275.466,319.838 279.466,319.505 283.5,319.5C 283.33,320.822 283.663,321.989 284.5,323C 287.695,323.181 290.695,323.681 293.5,324.5C 251.582,324.308 209.582,324.308 167.5,324.5C 166.5,324.167 165.833,323.5 165.5,322.5C 165.167,321.833 164.833,321.167 164.5,320.5C 165.018,319.423 165.352,318.256 165.5,317C 164.733,314.123 164.233,311.29 164,308.5C 164.915,309.328 165.581,310.328 166,311.5C 168.022,309.469 169.689,307.135 171,304.5C 172.757,305.119 173.924,306.286 174.5,308C 173.022,309.478 171.522,310.978 170,312.5C 169.764,314.764 169.264,316.931 168.5,319C 168.998,320.158 169.831,320.991 171,321.5C 175.461,320.753 179.961,320.253 184.5,320C 177.352,319.649 177.019,318.816 183.5,317.5C 183.5,316.167 183.5,314.833 183.5,313.5C 180.833,313.833 178.167,314.167 175.5,314.5C 175.66,316.199 175.494,317.866 175,319.5C 173.86,317.922 173.36,316.256 173.5,314.5C 174.729,313.719 176.062,313.219 177.5,313C 176.833,312.667 176.167,312.333 175.5,312C 179.725,312.099 182.725,310.266 184.5,306.5C 186.276,307.315 186.943,308.482 186.5,310C 187.833,310.333 189.167,310.667 190.5,311C 191.141,313.13 192.474,314.63 194.5,315.5C 197.166,314.357 198.5,312.691 198.5,310.5C 199.386,311.325 199.719,312.325 199.5,313.5C 201.937,313.756 204.271,314.423 206.5,315.5C 207.468,314.511 208.635,313.844 210,313.5C 211.825,313.943 213.658,314.277 215.5,314.5C 215.5,315.5 215.5,316.5 215.5,317.5C 218.884,317.66 222.217,317.327 225.5,316.5C 229.21,318.573 233.21,320.24 237.5,321.5C 248.546,321.496 259.879,321.163 271.5,320.5 Z"/></g>
<g><path style="opacity:1" fill="#f9faf9" d="M 482.5,308.5 C 483.833,309.167 483.833,309.167 482.5,308.5 Z"/></g>
<g><path style="opacity:1" fill="#1f6932" d="M 161.5,299.5 C 164.122,302.964 164.122,306.464 161.5,310C 161.833,310.333 162.167,310.667 162.5,311C 161.335,312.084 160.002,312.917 158.5,313.5C 155.315,309.438 153.982,304.771 154.5,299.5C 156.941,298.244 159.274,298.244 161.5,299.5 Z M 159.5,309.5 C 158.833,309.5 158.167,309.5 157.5,309.5C 158.167,297.5 158.833,297.5 159.5,309.5 Z"/></g>
<g><path style="opacity:1" fill="#93b89b" d="M 159.5,309.5 C 158.833,297.5 158.167,297.5 157.5,309.5C 156.521,306.375 156.187,303.042 156.5,299.5C 157.833,299.5 159.167,299.5 160.5,299.5C 160.813,303.042 160.479,306.375 159.5,309.5 Z M 159.5,309.5 C 158.833,309.5 158.167,309.5 157.5,309.5C 158.167,297.5 158.833,297.5 159.5,309.5 Z"/></g>
<g><path style="opacity:1" fill="#f9faf9" d="M 45.5,319.5 C 46.8333,320.167 46.8333,320.167 45.5,319.5 Z"/></g>
<g><path style="opacity:1" fill="#41764d" d="M 111.5,268.5 C 113.5,268.5 115.5,268.5 117.5,268.5C 115.047,269.217 112.713,270.384 110.5,272C 109.809,273.067 109.309,274.234 109,275.5C 108.5,282.492 108.334,289.492 108.5,296.5C 105.987,308.735 109.987,317.902 120.5,324C 130.833,324.667 141.167,324.667 151.5,324C 152.687,322.981 153.687,321.814 154.5,320.5C 156.636,319.207 158.636,319.207 160.5,320.5C 159.127,320.343 157.793,320.51 156.5,321C 155.415,323.172 154.081,325.172 152.5,327C 143.5,327.667 134.5,327.667 125.5,327C 115.537,325.701 109.37,320.201 107,310.5C 106.333,298.167 106.333,285.833 107,273.5C 107.312,270.691 108.812,269.024 111.5,268.5 Z"/></g>
<g><path style="opacity:1" fill="#227034" d="M 293.5,324.5 C 313.833,324.5 334.167,324.5 354.5,324.5C 358.833,324.5 363.167,324.5 367.5,324.5C 367.5,324.833 367.5,325.167 367.5,325.5C 367.167,325.5 366.833,325.5 366.5,325.5C 299.998,325.832 233.665,325.499 167.5,324.5C 209.582,324.308 251.582,324.308 293.5,324.5 Z"/></g>
<g><path style="opacity:1" fill="#467252" d="M 160.5,320.5 C 162.167,321.167 163.833,321.833 165.5,322.5C 165.833,323.5 166.5,324.167 167.5,324.5C 233.665,325.499 299.998,325.832 366.5,325.5C 364.369,326.314 362.036,326.814 359.5,327C 295.167,327.667 230.833,327.667 166.5,327C 163.651,325.65 161.651,323.483 160.5,320.5 Z"/></g>
<g><path style="opacity:1" fill="#f9faf9" d="M 371.5,325.5 C 372.833,326.167 372.833,326.167 371.5,325.5 Z"/></g>
<g><path style="opacity:1" fill="#f9faf9" d="M 6.5,327.5 C 7.83333,328.167 7.83333,328.167 6.5,327.5 Z"/></g>
<g><path style="opacity:1" fill="#f9faf9" d="M 279.5,331.5 C 280.833,332.167 280.833,332.167 279.5,331.5 Z"/></g>
<g><path style="opacity:1" fill="#f9faf9" d="M 17.5,333.5 C 18.8333,334.167 18.8333,334.167 17.5,333.5 Z"/></g>
<g><path style="opacity:1" fill="#f9faf9" d="M 80.5,338.5 C 81.8333,339.167 81.8333,339.167 80.5,338.5 Z"/></g>
<g><path style="opacity:1" fill="#f9faf9" d="M 71.5,343.5 C 72.8333,344.167 72.8333,344.167 71.5,343.5 Z"/></g>
<g><path style="opacity:1" fill="#f9faf9" d="M 307.5,343.5 C 308.833,344.167 308.833,344.167 307.5,343.5 Z"/></g>
<g><path style="opacity:1" fill="#f9faf9" d="M 468.5,343.5 C 469.833,344.167 469.833,344.167 468.5,343.5 Z"/></g>
<g><path style="opacity:1" fill="#f9faf9" d="M 470.5,345.5 C 471.833,346.167 471.833,346.167 470.5,345.5 Z"/></g>
<g><path style="opacity:1" fill="#f9faf9" d="M 254.5,351.5 C 255.833,352.167 255.833,352.167 254.5,351.5 Z"/></g>
<g><path style="opacity:1" fill="#f9faf9" d="M 436.5,351.5 C 437.833,352.167 437.833,352.167 436.5,351.5 Z"/></g>
<g><path style="opacity:1" fill="#f9faf9" d="M 441.5,356.5 C 442.833,357.167 442.833,357.167 441.5,356.5 Z"/></g>
<g><path style="opacity:1" fill="#f9faf9" d="M 293.5,361.5 C 294.833,362.167 294.833,362.167 293.5,361.5 Z"/></g>
<g><path style="opacity:1" fill="#f9faf9" d="M 220.5,369.5 C 221.833,370.167 221.833,370.167 220.5,369.5 Z"/></g>
<g><path style="opacity:1" fill="#f9faf9" d="M 268.5,369.5 C 269.833,370.167 269.833,370.167 268.5,369.5 Z"/></g>
<g><path style="opacity:1" fill="#f9faf9" d="M 61.5,373.5 C 62.8333,374.167 62.8333,374.167 61.5,373.5 Z"/></g>
<g><path style="opacity:1" fill="#f9faf9" d="M 366.5,373.5 C 367.833,374.167 367.833,374.167 366.5,373.5 Z"/></g>
<g><path style="opacity:1" fill="#f9faf9" d="M 423.5,379.5 C 424.833,380.167 424.833,380.167 423.5,379.5 Z"/></g>
<g><path style="opacity:1" fill="#f9faf9" d="M 260.5,400.5 C 261.833,401.167 261.833,401.167 260.5,400.5 Z"/></g>
<g><path style="opacity:1" fill="#f9faf9" d="M 330.5,401.5 C 331.833,402.167 331.833,402.167 330.5,401.5 Z"/></g>
<g><path style="opacity:1" fill="#f9faf9" d="M 22.5,409.5 C 23.8333,410.167 23.8333,410.167 22.5,409.5 Z"/></g>
<g><path style="opacity:1" fill="#f9faf9" d="M 346.5,412.5 C 347.833,413.167 347.833,413.167 346.5,412.5 Z"/></g>
<g><path style="opacity:1" fill="#f9faf9" d="M 111.5,413.5 C 112.833,414.167 112.833,414.167 111.5,413.5 Z"/></g>
<g><path style="opacity:1" fill="#f9faf9" d="M 429.5,420.5 C 430.833,421.167 430.833,421.167 429.5,420.5 Z"/></g>
<g><path style="opacity:1" fill="#f9faf9" d="M 79.5,421.5 C 80.8333,422.167 80.8333,422.167 79.5,421.5 Z"/></g>
<g><path style="opacity:1" fill="#f9faf9" d="M 483.5,433.5 C 484.833,434.167 484.833,434.167 483.5,433.5 Z"/></g>
<g><path style="opacity:1" fill="#f9faf9" d="M 223.5,444.5 C 224.833,445.167 224.833,445.167 223.5,444.5 Z"/></g>
<g><path style="opacity:1" fill="#f9faf9" d="M 335.5,448.5 C 336.833,449.167 336.833,449.167 335.5,448.5 Z"/></g>
<g><path style="opacity:1" fill="#f9faf9" d="M 72.5,449.5 C 73.8333,450.167 73.8333,450.167 72.5,449.5 Z"/></g>
<g><path style="opacity:1" fill="#f9faf9" d="M 27.5,450.5 C 28.8333,451.167 28.8333,451.167 27.5,450.5 Z"/></g>
<g><path style="opacity:1" fill="#f9faf9" d="M 55.5,456.5 C 56.8333,457.167 56.8333,457.167 55.5,456.5 Z"/></g>
<g><path style="opacity:1" fill="#f9faf9" d="M 128.5,456.5 C 129.833,457.167 129.833,457.167 128.5,456.5 Z"/></g>
<g><path style="opacity:1" fill="#f9faf9" d="M 90.5,458.5 C 91.8333,459.167 91.8333,459.167 90.5,458.5 Z"/></g>
<g><path style="opacity:1" fill="#f9faf9" d="M 9.5,459.5 C 10.8333,460.167 10.8333,460.167 9.5,459.5 Z"/></g>
<g><path style="opacity:1" fill="#f9faf9" d="M 62.5,462.5 C 63.8333,463.167 63.8333,463.167 62.5,462.5 Z"/></g>
<g><path style="opacity:1" fill="#f9faf9" d="M 208.5,464.5 C 209.833,465.167 209.833,465.167 208.5,464.5 Z"/></g>
<g><path style="opacity:1" fill="#f9faf9" d="M 97.5,470.5 C 98.8333,471.167 98.8333,471.167 97.5,470.5 Z"/></g>
<g><path style="opacity:1" fill="#f9faf9" d="M 289.5,475.5 C 290.833,476.167 290.833,476.167 289.5,475.5 Z"/></g>
<g><path style="opacity:1" fill="#f9faf9" d="M 136.5,476.5 C 137.833,477.167 137.833,477.167 136.5,476.5 Z"/></g>
<g><path style="opacity:1" fill="#f9faf9" d="M 422.5,477.5 C 423.833,478.167 423.833,478.167 422.5,477.5 Z"/></g>
<g><path style="opacity:1" fill="#f9faf9" d="M 173.5,487.5 C 174.833,488.167 174.833,488.167 173.5,487.5 Z"/></g>
<g><path style="opacity:1" fill="#f9faf9" d="M 46.5,499.5 C 45.8333,498.167 45.8333,498.167 46.5,499.5 Z"/></g>
</svg>
