<?xml version="1.0" encoding="UTF-8"?>
<!DOCTYPE svg PUBLIC "-//W3C//DTD SVG 1.1//EN" "http://www.w3.org/Graphics/SVG/1.1/DTD/svg11.dtd">
<svg xmlns="http://www.w3.org/2000/svg" version="1.1" width="500px" height="500px" style="shape-rendering:geometricPrecision; text-rendering:geometricPrecision; image-rendering:optimizeQuality; fill-rule:evenodd; clip-rule:evenodd" xmlns:xlink="http://www.w3.org/1999/xlink">
<g><path style="opacity:1" fill="#f9faf9" d="M 247.5,6.5 C 248.833,7.16667 248.833,7.16667 247.5,6.5 Z"/></g>
<g><path style="opacity:1" fill="#f9faf9" d="M 65.5,8.5 C 66.8333,9.16667 66.8333,9.16667 65.5,8.5 Z"/></g>
<g><path style="opacity:1" fill="#f9faf9" d="M 178.5,20.5 C 179.833,21.1667 179.833,21.1667 178.5,20.5 Z"/></g>
<g><path style="opacity:1" fill="#f9faf9" d="M 378.5,37.5 C 379.833,38.1667 379.833,38.1667 378.5,37.5 Z"/></g>
<g><path style="opacity:1" fill="#f9faf9" d="M 268.5,40.5 C 269.833,41.1667 269.833,41.1667 268.5,40.5 Z"/></g>
<g><path style="opacity:1" fill="#f9faf9" d="M 448.5,52.5 C 449.833,53.1667 449.833,53.1667 448.5,52.5 Z"/></g>
<g><path style="opacity:1" fill="#f9faf9" d="M 370.5,67.5 C 371.833,68.1667 371.833,68.1667 370.5,67.5 Z"/></g>
<g><path style="opacity:1" fill="#f9faf9" d="M 115.5,71.5 C 116.833,72.1667 116.833,72.1667 115.5,71.5 Z"/></g>
<g><path style="opacity:1" fill="#f9faf9" d="M 2.5,72.5 C 3.83333,73.1667 3.83333,73.1667 2.5,72.5 Z"/></g>
<g><path style="opacity:1" fill="#f9faf9" d="M 198.5,72.5 C 199.833,73.1667 199.833,73.1667 198.5,72.5 Z"/></g>
<g><path style="opacity:1" fill="#f9faf9" d="M 341.5,75.5 C 342.833,76.1667 342.833,76.1667 341.5,75.5 Z"/></g>
<g><path style="opacity:1" fill="#f9faf9" d="M 427.5,76.5 C 428.833,77.1667 428.833,77.1667 427.5,76.5 Z"/></g>
<g><path style="opacity:1" fill="#f9faf9" d="M 281.5,77.5 C 282.833,78.1667 282.833,78.1667 281.5,77.5 Z"/></g>
<g><path style="opacity:1" fill="#f9faf9" d="M 258.5,81.5 C 259.833,82.1667 259.833,82.1667 258.5,81.5 Z"/></g>
<g><path style="opacity:1" fill="#f9faf9" d="M 156.5,87.5 C 157.833,88.1667 157.833,88.1667 156.5,87.5 Z"/></g>
<g><path style="opacity:1" fill="#f9faf9" d="M 367.5,89.5 C 368.833,90.1667 368.833,90.1667 367.5,89.5 Z"/></g>
<g><path style="opacity:1" fill="#f9faf9" d="M 385.5,94.5 C 386.833,95.1667 386.833,95.1667 385.5,94.5 Z"/></g>
<g><path style="opacity:1" fill="#f9faf9" d="M 321.5,95.5 C 322.833,96.1667 322.833,96.1667 321.5,95.5 Z"/></g>
<g><path style="opacity:1" fill="#f9faf9" d="M 150.5,97.5 C 151.833,98.1667 151.833,98.1667 150.5,97.5 Z"/></g>
<g><path style="opacity:1" fill="#f9faf9" d="M 203.5,98.5 C 204.833,99.1667 204.833,99.1667 203.5,98.5 Z"/></g>
<g><path style="opacity:1" fill="#f9faf9" d="M 387.5,111.5 C 388.833,112.167 388.833,112.167 387.5,111.5 Z"/></g>
<g><path style="opacity:1" fill="#f9faf9" d="M 314.5,120.5 C 315.833,121.167 315.833,121.167 314.5,120.5 Z"/></g>
<g><path style="opacity:1" fill="#f9faf9" d="M 358.5,121.5 C 359.833,122.167 359.833,122.167 358.5,121.5 Z"/></g>
<g><path style="opacity:1" fill="#f9faf9" d="M 241.5,136.5 C 242.833,137.167 242.833,137.167 241.5,136.5 Z"/></g>
<g><path style="opacity:1" fill="#f9faf9" d="M 32.5,143.5 C 33.8333,144.167 33.8333,144.167 32.5,143.5 Z"/></g>
<g><path style="opacity:1" fill="#f9faf9" d="M 125.5,144.5 C 126.833,145.167 126.833,145.167 125.5,144.5 Z"/></g>
<g><path style="opacity:1" fill="#f9faf9" d="M 5.5,145.5 C 6.83333,146.167 6.83333,146.167 5.5,145.5 Z"/></g>
<g><path style="opacity:1" fill="#f9faf9" d="M 424.5,145.5 C 425.833,146.167 425.833,146.167 424.5,145.5 Z"/></g>
<g><path style="opacity:1" fill="#f9faf9" d="M 253.5,148.5 C 254.833,149.167 254.833,149.167 253.5,148.5 Z"/></g>
<g><path style="opacity:1" fill="#f9faf9" d="M 355.5,154.5 C 356.833,155.167 356.833,155.167 355.5,154.5 Z"/></g>
<g><path style="opacity:1" fill="#a8c475" d="M 271.5,157.5 C 258.189,156.618 244.856,156.285 231.5,156.5C 243.653,154.048 255.986,153.881 268.5,156C 269.737,156.232 270.737,156.732 271.5,157.5 Z"/></g>
<g><path style="opacity:1" fill="#89c036" d="M 280.5,167.5 C 278.712,167.215 277.045,167.548 275.5,168.5C 274.002,170.854 272.668,173.187 271.5,175.5C 270.406,174.418 269.073,173.752 267.5,173.5C 264.198,173.43 260.865,173.764 257.5,174.5C 257.843,176.483 257.176,177.817 255.5,178.5C 255.167,178.5 254.833,178.5 254.5,178.5C 253.063,177.275 251.396,176.275 249.5,175.5C 247.93,175.694 246.43,175.694 245,175.5C 244.343,169.359 240.843,166.526 234.5,167C 233.78,164.878 232.613,164.378 231,165.5C 230.052,163.43 228.552,161.93 226.5,161C 227.416,160.722 228.082,160.222 228.5,159.5C 232.544,159.156 236.544,158.49 240.5,157.5C 242.593,157.486 244.426,158.152 246,159.5C 246.333,159.167 246.667,158.833 247,158.5C 247.879,160.979 249.379,162.979 251.5,164.5C 254.92,162.998 255.254,160.998 252.5,158.5C 262.798,157.005 272.464,158.672 281.5,163.5C 281.833,163.833 282.167,164.167 282.5,164.5C 281.807,165.518 281.141,166.518 280.5,167.5 Z"/></g>
<g><path style="opacity:1" fill="#f9faf9" d="M 452.5,158.5 C 453.833,159.167 453.833,159.167 452.5,158.5 Z"/></g>
<g><path style="opacity:1" fill="#81b934" d="M 228.5,159.5 C 228.082,160.222 227.416,160.722 226.5,161C 228.552,161.93 230.052,163.43 231,165.5C 232.613,164.378 233.78,164.878 234.5,167C 240.843,166.526 244.343,169.359 245,175.5C 246.43,175.694 247.93,175.694 249.5,175.5C 251.396,176.275 253.063,177.275 254.5,178.5C 249.567,178.93 244.734,178.93 240,178.5C 238.667,183.833 237.333,183.833 236,178.5C 235.952,181.329 234.952,183.663 233,185.5C 232.257,187.441 232.424,189.274 233.5,191C 231.627,191.953 231.294,193.12 232.5,194.5C 228.246,193.415 225.413,190.748 224,186.5C 223.581,187.672 222.915,188.672 222,189.5C 222.148,188.175 221.982,187.008 221.5,186C 214.473,184.828 207.473,183.161 200.5,181C 199.339,179.172 197.839,177.672 196,176.5C 193.922,177.943 193.089,177.276 193.5,174.5C 199.902,170.909 205.902,166.909 211.5,162.5C 217.054,161.039 222.721,160.039 228.5,159.5 Z"/></g>
<g><path style="opacity:1" fill="#96ba5c" d="M 211.5,162.5 C 205.902,166.909 199.902,170.909 193.5,174.5C 190.591,175.424 187.924,176.757 185.5,178.5C 192.886,171.138 201.552,165.804 211.5,162.5 Z"/></g>
<g><path style="opacity:1" fill="#94c048" d="M 231.5,156.5 C 244.856,156.285 258.189,156.618 271.5,157.5C 287.726,160.279 301.726,167.279 313.5,178.5C 310.978,176.828 308.312,175.328 305.5,174C 300.948,173.931 296.782,172.764 293,170.5C 291.817,171.731 290.651,171.731 289.5,170.5C 290.981,169.52 292.315,168.353 293.5,167C 290.647,166.336 287.981,166.836 285.5,168.5C 283.865,167.954 282.199,167.62 280.5,167.5C 281.141,166.518 281.807,165.518 282.5,164.5C 282.167,164.167 281.833,163.833 281.5,163.5C 272.464,158.672 262.798,157.005 252.5,158.5C 255.254,160.998 254.92,162.998 251.5,164.5C 249.379,162.979 247.879,160.979 247,158.5C 246.667,158.833 246.333,159.167 246,159.5C 244.426,158.152 242.593,157.486 240.5,157.5C 236.544,158.49 232.544,159.156 228.5,159.5C 222.721,160.039 217.054,161.039 211.5,162.5C 217.767,159.525 224.433,157.525 231.5,156.5 Z"/></g>
<g><path style="opacity:1" fill="#f9faf9" d="M 368.5,170.5 C 369.833,171.167 369.833,171.167 368.5,170.5 Z"/></g>
<g><path style="opacity:1" fill="#89c035" d="M 313.5,178.5 C 313.833,178.5 314.167,178.5 314.5,178.5C 313.756,181.95 315.09,183.616 318.5,183.5C 318.5,184.833 318.5,186.167 318.5,187.5C 315.964,188.349 313.464,189.349 311,190.5C 310.667,190.167 310.333,189.833 310,189.5C 309.692,190.308 309.192,190.975 308.5,191.5C 308.167,189.5 307.833,187.5 307.5,185.5C 305.812,185.458 304.146,185.458 302.5,185.5C 297.662,185.579 292.996,184.745 288.5,183C 282.964,180.424 277.297,177.924 271.5,175.5C 272.668,173.187 274.002,170.854 275.5,168.5C 277.045,167.548 278.712,167.215 280.5,167.5C 282.199,167.62 283.865,167.954 285.5,168.5C 287.981,166.836 290.647,166.336 293.5,167C 292.315,168.353 290.981,169.52 289.5,170.5C 290.651,171.731 291.817,171.731 293,170.5C 296.782,172.764 300.948,173.931 305.5,174C 308.312,175.328 310.978,176.828 313.5,178.5 Z"/></g>
<g><path style="opacity:1" fill="#83bb33" d="M 271.5,175.5 C 277.297,177.924 282.964,180.424 288.5,183C 292.996,184.745 297.662,185.579 302.5,185.5C 303.388,188.054 303.721,190.721 303.5,193.5C 296.7,193.646 290.033,193.146 283.5,192C 284.328,192.915 285.328,193.581 286.5,194C 292.442,194.917 298.109,196.584 303.5,199C 298.726,199.654 294.06,199.154 289.5,197.5C 288.446,197.68 287.446,198.013 286.5,198.5C 281.968,195.399 276.968,193.733 271.5,193.5C 271.649,194.552 271.483,195.552 271,196.5C 270.487,193.973 269.32,191.807 267.5,190C 268.27,188.225 269.437,186.725 271,185.5C 271.667,184.5 271.667,183.5 271,182.5C 268.957,183.579 267.624,185.246 267,187.5C 265.806,185.377 265.14,183.043 265,180.5C 264.292,181.381 263.458,182.047 262.5,182.5C 259.939,181.455 257.606,180.122 255.5,178.5C 257.176,177.817 257.843,176.483 257.5,174.5C 260.865,173.764 264.198,173.43 267.5,173.5C 269.073,173.752 270.406,174.418 271.5,175.5 Z"/></g>
<g><path style="opacity:1" fill="#89b64e" d="M 254.5,178.5 C 254.833,178.5 255.167,178.5 255.5,178.5C 257.606,180.122 259.939,181.455 262.5,182.5C 264.877,185.721 265.877,189.388 265.5,193.5C 262.653,182.732 255.653,178.565 244.5,181C 237.976,184.547 234.976,190.047 235.5,197.5C 233.5,197.5 232.5,196.5 232.5,194.5C 231.294,193.12 231.627,191.953 233.5,191C 232.424,189.274 232.257,187.441 233,185.5C 234.952,183.663 235.952,181.329 236,178.5C 237.333,183.833 238.667,183.833 240,178.5C 244.734,178.93 249.567,178.93 254.5,178.5 Z"/></g>
<g><path style="opacity:1" fill="#71b032" d="M 193.5,174.5 C 193.089,177.276 193.922,177.943 196,176.5C 197.839,177.672 199.339,179.172 200.5,181C 207.473,183.161 214.473,184.828 221.5,186C 221.982,187.008 222.148,188.175 222,189.5C 222.915,188.672 223.581,187.672 224,186.5C 225.413,190.748 228.246,193.415 232.5,194.5C 232.5,196.5 233.5,197.5 235.5,197.5C 235.39,200.059 236.056,202.392 237.5,204.5C 241.485,207.077 244.818,210.244 247.5,214C 245.919,214.707 244.419,215.54 243,216.5C 241.68,214.417 240.346,214.751 239,217.5C 233.595,216.839 228.261,215.172 223,212.5C 220.369,214.068 218.203,213.568 216.5,211C 212.339,209.263 208.005,208.263 203.5,208C 201.635,205.635 199.968,205.468 198.5,207.5C 194.618,204.718 190.618,202.218 186.5,200C 184.1,199.814 181.766,199.314 179.5,198.5C 180.416,196.216 179.416,195.049 176.5,195C 179.544,194.641 179.878,193.974 177.5,193C 179.941,189.092 182.275,185.258 184.5,181.5C 184.557,180.391 184.89,179.391 185.5,178.5C 187.924,176.757 190.591,175.424 193.5,174.5 Z"/></g>
<g><path style="opacity:1" fill="#f9faf9" d="M 117.5,187.5 C 118.833,188.167 118.833,188.167 117.5,187.5 Z"/></g>
<g><path style="opacity:1" fill="#f9faf9" d="M 381.5,192.5 C 382.833,193.167 382.833,193.167 381.5,192.5 Z"/></g>
<g><path style="opacity:1" fill="#7eb736" d="M 314.5,178.5 C 321.305,183.388 323.471,190.054 321,198.5C 320.536,203.054 319.369,207.387 317.5,211.5C 314.157,213.497 312.49,216.497 312.5,220.5C 310.146,220.162 307.813,219.662 305.5,219C 306.604,217.869 306.271,217.035 304.5,216.5C 303.351,219.429 301.685,219.929 299.5,218C 299.957,217.586 300.291,217.086 300.5,216.5C 296.878,215.675 293.211,215.175 289.5,215C 288.141,213.796 287.141,212.296 286.5,210.5C 284.474,211.37 283.141,212.87 282.5,215C 281.552,215.483 280.552,215.649 279.5,215.5C 278.691,213.027 278.358,210.694 278.5,208.5C 276.117,207.095 273.95,207.429 272,209.5C 270.662,208.494 269.329,207.494 268,206.5C 267.383,205.551 267.549,204.718 268.5,204C 267.552,203.517 266.552,203.351 265.5,203.5C 266.258,200.648 266.258,197.981 265.5,195.5C 265.5,194.833 265.5,194.167 265.5,193.5C 265.877,189.388 264.877,185.721 262.5,182.5C 263.458,182.047 264.292,181.381 265,180.5C 265.14,183.043 265.806,185.377 267,187.5C 267.624,185.246 268.957,183.579 271,182.5C 271.667,183.5 271.667,184.5 271,185.5C 269.437,186.725 268.27,188.225 267.5,190C 269.32,191.807 270.487,193.973 271,196.5C 271.483,195.552 271.649,194.552 271.5,193.5C 276.968,193.733 281.968,195.399 286.5,198.5C 287.446,198.013 288.446,197.68 289.5,197.5C 294.06,199.154 298.726,199.654 303.5,199C 298.109,196.584 292.442,194.917 286.5,194C 285.328,193.581 284.328,192.915 283.5,192C 290.033,193.146 296.7,193.646 303.5,193.5C 303.721,190.721 303.388,188.054 302.5,185.5C 304.146,185.458 305.812,185.458 307.5,185.5C 307.833,187.5 308.167,189.5 308.5,191.5C 309.192,190.975 309.692,190.308 310,189.5C 310.333,189.833 310.667,190.167 311,190.5C 313.464,189.349 315.964,188.349 318.5,187.5C 318.5,186.167 318.5,184.833 318.5,183.5C 315.09,183.616 313.756,181.95 314.5,178.5 Z"/></g>
<g><path style="opacity:1" fill="#f9faf9" d="M 392.5,194.5 C 393.833,195.167 393.833,195.167 392.5,194.5 Z"/></g>
<g><path style="opacity:1" fill="#f9faf9" d="M 112.5,195.5 C 113.833,196.167 113.833,196.167 112.5,195.5 Z"/></g>
<g><path style="opacity:1" fill="#6ba834" d="M 184.5,181.5 C 182.275,185.258 179.941,189.092 177.5,193C 179.878,193.974 179.544,194.641 176.5,195C 179.416,195.049 180.416,196.216 179.5,198.5C 181.766,199.314 184.1,199.814 186.5,200C 190.618,202.218 194.618,204.718 198.5,207.5C 199.968,205.468 201.635,205.635 203.5,208C 208.005,208.263 212.339,209.263 216.5,211C 218.203,213.568 220.369,214.068 223,212.5C 228.261,215.172 233.595,216.839 239,217.5C 240.346,214.751 241.68,214.417 243,216.5C 244.419,215.54 245.919,214.707 247.5,214C 244.818,210.244 241.485,207.077 237.5,204.5C 236.056,202.392 235.39,200.059 235.5,197.5C 237.468,202.801 241.134,206.468 246.5,208.5C 248.102,210.074 250.102,210.741 252.5,210.5C 251.469,211.249 250.302,211.915 249,212.5C 248.217,214.433 248.717,215.933 250.5,217C 248.998,219.547 246.998,220.38 244.5,219.5C 242.362,220.243 240.196,220.91 238,221.5C 229.743,219.733 221.243,218.233 212.5,217C 211.5,216.667 210.5,216.333 209.5,216C 210.833,215.333 210.833,214.667 209.5,214C 204.477,213.383 199.643,212.216 195,210.5C 193.989,211.337 192.822,211.67 191.5,211.5C 191.539,209.641 190.706,208.308 189,207.5C 186.333,207.5 183.667,207.5 181,207.5C 178.876,208.227 176.709,208.894 174.5,209.5C 173.702,209.043 173.369,208.376 173.5,207.5C 174.497,207.53 175.164,207.03 175.5,206C 174.5,204.5 173.5,203 172.5,201.5C 170.216,202.843 169.383,202.176 170,199.5C 170.333,198.833 170.667,198.167 171,197.5C 171.667,198.833 172.333,198.833 173,197.5C 173.333,195.833 173.667,194.167 174,192.5C 176.434,190.185 178.434,187.518 180,184.5C 181.129,182.859 182.629,181.859 184.5,181.5 Z"/></g>
<g><path style="opacity:1" fill="#95b468" d="M 333.5,201.5 C 331.612,200.06 329.945,198.394 328.5,196.5C 326.966,201.102 325.633,205.769 324.5,210.5C 324.253,211.713 323.586,212.38 322.5,212.5C 324.453,206.639 325.787,200.639 326.5,194.5C 327.5,193.167 328.5,193.167 329.5,194.5C 331.11,196.725 332.443,199.059 333.5,201.5 Z"/></g>
<g><path style="opacity:1" fill="#64a832" d="M 173.5,207.5 C 173.369,208.376 173.702,209.043 174.5,209.5C 176.709,208.894 178.876,208.227 181,207.5C 183.667,207.5 186.333,207.5 189,207.5C 190.706,208.308 191.539,209.641 191.5,211.5C 192.822,211.67 193.989,211.337 195,210.5C 199.643,212.216 204.477,213.383 209.5,214C 210.833,214.667 210.833,215.333 209.5,216C 210.5,216.333 211.5,216.667 212.5,217C 221.243,218.233 229.743,219.733 238,221.5C 240.196,220.91 242.362,220.243 244.5,219.5C 246.998,220.38 248.998,219.547 250.5,217C 248.717,215.933 248.217,214.433 249,212.5C 250.302,211.915 251.469,211.249 252.5,210.5C 255.021,210.56 257.354,209.894 259.5,208.5C 262.059,210.63 264.393,212.963 266.5,215.5C 266.414,216.496 266.748,217.329 267.5,218C 265.624,220.046 263.624,221.879 261.5,223.5C 259.185,221.303 256.852,221.136 254.5,223C 255.071,224.205 255.738,225.372 256.5,226.5C 266,227.333 275.333,228.999 284.5,231.5C 284.343,232.873 284.51,234.207 285,235.5C 285.741,236.641 286.575,236.641 287.5,235.5C 288.425,236.357 289.092,237.357 289.5,238.5C 286.711,240.537 283.711,240.87 280.5,239.5C 278.816,241.351 276.983,243.018 275,244.5C 273.698,243.915 272.531,243.249 271.5,242.5C 269.708,241.691 267.708,241.191 265.5,241C 270.771,237.595 270.271,236.428 264,237.5C 259.899,236.363 255.732,235.363 251.5,234.5C 254.177,232.736 253.844,231.57 250.5,231C 246.442,230.233 242.442,230.4 238.5,231.5C 236.679,229.757 234.679,228.257 232.5,227C 229.429,226.853 226.596,226.02 224,224.5C 220.321,226.619 216.488,227.286 212.5,226.5C 210.102,226.741 208.102,226.074 206.5,224.5C 207.706,223.12 207.373,221.953 205.5,221C 206.328,220.085 207.328,219.419 208.5,219C 203.625,218.247 198.792,218.414 194,219.5C 193.5,219.333 193,219.167 192.5,219C 195.076,217.617 194.742,216.783 191.5,216.5C 189.078,216.257 187.412,217.257 186.5,219.5C 185.167,218.167 183.833,218.167 182.5,219.5C 181.614,218.675 181.281,217.675 181.5,216.5C 182.873,216.657 184.207,216.49 185.5,216C 179.956,216.59 175.456,214.757 172,210.5C 169.551,210.487 167.051,210.653 164.5,211C 165.763,209.295 166.097,207.628 165.5,206C 166.449,205.383 167.282,205.549 168,206.5C 168.333,205.833 168.667,205.167 169,204.5C 171.026,204.915 172.526,205.915 173.5,207.5 Z"/></g>
<g><path style="opacity:1" fill="#8baa56" d="M 246.5,183.5 C 253.329,180.856 258.496,182.856 262,189.5C 263.441,203.725 257.274,208.892 243.5,205C 235.058,196.849 235.725,189.682 245.5,183.5C 240.71,187.74 239.21,193.073 241,199.5C 245.338,203.912 250.504,205.246 256.5,203.5C 257.853,202.315 259.02,200.981 260,199.5C 262.414,188.156 257.914,182.822 246.5,183.5 Z"/></g>
<g><path style="opacity:1" fill="#7aaf36" d="M 245.5,183.5 C 245.833,183.5 246.167,183.5 246.5,183.5C 257.914,182.822 262.414,188.156 260,199.5C 259.02,200.981 257.853,202.315 256.5,203.5C 250.504,205.246 245.338,203.912 241,199.5C 239.21,193.073 240.71,187.74 245.5,183.5 Z"/></g>
<g><path style="opacity:1" fill="#f9faf9" d="M 362.5,205.5 C 363.833,206.167 363.833,206.167 362.5,205.5 Z"/></g>
<g><path style="opacity:1" fill="#82a95d" d="M 275.5,216.5 C 276.434,217.568 276.768,218.901 276.5,220.5C 272.017,220.925 268.683,219.259 266.5,215.5C 264.393,212.963 262.059,210.63 259.5,208.5C 257.354,209.894 255.021,210.56 252.5,210.5C 250.102,210.741 248.102,210.074 246.5,208.5C 247.822,208.33 248.989,208.663 250,209.5C 253.905,208.493 257.738,207.66 261.5,207C 265.146,212.489 269.813,216.655 275.5,219.5C 275.5,218.5 275.5,217.5 275.5,216.5 Z"/></g>
<g><path style="opacity:1" fill="#62a238" d="M 185.5,178.5 C 184.89,179.391 184.557,180.391 184.5,181.5C 182.629,181.859 181.129,182.859 180,184.5C 178.434,187.518 176.434,190.185 174,192.5C 173.667,194.167 173.333,195.833 173,197.5C 172.333,198.833 171.667,198.833 171,197.5C 170.667,198.167 170.333,198.833 170,199.5C 169.383,202.176 170.216,202.843 172.5,201.5C 173.5,203 174.5,204.5 175.5,206C 175.164,207.03 174.497,207.53 173.5,207.5C 172.526,205.915 171.026,204.915 169,204.5C 168.667,205.167 168.333,205.833 168,206.5C 167.282,205.549 166.449,205.383 165.5,206C 166.097,207.628 165.763,209.295 164.5,211C 167.051,210.653 169.551,210.487 172,210.5C 175.456,214.757 179.956,216.59 185.5,216C 184.207,216.49 182.873,216.657 181.5,216.5C 181.281,217.675 181.614,218.675 182.5,219.5C 183.833,218.167 185.167,218.167 186.5,219.5C 187.412,217.257 189.078,216.257 191.5,216.5C 194.742,216.783 195.076,217.617 192.5,219C 193,219.167 193.5,219.333 194,219.5C 198.792,218.414 203.625,218.247 208.5,219C 207.328,219.419 206.328,220.085 205.5,221C 207.373,221.953 207.706,223.12 206.5,224.5C 198.712,222.476 190.712,221.976 182.5,223C 179.043,224.743 175.377,225.743 171.5,226C 169.676,226.66 168.343,227.827 167.5,229.5C 165.371,231.95 162.704,233.617 159.5,234.5C 156.491,234.423 154.324,235.756 153,238.5C 152.833,237.667 152.667,236.833 152.5,236C 154.813,228.613 156.813,221.113 158.5,213.5C 164.376,199.411 173.376,187.744 185.5,178.5 Z"/></g>
<g><path style="opacity:1" fill="#70ad36" d="M 265.5,195.5 C 266.258,197.981 266.258,200.648 265.5,203.5C 266.552,203.351 267.552,203.517 268.5,204C 267.549,204.718 267.383,205.551 268,206.5C 269.329,207.494 270.662,208.494 272,209.5C 273.95,207.429 276.117,207.095 278.5,208.5C 278.358,210.694 278.691,213.027 279.5,215.5C 280.552,215.649 281.552,215.483 282.5,215C 283.141,212.87 284.474,211.37 286.5,210.5C 287.141,212.296 288.141,213.796 289.5,215C 293.211,215.175 296.878,215.675 300.5,216.5C 300.291,217.086 299.957,217.586 299.5,218C 301.685,219.929 303.351,219.429 304.5,216.5C 306.271,217.035 306.604,217.869 305.5,219C 307.813,219.662 310.146,220.162 312.5,220.5C 312.49,216.497 314.157,213.497 317.5,211.5C 315.336,218.51 311.669,224.51 306.5,229.5C 301.037,232.733 295.371,235.733 289.5,238.5C 289.092,237.357 288.425,236.357 287.5,235.5C 286.575,236.641 285.741,236.641 285,235.5C 284.51,234.207 284.343,232.873 284.5,231.5C 275.333,228.999 266,227.333 256.5,226.5C 255.738,225.372 255.071,224.205 254.5,223C 256.852,221.136 259.185,221.303 261.5,223.5C 263.624,221.879 265.624,220.046 267.5,218C 266.748,217.329 266.414,216.496 266.5,215.5C 268.683,219.259 272.017,220.925 276.5,220.5C 276.768,218.901 276.434,217.568 275.5,216.5C 271.494,211.827 267.161,207.494 262.5,203.5C 263.516,200.718 264.516,198.051 265.5,195.5 Z"/></g>
<g><path style="opacity:1" fill="#8cb559" d="M 337.5,208.5 C 342.974,216.911 346.307,226.244 347.5,236.5C 347.167,236.5 346.833,236.5 346.5,236.5C 344.898,229.09 342.231,222.09 338.5,215.5C 338.003,213.182 337.67,210.848 337.5,208.5 Z"/></g>
<g><path style="opacity:1" fill="#72b036" d="M 333.5,201.5 C 335.588,203.336 336.921,205.669 337.5,208.5C 337.67,210.848 338.003,213.182 338.5,215.5C 342.231,222.09 344.898,229.09 346.5,236.5C 346.5,239.5 346.5,242.5 346.5,245.5C 345.778,245.082 345.278,244.416 345,243.5C 344.667,244.167 344.333,244.833 344,245.5C 343.558,243.321 342.558,242.655 341,243.5C 340.641,240.456 339.974,240.122 339,242.5C 338,241.167 337,241.167 336,242.5C 335.333,241.5 335.333,240.5 336,239.5C 337.243,240.336 338.41,240.003 339.5,238.5C 339.192,237.692 338.692,237.025 338,236.5C 337.107,237.711 336.274,237.711 335.5,236.5C 335.709,235.914 336.043,235.414 336.5,235C 334.381,234.902 332.714,234.069 331.5,232.5C 327.676,231.103 324.009,231.436 320.5,233.5C 319.14,232.82 317.807,232.153 316.5,231.5C 316.561,229.408 317.561,227.908 319.5,227C 318.017,224.427 318.517,222.26 321,220.5C 321.822,217.883 322.322,215.216 322.5,212.5C 323.586,212.38 324.253,211.713 324.5,210.5C 325.633,205.769 326.966,201.102 328.5,196.5C 329.945,198.394 331.612,200.06 333.5,201.5 Z"/></g>
<g><path style="opacity:1" fill="#78a35b" d="M 206.5,224.5 C 208.102,226.074 210.102,226.741 212.5,226.5C 213.949,228.164 215.949,228.998 218.5,229C 218.167,229.333 217.833,229.667 217.5,230C 220.526,231.067 222.86,232.9 224.5,235.5C 216.184,230.337 207.184,226.837 197.5,225C 193.167,224.333 188.833,224.333 184.5,225C 178.783,226.346 173.117,227.846 167.5,229.5C 168.343,227.827 169.676,226.66 171.5,226C 175.377,225.743 179.043,224.743 182.5,223C 190.712,221.976 198.712,222.476 206.5,224.5 Z"/></g>
<g><path style="opacity:1" fill="#f9faf9" d="M 418.5,225.5 C 419.833,226.167 419.833,226.167 418.5,225.5 Z"/></g>
<g><path style="opacity:1" fill="#749b57" d="M 158.5,213.5 C 156.813,221.113 154.813,228.613 152.5,236C 152.667,236.833 152.833,237.667 153,238.5C 154.324,235.756 156.491,234.423 159.5,234.5C 157.159,236.829 154.492,238.829 151.5,240.5C 151.481,230.91 153.814,221.91 158.5,213.5 Z"/></g>
<g><path style="opacity:1" fill="#f9faf9" d="M 85.5,228.5 C 86.8333,229.167 86.8333,229.167 85.5,228.5 Z"/></g>
<g><path style="opacity:1" fill="#f9faf9" d="M 308.5,229.5 C 309.833,230.167 309.833,230.167 308.5,229.5 Z"/></g>
<g><path style="opacity:1" fill="#6d9c53" d="M 206.5,232.5 C 198.512,231.667 190.512,231.501 182.5,232C 180.22,232.233 178.22,233.066 176.5,234.5C 175.914,234.291 175.414,233.957 175,233.5C 172.069,234.716 169.236,236.05 166.5,237.5C 164.59,239.284 162.256,240.284 159.5,240.5C 172.787,230.277 187.787,227.11 204.5,231C 205.416,231.278 206.082,231.778 206.5,232.5 Z"/></g>
<g><path style="opacity:1" fill="#60a136" d="M 271.5,242.5 C 269.242,242.775 268.908,243.775 270.5,245.5C 267.599,246.313 264.766,247.313 262,248.5C 260.251,249.41 259.084,250.743 258.5,252.5C 256.709,253.391 254.876,254.391 253,255.5C 243.043,249.359 233.543,242.693 224.5,235.5C 222.86,232.9 220.526,231.067 217.5,230C 217.833,229.667 218.167,229.333 218.5,229C 215.949,228.998 213.949,228.164 212.5,226.5C 216.488,227.286 220.321,226.619 224,224.5C 226.596,226.02 229.429,226.853 232.5,227C 234.679,228.257 236.679,229.757 238.5,231.5C 242.442,230.4 246.442,230.233 250.5,231C 253.844,231.57 254.177,232.736 251.5,234.5C 255.732,235.363 259.899,236.363 264,237.5C 270.271,236.428 270.771,237.595 265.5,241C 267.708,241.191 269.708,241.691 271.5,242.5 Z"/></g>
<g><path style="opacity:1" fill="#78a951" d="M 322.5,212.5 C 322.322,215.216 321.822,217.883 321,220.5C 318.517,222.26 318.017,224.427 319.5,227C 317.561,227.908 316.561,229.408 316.5,231.5C 315.158,232.793 313.491,233.626 311.5,234C 310.267,235.667 308.933,237.167 307.5,238.5C 301.163,243.168 294.163,246.501 286.5,248.5C 285.5,248.5 284.5,248.5 283.5,248.5C 296.527,244.211 307.36,236.544 316,225.5C 318.467,221.229 320.634,216.896 322.5,212.5 Z"/></g>
<g><path style="opacity:1" fill="#64a834" d="M 316.5,231.5 C 317.807,232.153 319.14,232.82 320.5,233.5C 324.009,231.436 327.676,231.103 331.5,232.5C 332.714,234.069 334.381,234.902 336.5,235C 336.043,235.414 335.709,235.914 335.5,236.5C 336.274,237.711 337.107,237.711 338,236.5C 338.692,237.025 339.192,237.692 339.5,238.5C 338.41,240.003 337.243,240.336 336,239.5C 335.333,240.5 335.333,241.5 336,242.5C 337,241.167 338,241.167 339,242.5C 339.974,240.122 340.641,240.456 341,243.5C 342.558,242.655 343.558,243.321 344,245.5C 344.333,244.833 344.667,244.167 345,243.5C 345.278,244.416 345.778,245.082 346.5,245.5C 346.666,249.846 346.499,254.179 346,258.5C 345.751,259.624 345.251,260.624 344.5,261.5C 343.385,259.511 343.718,257.678 345.5,256C 344.65,250.817 342.65,250.651 339.5,255.5C 338.749,254.624 338.249,253.624 338,252.5C 336.507,254.348 334.674,255.181 332.5,255C 330.192,253.133 327.525,252.133 324.5,252C 323.672,251.085 322.672,250.419 321.5,250C 322.5,249.667 323.5,249.333 324.5,249C 324.167,248.667 323.833,248.333 323.5,248C 317.898,245.042 312.565,241.876 307.5,238.5C 308.933,237.167 310.267,235.667 311.5,234C 313.491,233.626 315.158,232.793 316.5,231.5 Z"/></g>
<g><path style="opacity:1" fill="#f9faf9" d="M 110.5,236.5 C 111.833,237.167 111.833,237.167 110.5,236.5 Z"/></g>
<g><path style="opacity:1" fill="#509c32" d="M 206.5,232.5 C 211.038,233.436 215.038,235.436 218.5,238.5C 218.539,239.583 218.873,240.583 219.5,241.5C 226.795,247.585 234.795,252.585 243.5,256.5C 242.66,258.614 243.327,260.447 245.5,262C 241.51,265.837 239.51,265.004 239.5,259.5C 234.533,259.679 230.2,258.179 226.5,255C 228.966,254.07 228.799,253.237 226,252.5C 223.073,254.676 219.74,256.01 216,256.5C 211.088,254.571 206.422,252.238 202,249.5C 198.959,250.504 195.959,250.17 193,248.5C 192.055,248.905 191.388,249.572 191,250.5C 186.963,247.398 182.463,245.232 177.5,244C 178.833,243.667 180.167,243.333 181.5,243C 179.782,242.654 178.115,242.154 176.5,241.5C 175.749,242.376 175.249,243.376 175,244.5C 171.575,242.729 168.742,240.395 166.5,237.5C 169.236,236.05 172.069,234.716 175,233.5C 175.414,233.957 175.914,234.291 176.5,234.5C 178.22,233.066 180.22,232.233 182.5,232C 190.512,231.501 198.512,231.667 206.5,232.5 Z"/></g>
<g><path style="opacity:1" fill="#f9faf9" d="M 447.5,237.5 C 448.833,238.167 448.833,238.167 447.5,237.5 Z"/></g>
<g><path style="opacity:1" fill="#4b9532" d="M 166.5,237.5 C 168.742,240.395 171.575,242.729 175,244.5C 175.249,243.376 175.749,242.376 176.5,241.5C 178.115,242.154 179.782,242.654 181.5,243C 180.167,243.333 178.833,243.667 177.5,244C 182.463,245.232 186.963,247.398 191,250.5C 191.388,249.572 192.055,248.905 193,248.5C 195.959,250.17 198.959,250.504 202,249.5C 206.422,252.238 211.088,254.571 216,256.5C 219.74,256.01 223.073,254.676 226,252.5C 228.799,253.237 228.966,254.07 226.5,255C 230.2,258.179 234.533,259.679 239.5,259.5C 239.51,265.004 241.51,265.837 245.5,262C 243.327,260.447 242.66,258.614 243.5,256.5C 243.833,256.5 244.167,256.5 244.5,256.5C 246.833,256.833 248.167,258.167 248.5,260.5C 247.958,265.92 246.624,271.253 244.5,276.5C 243.249,274.275 243.582,272.109 245.5,270C 244.874,269.25 244.374,268.416 244,267.5C 243.481,268.516 242.647,269.182 241.5,269.5C 237.158,267.913 232.991,265.913 229,263.5C 226.908,263.879 224.908,264.546 223,265.5C 216.85,262.451 210.35,260.451 203.5,259.5C 202.833,255.5 202.167,255.5 201.5,259.5C 195.909,260.931 191.076,259.597 187,255.5C 185.739,255.759 184.739,256.426 184,257.5C 180.517,254.389 176.351,252.722 171.5,252.5C 168.885,253.154 166.385,253.154 164,252.5C 163.127,255.141 161.96,256.807 160.5,257.5C 158.862,256.086 157.528,256.42 156.5,258.5C 155.449,256.156 153.782,254.489 151.5,253.5C 151.5,251.833 151.5,250.167 151.5,248.5C 152.552,248.649 153.552,248.483 154.5,248C 155.828,245.147 157.495,242.647 159.5,240.5C 162.256,240.284 164.59,239.284 166.5,237.5 Z"/></g>
<g><path style="opacity:1" fill="#74a351" d="M 306.5,229.5 C 302.232,233.974 297.232,237.474 291.5,240C 280.548,244.481 269.548,248.648 258.5,252.5C 259.084,250.743 260.251,249.41 262,248.5C 264.766,247.313 267.599,246.313 270.5,245.5C 268.908,243.775 269.242,242.775 271.5,242.5C 272.531,243.249 273.698,243.915 275,244.5C 276.983,243.018 278.816,241.351 280.5,239.5C 283.711,240.87 286.711,240.537 289.5,238.5C 295.371,235.733 301.037,232.733 306.5,229.5 Z"/></g>
<g><path style="opacity:1" fill="#5ca233" d="M 346.5,236.5 C 346.833,236.5 347.167,236.5 347.5,236.5C 347.5,245.833 347.5,255.167 347.5,264.5C 345.278,265.688 342.945,266.688 340.5,267.5C 336.487,263.665 331.821,262.332 326.5,263.5C 321.777,262.774 317.277,261.441 313,259.5C 308.689,260.054 304.522,259.22 300.5,257C 304.375,256.014 304.375,254.847 300.5,253.5C 298.332,255.455 295.998,256.121 293.5,255.5C 290.972,254.483 290.972,253.316 293.5,252C 293,251.5 292.5,251 292,250.5C 289.189,252.18 287.356,251.513 286.5,248.5C 294.163,246.501 301.163,243.168 307.5,238.5C 312.565,241.876 317.898,245.042 323.5,248C 323.833,248.333 324.167,248.667 324.5,249C 323.5,249.333 322.5,249.667 321.5,250C 322.672,250.419 323.672,251.085 324.5,252C 327.525,252.133 330.192,253.133 332.5,255C 334.674,255.181 336.507,254.348 338,252.5C 338.249,253.624 338.749,254.624 339.5,255.5C 342.65,250.651 344.65,250.817 345.5,256C 343.718,257.678 343.385,259.511 344.5,261.5C 345.251,260.624 345.751,259.624 346,258.5C 346.499,254.179 346.666,249.846 346.5,245.5C 346.5,242.5 346.5,239.5 346.5,236.5 Z"/></g>
<g><path style="opacity:1" fill="#77a259" d="M 347.5,236.5 C 350.135,249.164 350.135,261.831 347.5,274.5C 347.5,271.167 347.5,267.833 347.5,264.5C 347.5,255.167 347.5,245.833 347.5,236.5 Z"/></g>
<g><path style="opacity:1" fill="#439530" d="M 244.5,276.5 C 244.5,277.167 244.5,277.833 244.5,278.5C 243.691,280.292 243.191,282.292 243,284.5C 241.887,283.24 241.72,282.073 242.5,281C 241.692,280.692 241.025,280.192 240.5,279.5C 241.256,277.549 241.589,275.716 241.5,274C 240.126,270.59 239.459,270.757 239.5,274.5C 238.448,274.649 237.448,274.483 236.5,274C 234.759,272.38 232.925,270.88 231,269.5C 228.645,270.808 226.145,271.808 223.5,272.5C 224.46,273.812 224.294,275.146 223,276.5C 222.682,274.939 221.849,273.772 220.5,273C 221.5,272 222.5,271 223.5,270C 220.2,270.046 216.866,270.212 213.5,270.5C 213.5,269.5 213.5,268.5 213.5,267.5C 212.167,267.5 210.833,267.5 209.5,267.5C 209.137,269.911 210.137,271.411 212.5,272C 211.944,272.383 211.611,272.883 211.5,273.5C 209.731,272.579 208.065,271.412 206.5,270C 206.5,269 206.5,268 206.5,267C 205.922,265.583 204.922,264.75 203.5,264.5C 202.287,262.324 200.62,261.991 198.5,263.5C 198.432,273.333 196.766,273.666 193.5,264.5C 182.683,261.27 171.683,258.937 160.5,257.5C 161.96,256.807 163.127,255.141 164,252.5C 166.385,253.154 168.885,253.154 171.5,252.5C 176.351,252.722 180.517,254.389 184,257.5C 184.739,256.426 185.739,255.759 187,255.5C 191.076,259.597 195.909,260.931 201.5,259.5C 202.167,255.5 202.833,255.5 203.5,259.5C 210.35,260.451 216.85,262.451 223,265.5C 224.908,264.546 226.908,263.879 229,263.5C 232.991,265.913 237.158,267.913 241.5,269.5C 242.647,269.182 243.481,268.516 244,267.5C 244.374,268.416 244.874,269.25 245.5,270C 243.582,272.109 243.249,274.275 244.5,276.5 Z"/></g>
<g><path style="opacity:1" fill="#f9faf9" d="M 381.5,252.5 C 382.833,253.167 382.833,253.167 381.5,252.5 Z"/></g>
<g><path style="opacity:1" fill="#579b34" d="M 283.5,248.5 C 284.5,248.5 285.5,248.5 286.5,248.5C 287.356,251.513 289.189,252.18 292,250.5C 292.5,251 293,251.5 293.5,252C 290.972,253.316 290.972,254.483 293.5,255.5C 295.998,256.121 298.332,255.455 300.5,253.5C 304.375,254.847 304.375,256.014 300.5,257C 304.522,259.22 308.689,260.054 313,259.5C 317.277,261.441 321.777,262.774 326.5,263.5C 331.821,262.332 336.487,263.665 340.5,267.5C 342.945,266.688 345.278,265.688 347.5,264.5C 347.5,267.833 347.5,271.167 347.5,274.5C 345.466,278.413 343.8,282.579 342.5,287C 342.164,288.03 341.497,288.53 340.5,288.5C 342.18,286.274 341.847,284.607 339.5,283.5C 339.105,277.339 340.105,277.006 342.5,282.5C 343.452,280.955 343.785,279.288 343.5,277.5C 339.294,278.051 336.96,276.217 336.5,272C 325.457,268.655 314.457,265.155 303.5,261.5C 303.719,262.675 303.386,263.675 302.5,264.5C 300.684,263.185 299.017,261.685 297.5,260C 293.458,259.653 289.792,258.32 286.5,256C 286.833,255.667 287.167,255.333 287.5,255C 286.5,254.667 285.5,254.333 284.5,254C 284.833,253.667 285.167,253.333 285.5,253C 281.514,252.501 277.514,252.334 273.5,252.5C 276.54,250.654 279.873,249.321 283.5,248.5 Z"/></g>
<g><path style="opacity:1" fill="#71a153" d="M 218.5,238.5 C 227.552,244.019 236.219,250.019 244.5,256.5C 244.167,256.5 243.833,256.5 243.5,256.5C 234.795,252.585 226.795,247.585 219.5,241.5C 218.873,240.583 218.539,239.583 218.5,238.5 Z"/></g>
<g><path style="opacity:1" fill="#509b31" d="M 273.5,252.5 C 277.514,252.334 281.514,252.501 285.5,253C 285.167,253.333 284.833,253.667 284.5,254C 285.5,254.333 286.5,254.667 287.5,255C 287.167,255.333 286.833,255.667 286.5,256C 289.792,258.32 293.458,259.653 297.5,260C 299.017,261.685 300.684,263.185 302.5,264.5C 303.386,263.675 303.719,262.675 303.5,261.5C 314.457,265.155 325.457,268.655 336.5,272C 336.96,276.217 339.294,278.051 343.5,277.5C 343.785,279.288 343.452,280.955 342.5,282.5C 340.105,277.006 339.105,277.339 339.5,283.5C 336.867,292.604 335.7,292.604 336,283.5C 335.667,283.833 335.333,284.167 335,284.5C 334.517,283.552 334.351,282.552 334.5,281.5C 331.315,281.278 330.315,279.778 331.5,277C 329.833,276 328.167,275 326.5,274C 321.738,273.523 317.071,274.023 312.5,275.5C 312.519,277.06 312.852,278.56 313.5,280C 312.824,281.683 311.824,281.85 310.5,280.5C 311.026,277.192 309.693,275.026 306.5,274C 301.511,273.501 296.511,273.334 291.5,273.5C 287.413,269.463 284.08,265.296 281.5,261C 279.294,261.285 277.127,261.452 275,261.5C 273.549,259.536 271.716,258.203 269.5,257.5C 269.062,257.565 268.728,257.399 268.5,257C 270.618,255.951 272.284,254.451 273.5,252.5 Z"/></g>
<g><path style="opacity:1" fill="#499631" d="M 269.5,257.5 C 271.716,258.203 273.549,259.536 275,261.5C 277.127,261.452 279.294,261.285 281.5,261C 284.08,265.296 287.413,269.463 291.5,273.5C 291.062,273.435 290.728,273.601 290.5,274C 291.416,274.278 292.082,274.778 292.5,275.5C 290.459,275.854 288.626,275.854 287,275.5C 287.396,279.457 285.896,282.29 282.5,284C 284.255,284.72 285.089,285.887 285,287.5C 283.542,286.253 282.042,286.253 280.5,287.5C 279.713,286.758 279.047,285.925 278.5,285C 279.451,284.282 279.617,283.449 279,282.5C 278.346,283.696 277.846,283.696 277.5,282.5C 278.025,281.808 278.692,281.308 279.5,281C 276.291,278.927 273.124,279.093 270,281.5C 267.732,280.528 265.732,279.195 264,277.5C 258.799,278.493 255.965,276.16 255.5,270.5C 255.549,267.901 256.549,265.734 258.5,264C 255.972,263.002 255.972,262.169 258.5,261.5C 260.981,263.164 263.647,263.664 266.5,263C 261.992,261.44 261.658,259.607 265.5,257.5C 267.151,259.735 268.484,259.735 269.5,257.5 Z"/></g>
<g><path style="opacity:1" fill="#408f31" d="M 151.5,253.5 C 153.782,254.489 155.449,256.156 156.5,258.5C 157.528,256.42 158.862,256.086 160.5,257.5C 171.683,258.937 182.683,261.27 193.5,264.5C 196.766,273.666 198.432,273.333 198.5,263.5C 200.62,261.991 202.287,262.324 203.5,264.5C 200.67,266.362 199.837,269.029 201,272.5C 201.202,270.744 201.702,269.078 202.5,267.5C 203.474,269.743 203.808,272.076 203.5,274.5C 202.167,274.5 200.833,274.5 199.5,274.5C 198.07,274.421 196.736,274.754 195.5,275.5C 194.065,274.176 193.065,272.51 192.5,270.5C 190.298,271.78 188.132,271.78 186,270.5C 184.815,273.603 184.148,276.603 184,279.5C 181.718,276.432 178.884,273.932 175.5,272C 171.387,271.705 167.387,272.038 163.5,273C 162.241,272.077 160.908,271.243 159.5,270.5C 162.107,269.682 164.774,269.182 167.5,269C 164.205,267.368 160.872,266.868 157.5,267.5C 159.024,269.792 158.691,271.792 156.5,273.5C 157.995,276.656 159.329,279.489 160.5,282C 158.68,282.979 157.513,284.479 157,286.5C 156.617,285.944 156.117,285.611 155.5,285.5C 155.263,282.788 155.263,280.288 155.5,278C 153.306,276.447 152.14,274.281 152,271.5C 151.501,265.509 151.334,259.509 151.5,253.5 Z"/></g>
<g><path style="opacity:1" fill="#5d9055" d="M 159.5,240.5 C 157.495,242.647 155.828,245.147 154.5,248C 153.552,248.483 152.552,248.649 151.5,248.5C 151.5,250.167 151.5,251.833 151.5,253.5C 151.334,259.509 151.501,265.509 152,271.5C 152.14,274.281 153.306,276.447 155.5,278C 155.263,280.288 155.263,282.788 155.5,285.5C 156.919,289.876 158.252,294.209 159.5,298.5C 162.5,298.167 163.833,299.5 163.5,302.5C 163.5,303.833 163.5,305.167 163.5,306.5C 155.561,294.855 151.061,281.855 150,267.5C 149.333,261.167 149.333,254.833 150,248.5C 152.747,245.246 155.914,242.58 159.5,240.5 Z"/></g>
<g><path style="opacity:1" fill="#f9faf9" d="M 120.5,272.5 C 121.833,273.167 121.833,273.167 120.5,272.5 Z"/></g>
<g><path style="opacity:1" fill="#479431" d="M 339.5,283.5 C 341.847,284.607 342.18,286.274 340.5,288.5C 341.076,292.122 340.076,295.122 337.5,297.5C 336.725,299.843 336.058,302.177 335.5,304.5C 333.021,305.582 331.521,304.582 331,301.5C 329.959,303.585 328.459,305.252 326.5,306.5C 323.239,302.018 319.239,301.018 314.5,303.5C 312.128,302.561 309.961,301.228 308,299.5C 306.234,300.233 304.401,300.567 302.5,300.5C 302.5,299.167 302.5,297.833 302.5,296.5C 304.582,296.528 306.416,295.861 308,294.5C 308.333,294.833 308.667,295.167 309,295.5C 309.308,294.692 309.808,294.025 310.5,293.5C 312.583,295.249 314.916,296.082 317.5,296C 317.899,293.521 317.399,291.021 316,288.5C 308.725,294.121 307.892,293.455 313.5,286.5C 312.726,285.289 311.893,285.289 311,286.5C 310.505,284.527 310.338,282.527 310.5,280.5C 311.824,281.85 312.824,281.683 313.5,280C 312.852,278.56 312.519,277.06 312.5,275.5C 317.071,274.023 321.738,273.523 326.5,274C 328.167,275 329.833,276 331.5,277C 330.315,279.778 331.315,281.278 334.5,281.5C 334.351,282.552 334.517,283.552 335,284.5C 335.333,284.167 335.667,283.833 336,283.5C 335.7,292.604 336.867,292.604 339.5,283.5 Z"/></g>
<g><path style="opacity:1" fill="#f9faf9" d="M 29.5,278.5 C 30.8333,279.167 30.8333,279.167 29.5,278.5 Z"/></g>
<g><path style="opacity:1" fill="#418f32" d="M 255.5,270.5 C 255.965,276.16 258.799,278.493 264,277.5C 265.732,279.195 267.732,280.528 270,281.5C 273.124,279.093 276.291,278.927 279.5,281C 278.692,281.308 278.025,281.808 277.5,282.5C 277.846,283.696 278.346,283.696 279,282.5C 279.617,283.449 279.451,284.282 278.5,285C 279.047,285.925 279.713,286.758 280.5,287.5C 282.042,286.253 283.542,286.253 285,287.5C 285.089,285.887 284.255,284.72 282.5,284C 285.896,282.29 287.396,279.457 287,275.5C 288.626,275.854 290.459,275.854 292.5,275.5C 288.979,277.207 287.646,279.873 288.5,283.5C 290.04,281.613 291.707,279.78 293.5,278C 296.5,277.333 299.5,277.333 302.5,278C 303.056,278.383 303.389,278.883 303.5,279.5C 303.557,284.302 302.224,288.635 299.5,292.5C 298.178,292.33 297.011,292.663 296,293.5C 294.097,295.441 293.264,297.774 293.5,300.5C 292.637,304.586 290.971,305.086 288.5,302C 289.5,299.667 290.5,297.333 291.5,295C 291,294.5 290.5,294 290,293.5C 288.475,294.72 286.641,295.387 284.5,295.5C 280.157,295.082 275.824,294.582 271.5,294C 272.167,293.667 272.833,293.333 273.5,293C 272.027,292.29 271.36,291.124 271.5,289.5C 268.193,289.937 265.193,289.27 262.5,287.5C 260.15,289.618 257.65,290.618 255,290.5C 252.952,288.494 253.452,287.494 256.5,287.5C 256.162,284.989 256.162,282.655 256.5,280.5C 254.342,277.257 254.009,273.924 255.5,270.5 Z"/></g>
<g><path style="opacity:1" fill="#46863b" d="M 203.5,264.5 C 204.922,264.75 205.922,265.583 206.5,267C 206.5,268 206.5,269 206.5,270C 208.065,271.412 209.731,272.579 211.5,273.5C 213.895,272.637 216.229,272.637 218.5,273.5C 217.289,274.72 217.289,275.887 218.5,277C 214.137,278.552 213.47,281.052 216.5,284.5C 218.833,285.167 221.167,285.833 223.5,286.5C 224.704,289.502 223.537,291.168 220,291.5C 218.715,291.05 217.548,290.383 216.5,289.5C 215.692,289.808 215.025,290.308 214.5,291C 215.991,293.308 216.991,295.808 217.5,298.5C 215.621,298.393 215.288,298.893 216.5,300C 215.809,301.067 215.309,302.234 215,303.5C 214.647,301.926 213.98,300.259 213,298.5C 212.617,299.056 212.117,299.389 211.5,299.5C 211.992,295.71 211.159,295.044 209,297.5C 208.536,296.906 208.369,296.239 208.5,295.5C 209.112,291.837 209.279,288.17 209,284.5C 207.989,283.663 206.822,283.33 205.5,283.5C 205.177,288.241 203.51,288.575 200.5,284.5C 201.325,283.614 202.325,283.281 203.5,283.5C 203.297,281.61 203.963,280.11 205.5,279C 204.667,278.833 203.833,278.667 203,278.5C 195.515,281.3 193.348,286.3 196.5,293.5C 195.375,294.348 195.375,295.348 196.5,296.5C 196.167,296.5 195.833,296.5 195.5,296.5C 194.662,296.158 194.328,295.492 194.5,294.5C 194.5,293.833 194.167,293.5 193.5,293.5C 192.833,293.5 192.167,293.5 191.5,293.5C 191.5,292.167 191.5,290.833 191.5,289.5C 192.371,284.194 192.371,283.861 191.5,288.5C 189.627,287.104 189.294,285.437 190.5,283.5C 191.196,280.328 190.196,277.495 187.5,275C 189.301,274.683 189.634,274.016 188.5,273C 189.793,272.51 191.127,272.343 192.5,272.5C 192.384,275.91 194.05,277.244 197.5,276.5C 198.167,275.833 198.833,275.167 199.5,274.5C 200.833,274.5 202.167,274.5 203.5,274.5C 203.808,272.076 203.474,269.743 202.5,267.5C 201.702,269.078 201.202,270.744 201,272.5C 199.837,269.029 200.67,266.362 203.5,264.5 Z"/></g>
<g><path style="opacity:1" fill="#30832d" d="M 199.5,274.5 C 198.833,275.167 198.167,275.833 197.5,276.5C 194.05,277.244 192.384,275.91 192.5,272.5C 191.127,272.343 189.793,272.51 188.5,273C 189.634,274.016 189.301,274.683 187.5,275C 190.196,277.495 191.196,280.328 190.5,283.5C 188.076,284.03 185.743,284.864 183.5,286C 184.737,286.232 185.737,286.732 186.5,287.5C 185.508,287.328 184.842,287.662 184.5,288.5C 183.069,288.119 182.236,287.119 182,285.5C 180.833,287.333 179.333,288.833 177.5,290C 180.167,290.667 180.167,291.333 177.5,292C 180.97,291.033 184.136,291.867 187,294.5C 189.718,291.6 191.218,292.267 191.5,296.5C 188.971,298.529 186.304,300.362 183.5,302C 186.5,303 189.5,304 192.5,305C 192.868,306.473 192.368,307.973 191,309.5C 190.5,309 190,308.5 189.5,308C 187.167,307.833 184.833,307.667 182.5,307.5C 179.713,307.574 177.213,308.24 175,309.5C 173.812,308.437 173.312,307.103 173.5,305.5C 172.325,305.719 171.325,305.386 170.5,304.5C 169.94,302.146 169.273,299.813 168.5,297.5C 167.65,299.904 166.65,302.237 165.5,304.5C 164.818,303.757 164.151,303.091 163.5,302.5C 163.833,299.5 162.5,298.167 159.5,298.5C 158.252,294.209 156.919,289.876 155.5,285.5C 156.117,285.611 156.617,285.944 157,286.5C 157.513,284.479 158.68,282.979 160.5,282C 159.329,279.489 157.995,276.656 156.5,273.5C 158.691,271.792 159.024,269.792 157.5,267.5C 160.872,266.868 164.205,267.368 167.5,269C 164.774,269.182 162.107,269.682 159.5,270.5C 160.908,271.243 162.241,272.077 163.5,273C 167.387,272.038 171.387,271.705 175.5,272C 178.884,273.932 181.718,276.432 184,279.5C 184.148,276.603 184.815,273.603 186,270.5C 188.132,271.78 190.298,271.78 192.5,270.5C 193.065,272.51 194.065,274.176 195.5,275.5C 196.736,274.754 198.07,274.421 199.5,274.5 Z"/></g>
<g><path style="opacity:1" fill="#f9faf9" d="M 148.5,283.5 C 149.833,284.167 149.833,284.167 148.5,283.5 Z"/></g>
<g><path style="opacity:1" fill="#36892e" d="M 244.5,278.5 C 244.821,283.695 244.487,288.695 243.5,293.5C 242.027,296.695 241.527,300.028 242,303.5C 241.683,301.699 241.016,301.366 240,302.5C 238.505,300.89 238.339,299.224 239.5,297.5C 239.167,296.5 238.5,295.833 237.5,295.5C 235.283,296.768 233.283,298.268 231.5,300C 235.044,301.939 238.711,303.605 242.5,305C 241.234,305.309 240.067,305.809 239,306.5C 237.333,305.167 235.667,305.167 234,306.5C 231.146,304.496 228.146,302.83 225,301.5C 223.887,300.24 223.72,299.073 224.5,298C 226.797,297.982 229.131,298.149 231.5,298.5C 231.5,297.5 231.5,296.5 231.5,295.5C 228.421,295.26 225.421,295.593 222.5,296.5C 221.231,298.695 221.231,300.861 222.5,303C 221.552,303.483 220.552,303.649 219.5,303.5C 219.635,301.446 218.968,299.779 217.5,298.5C 216.991,295.808 215.991,293.308 214.5,291C 215.025,290.308 215.692,289.808 216.5,289.5C 217.548,290.383 218.715,291.05 220,291.5C 223.537,291.168 224.704,289.502 223.5,286.5C 221.167,285.833 218.833,285.167 216.5,284.5C 213.47,281.052 214.137,278.552 218.5,277C 217.289,275.887 217.289,274.72 218.5,273.5C 216.229,272.637 213.895,272.637 211.5,273.5C 211.611,272.883 211.944,272.383 212.5,272C 210.137,271.411 209.137,269.911 209.5,267.5C 210.833,267.5 212.167,267.5 213.5,267.5C 213.5,268.5 213.5,269.5 213.5,270.5C 216.866,270.212 220.2,270.046 223.5,270C 222.5,271 221.5,272 220.5,273C 221.849,273.772 222.682,274.939 223,276.5C 224.294,275.146 224.46,273.812 223.5,272.5C 226.145,271.808 228.645,270.808 231,269.5C 232.925,270.88 234.759,272.38 236.5,274C 237.448,274.483 238.448,274.649 239.5,274.5C 239.459,270.757 240.126,270.59 241.5,274C 241.589,275.716 241.256,277.549 240.5,279.5C 241.025,280.192 241.692,280.692 242.5,281C 241.72,282.073 241.887,283.24 243,284.5C 243.191,282.292 243.691,280.292 244.5,278.5 Z"/></g>
<g><path style="opacity:1" fill="#669157" d="M 303.5,279.5 C 304.117,279.611 304.617,279.944 305,280.5C 306.961,286.412 305.127,290.412 299.5,292.5C 302.224,288.635 303.557,284.302 303.5,279.5 Z"/></g>
<g><path style="opacity:1" fill="#f9faf9" d="M 463.5,287.5 C 464.833,288.167 464.833,288.167 463.5,287.5 Z"/></g>
<g><path style="opacity:1" fill="#33852f" d="M 208.5,295.5 C 207.662,295.842 207.328,296.508 207.5,297.5C 206.069,298.78 205.402,300.447 205.5,302.5C 203.5,302.5 201.5,302.5 199.5,302.5C 198.784,299.402 197.784,296.402 196.5,293.5C 193.348,286.3 195.515,281.3 203,278.5C 203.833,278.667 204.667,278.833 205.5,279C 203.963,280.11 203.297,281.61 203.5,283.5C 202.325,283.281 201.325,283.614 200.5,284.5C 203.51,288.575 205.177,288.241 205.5,283.5C 206.822,283.33 207.989,283.663 209,284.5C 209.279,288.17 209.112,291.837 208.5,295.5 Z"/></g>
<g><path style="opacity:1" fill="#398930" d="M 273.5,252.5 C 272.284,254.451 270.618,255.951 268.5,257C 268.728,257.399 269.062,257.565 269.5,257.5C 268.484,259.735 267.151,259.735 265.5,257.5C 261.658,259.607 261.992,261.44 266.5,263C 263.647,263.664 260.981,263.164 258.5,261.5C 255.972,262.169 255.972,263.002 258.5,264C 256.549,265.734 255.549,267.901 255.5,270.5C 254.009,273.924 254.342,277.257 256.5,280.5C 256.162,282.655 256.162,284.989 256.5,287.5C 253.452,287.494 252.952,288.494 255,290.5C 257.65,290.618 260.15,289.618 262.5,287.5C 265.193,289.27 268.193,289.937 271.5,289.5C 271.36,291.124 272.027,292.29 273.5,293C 272.833,293.333 272.167,293.667 271.5,294C 275.824,294.582 280.157,295.082 284.5,295.5C 286.641,295.387 288.475,294.72 290,293.5C 290.5,294 291,294.5 291.5,295C 290.5,297.333 289.5,299.667 288.5,302C 290.971,305.086 292.637,304.586 293.5,300.5C 293.5,301.5 293.5,302.5 293.5,303.5C 297.131,303.032 300.465,303.699 303.5,305.5C 304.086,305.291 304.586,304.957 305,304.5C 307.459,307.1 309.959,307.1 312.5,304.5C 313.7,305.531 315.034,306.365 316.5,307C 313.167,307.333 309.833,307.667 306.5,308C 308.298,309.505 310.132,309.672 312,308.5C 313.255,309.211 314.421,310.044 315.5,311C 311.5,311.667 307.5,311.667 303.5,311C 301.616,307.226 298.616,305.893 294.5,307C 293.424,308.726 293.257,310.559 294,312.5C 296.864,313.376 299.031,315.043 300.5,317.5C 296.862,317.262 294.029,315.596 292,312.5C 291.667,312.833 291.333,313.167 291,313.5C 290,310.833 289,308.167 288,305.5C 283.414,306.774 279.08,306.107 275,303.5C 272.739,303.887 271.406,305.221 271,307.5C 266.115,304.062 261.115,304.062 256,307.5C 254.383,306.464 254.216,305.297 255.5,304C 260.167,303.667 264.833,303.333 269.5,303C 267.649,302.163 265.816,301.329 264,300.5C 260.143,301.339 256.309,302.339 252.5,303.5C 252.5,295.833 252.5,288.167 252.5,280.5C 252.742,273.748 253.575,267.081 255,260.5C 260.968,257.345 267.134,254.678 273.5,252.5 Z M 296.5,307.5 C 298.912,307.694 299.912,309.027 299.5,311.5C 296.046,311.733 295.046,310.4 296.5,307.5 Z"/></g>
<g><path style="opacity:1" fill="#f9faf9" d="M 398.5,296.5 C 399.833,297.167 399.833,297.167 398.5,296.5 Z"/></g>
<g><path style="opacity:1" fill="#f9faf9" d="M 442.5,296.5 C 443.833,297.167 443.833,297.167 442.5,296.5 Z"/></g>
<g><path style="opacity:1" fill="#6d9c5b" d="M 347.5,274.5 C 346.067,285.964 342.067,296.297 335.5,305.5C 335.5,305.167 335.5,304.833 335.5,304.5C 336.058,302.177 336.725,299.843 337.5,297.5C 340.076,295.122 341.076,292.122 340.5,288.5C 341.497,288.53 342.164,288.03 342.5,287C 343.8,282.579 345.466,278.413 347.5,274.5 Z"/></g>
<g><path style="opacity:1" fill="#f9faf9" d="M 98.5,300.5 C 99.8333,301.167 99.8333,301.167 98.5,300.5 Z"/></g>
<g><path style="opacity:1" fill="#3e8934" d="M 291.5,273.5 C 296.511,273.334 301.511,273.501 306.5,274C 309.693,275.026 311.026,277.192 310.5,280.5C 310.338,282.527 310.505,284.527 311,286.5C 311.893,285.289 312.726,285.289 313.5,286.5C 307.892,293.455 308.725,294.121 316,288.5C 317.399,291.021 317.899,293.521 317.5,296C 314.916,296.082 312.583,295.249 310.5,293.5C 309.808,294.025 309.308,294.692 309,295.5C 308.667,295.167 308.333,294.833 308,294.5C 306.416,295.861 304.582,296.528 302.5,296.5C 302.5,297.833 302.5,299.167 302.5,300.5C 304.401,300.567 306.234,300.233 308,299.5C 309.961,301.228 312.128,302.561 314.5,303.5C 319.239,301.018 323.239,302.018 326.5,306.5C 328.459,305.252 329.959,303.585 331,301.5C 331.521,304.582 333.021,305.582 335.5,304.5C 335.5,304.833 335.5,305.167 335.5,305.5C 335.443,306.609 335.11,307.609 334.5,308.5C 333.325,308.281 332.325,308.614 331.5,309.5C 330.21,311.792 328.543,313.792 326.5,315.5C 325.571,316.689 325.238,318.022 325.5,319.5C 324.448,319.351 323.448,319.517 322.5,320C 321.845,322.159 320.512,323.659 318.5,324.5C 318.5,323.5 318.5,322.5 318.5,321.5C 316.241,323.814 312.908,325.481 308.5,326.5C 305.972,325.483 305.972,324.316 308.5,323C 306.392,322.64 304.392,321.973 302.5,321C 303.84,318.851 303.173,317.684 300.5,317.5C 299.031,315.043 296.864,313.376 294,312.5C 293.257,310.559 293.424,308.726 294.5,307C 298.616,305.893 301.616,307.226 303.5,311C 307.5,311.667 311.5,311.667 315.5,311C 314.421,310.044 313.255,309.211 312,308.5C 310.132,309.672 308.298,309.505 306.5,308C 309.833,307.667 313.167,307.333 316.5,307C 315.034,306.365 313.7,305.531 312.5,304.5C 309.959,307.1 307.459,307.1 305,304.5C 304.586,304.957 304.086,305.291 303.5,305.5C 300.465,303.699 297.131,303.032 293.5,303.5C 293.5,302.5 293.5,301.5 293.5,300.5C 293.264,297.774 294.097,295.441 296,293.5C 297.011,292.663 298.178,292.33 299.5,292.5C 297.539,294.798 296.539,297.465 296.5,300.5C 297.5,300.5 298.5,300.5 299.5,300.5C 299.343,299.127 299.51,297.793 300,296.5C 303.038,293.797 305.705,290.797 308,287.5C 309.654,281.307 307.487,277.14 301.5,275C 298.445,274.366 295.445,274.532 292.5,275.5C 292.082,274.778 291.416,274.278 290.5,274C 290.728,273.601 291.062,273.435 291.5,273.5 Z M 296.5,307.5 C 295.046,310.4 296.046,311.733 299.5,311.5C 299.912,309.027 298.912,307.694 296.5,307.5 Z"/></g>
<g><path style="opacity:1" fill="#5c8e57" d="M 248.5,260.5 C 249.043,260.56 249.376,260.893 249.5,261.5C 247.624,275.966 245.957,290.466 244.5,305C 245.394,313.332 247.727,321.165 251.5,328.5C 250.395,327.4 249.062,326.733 247.5,326.5C 245.619,320.701 244.285,314.701 243.5,308.5C 243.5,303.5 243.5,298.5 243.5,293.5C 244.487,288.695 244.821,283.695 244.5,278.5C 244.5,277.833 244.5,277.167 244.5,276.5C 246.624,271.253 247.958,265.92 248.5,260.5 Z"/></g>
<g><path style="opacity:1" fill="#277d2b" d="M 243.5,293.5 C 243.5,298.5 243.5,303.5 243.5,308.5C 242.566,309.568 242.232,310.901 242.5,312.5C 238.5,312.833 238.5,313.167 242.5,313.5C 243.156,317.336 244.156,320.669 245.5,323.5C 243.559,327.508 242.892,327.508 243.5,323.5C 242.833,323.167 242.167,322.833 241.5,322.5C 242.506,321.604 242.506,320.938 241.5,320.5C 240.262,324.311 239.596,324.311 239.5,320.5C 239.511,318.983 240.177,317.816 241.5,317C 240.282,315.584 238.949,315.751 237.5,317.5C 233.446,316.897 229.446,316.064 225.5,315C 224.333,314.5 223.5,313.667 223,312.5C 219.306,313.196 215.639,313.53 212,313.5C 211.544,312.256 212.044,311.423 213.5,311C 212.833,310.333 212.167,309.667 211.5,309C 211.598,305.618 211.598,302.451 211.5,299.5C 212.117,299.389 212.617,299.056 213,298.5C 213.98,300.259 214.647,301.926 215,303.5C 215.309,302.234 215.809,301.067 216.5,300C 215.288,298.893 215.621,298.393 217.5,298.5C 218.968,299.779 219.635,301.446 219.5,303.5C 220.552,303.649 221.552,303.483 222.5,303C 221.231,300.861 221.231,298.695 222.5,296.5C 225.421,295.593 228.421,295.26 231.5,295.5C 231.5,296.5 231.5,297.5 231.5,298.5C 229.131,298.149 226.797,297.982 224.5,298C 223.72,299.073 223.887,300.24 225,301.5C 228.146,302.83 231.146,304.496 234,306.5C 235.667,305.167 237.333,305.167 239,306.5C 240.067,305.809 241.234,305.309 242.5,305C 238.711,303.605 235.044,301.939 231.5,300C 233.283,298.268 235.283,296.768 237.5,295.5C 238.5,295.833 239.167,296.5 239.5,297.5C 238.339,299.224 238.505,300.89 240,302.5C 241.016,301.366 241.683,301.699 242,303.5C 241.527,300.028 242.027,296.695 243.5,293.5 Z"/></g>
<g><path style="opacity:1" fill="#2d832b" d="M 300.5,317.5 C 303.173,317.684 303.84,318.851 302.5,321C 304.392,321.973 306.392,322.64 308.5,323C 305.972,324.316 305.972,325.483 308.5,326.5C 312.908,325.481 316.241,323.814 318.5,321.5C 318.5,322.5 318.5,323.5 318.5,324.5C 317,326.179 315.167,327.512 313,328.5C 312.517,329.448 312.351,330.448 312.5,331.5C 310.097,331.448 307.764,331.781 305.5,332.5C 305.062,332.565 304.728,332.399 304.5,332C 306.007,331.163 306.507,329.996 306,328.5C 305.667,328.833 305.333,329.167 305,329.5C 303.199,326.215 300.365,324.381 296.5,324C 295.233,322.204 295.233,320.371 296.5,318.5C 295.086,317.376 293.586,316.376 292,315.5C 291.383,316.449 291.549,317.282 292.5,318C 291.737,318.944 290.737,319.444 289.5,319.5C 287.864,317.895 286.031,316.561 284,315.5C 282.634,315.706 281.301,316.04 280,316.5C 277.466,313.522 273.799,312.855 269,314.5C 265.582,313.693 262.249,312.693 259,311.5C 256.684,312.522 256.184,314.022 257.5,316C 256.756,317.039 255.756,317.539 254.5,317.5C 253.987,314.551 253.987,311.718 254.5,309C 251.59,307.827 250.923,305.994 252.5,303.5C 256.309,302.339 260.143,301.339 264,300.5C 265.816,301.329 267.649,302.163 269.5,303C 264.833,303.333 260.167,303.667 255.5,304C 254.216,305.297 254.383,306.464 256,307.5C 261.115,304.062 266.115,304.062 271,307.5C 271.406,305.221 272.739,303.887 275,303.5C 279.08,306.107 283.414,306.774 288,305.5C 289,308.167 290,310.833 291,313.5C 291.333,313.167 291.667,312.833 292,312.5C 294.029,315.596 296.862,317.262 300.5,317.5 Z"/></g>
<g><path style="opacity:1" fill="#22772c" d="M 190.5,283.5 C 189.294,285.437 189.627,287.104 191.5,288.5C 191.5,288.833 191.5,289.167 191.5,289.5C 191.5,290.833 191.5,292.167 191.5,293.5C 194.678,298.342 197.011,303.175 198.5,308C 196.095,309.515 196.428,310.682 199.5,311.5C 200.635,313.213 202.302,313.88 204.5,313.5C 205.5,313.5 206.5,313.5 207.5,313.5C 208.53,310.771 208.53,308.104 207.5,305.5C 207.5,305.167 207.5,304.833 207.5,304.5C 207.833,304.5 208.167,304.5 208.5,304.5C 209.147,303.726 209.48,302.726 209.5,301.5C 209.442,299.381 208.775,298.048 207.5,297.5C 207.328,296.508 207.662,295.842 208.5,295.5C 208.369,296.239 208.536,296.906 209,297.5C 211.159,295.044 211.992,295.71 211.5,299.5C 211.598,302.451 211.598,305.618 211.5,309C 212.167,309.667 212.833,310.333 213.5,311C 212.044,311.423 211.544,312.256 212,313.5C 215.639,313.53 219.306,313.196 223,312.5C 223.5,313.667 224.333,314.5 225.5,315C 229.446,316.064 233.446,316.897 237.5,317.5C 238.949,315.751 240.282,315.584 241.5,317C 240.177,317.816 239.511,318.983 239.5,320.5C 234.286,320.228 229.286,319.228 224.5,317.5C 222.098,318.512 219.931,319.179 218,319.5C 215.047,317.053 211.714,315.386 208,314.5C 206.03,315.123 204.03,316.123 202,317.5C 200.289,317.561 198.956,316.894 198,315.5C 197.333,316.833 196.667,318.167 196,319.5C 195,318.167 194,318.167 193,319.5C 191.885,318 191.052,316.333 190.5,314.5C 185.449,313.221 180.449,313.221 175.5,314.5C 176.087,313.233 176.087,312.233 175.5,311.5C 174.148,312.518 173.148,313.851 172.5,315.5C 169.885,313.833 168.052,311.5 167,308.5C 166.184,307.177 165.017,306.511 163.5,306.5C 163.5,305.167 163.5,303.833 163.5,302.5C 164.151,303.091 164.818,303.757 165.5,304.5C 166.65,302.237 167.65,299.904 168.5,297.5C 169.273,299.813 169.94,302.146 170.5,304.5C 171.325,305.386 172.325,305.719 173.5,305.5C 173.312,307.103 173.812,308.437 175,309.5C 177.213,308.24 179.713,307.574 182.5,307.5C 184.833,307.667 187.167,307.833 189.5,308C 190,308.5 190.5,309 191,309.5C 192.368,307.973 192.868,306.473 192.5,305C 189.5,304 186.5,303 183.5,302C 186.304,300.362 188.971,298.529 191.5,296.5C 191.218,292.267 189.718,291.6 187,294.5C 184.136,291.867 180.97,291.033 177.5,292C 180.167,291.333 180.167,290.667 177.5,290C 179.333,288.833 180.833,287.333 182,285.5C 182.236,287.119 183.069,288.119 184.5,288.5C 186.401,288.754 187.067,288.42 186.5,287.5C 185.737,286.732 184.737,286.232 183.5,286C 185.743,284.864 188.076,284.03 190.5,283.5 Z M 199.5,311.5 C 201.403,311.796 203.07,312.463 204.5,313.5C 202.302,313.88 200.635,313.213 199.5,311.5 Z"/></g>
<g><path style="opacity:1" fill="#2e6530" d="M 191.5,293.5 C 192.167,293.5 192.833,293.5 193.5,293.5C 194.167,293.5 194.5,293.833 194.5,294.5C 194.328,295.492 194.662,296.158 195.5,296.5C 195.833,297.833 196.167,297.833 196.5,296.5C 195.375,295.348 195.375,294.348 196.5,293.5C 197.784,296.402 198.784,299.402 199.5,302.5C 201.5,302.5 203.5,302.5 205.5,302.5C 205.402,300.447 206.069,298.78 207.5,297.5C 208.775,298.048 209.442,299.381 209.5,301.5C 209.48,302.726 209.147,303.726 208.5,304.5C 208.167,299.167 207.833,299.167 207.5,304.5C 206.167,304.833 206.167,305.167 207.5,305.5C 208.53,308.104 208.53,310.771 207.5,313.5C 206.5,313.5 205.5,313.5 204.5,313.5C 203.07,312.463 201.403,311.796 199.5,311.5C 196.428,310.682 196.095,309.515 198.5,308C 197.011,303.175 194.678,298.342 191.5,293.5 Z"/></g>
<g><path style="opacity:1" fill="#f9faf9" d="M 486.5,310.5 C 487.833,311.167 487.833,311.167 486.5,310.5 Z"/></g>
<g><path style="opacity:1" fill="#f9faf9" d="M 490.5,310.5 C 491.833,311.167 491.833,311.167 490.5,310.5 Z"/></g>
<g><path style="opacity:1" fill="#257c2a" d="M 305.5,332.5 C 306.091,333.151 306.757,333.818 307.5,334.5C 303.807,336.405 300.473,338.739 297.5,341.5C 295.266,341.38 293.099,341.713 291,342.5C 287.444,339.782 287.777,339.115 292,340.5C 293.28,340.387 294.113,339.72 294.5,338.5C 293.311,337.571 291.978,337.238 290.5,337.5C 290.67,336.178 290.337,335.011 289.5,334C 284.04,331.714 278.373,329.881 272.5,328.5C 272.26,329.837 271.76,331.503 271,333.5C 266.647,330.051 266.814,327.551 271.5,326C 271.333,325.5 271.167,325 271,324.5C 269.293,325.138 267.46,325.138 265.5,324.5C 265.723,327.114 264.556,328.781 262,329.5C 259.027,327.261 258.693,324.594 261,321.5C 262.247,323.881 262.58,323.547 262,320.5C 260.387,319.378 259.22,319.878 258.5,322C 257.552,322.483 256.552,322.649 255.5,322.5C 255.371,320.784 255.038,319.117 254.5,317.5C 255.756,317.539 256.756,317.039 257.5,316C 256.184,314.022 256.684,312.522 259,311.5C 262.249,312.693 265.582,313.693 269,314.5C 273.799,312.855 277.466,313.522 280,316.5C 281.301,316.04 282.634,315.706 284,315.5C 286.031,316.561 287.864,317.895 289.5,319.5C 290.737,319.444 291.737,318.944 292.5,318C 291.549,317.282 291.383,316.449 292,315.5C 293.586,316.376 295.086,317.376 296.5,318.5C 295.233,320.371 295.233,322.204 296.5,324C 300.365,324.381 303.199,326.215 305,329.5C 305.333,329.167 305.667,328.833 306,328.5C 306.507,329.996 306.007,331.163 304.5,332C 304.728,332.399 305.062,332.565 305.5,332.5 Z"/></g>
<g><path style="opacity:1" fill="#f9faf9" d="M 357.5,313.5 C 358.833,314.167 358.833,314.167 357.5,313.5 Z"/></g>
<g><path style="opacity:1" fill="#f9faf9" d="M 76.5,315.5 C 77.8333,316.167 77.8333,316.167 76.5,315.5 Z"/></g>
<g><path style="opacity:1" fill="#197529" d="M 243.5,308.5 C 244.285,314.701 245.619,320.701 247.5,326.5C 247.421,327.93 247.754,329.264 248.5,330.5C 247.753,330.736 246.92,331.07 246,331.5C 245.161,334.674 243.495,337.341 241,339.5C 238.745,337.501 236.245,336.168 233.5,335.5C 236.137,334.768 238.637,334.768 241,335.5C 240.954,333.687 241.12,332.021 241.5,330.5C 241.192,329.692 240.692,329.025 240,328.5C 239.207,333.99 236.54,334.99 232,331.5C 230.127,332.089 228.46,331.422 227,329.5C 222.966,330.972 219.133,330.472 215.5,328C 212.854,327.503 210.187,327.336 207.5,327.5C 207.67,326.178 207.337,325.011 206.5,324C 201.713,323.121 197.047,323.455 192.5,325C 191.663,326.011 191.33,327.178 191.5,328.5C 188.751,329.51 185.751,329.51 182.5,328.5C 182.481,326.94 182.148,325.44 181.5,324C 183.029,322.418 183.529,320.585 183,318.5C 180.382,317.262 177.715,317.262 175,318.5C 174.5,318.167 174,317.833 173.5,317.5C 174.193,316.482 174.859,315.482 175.5,314.5C 180.449,313.221 185.449,313.221 190.5,314.5C 191.052,316.333 191.885,318 193,319.5C 194,318.167 195,318.167 196,319.5C 196.667,318.167 197.333,316.833 198,315.5C 198.956,316.894 200.289,317.561 202,317.5C 204.03,316.123 206.03,315.123 208,314.5C 211.714,315.386 215.047,317.053 218,319.5C 219.931,319.179 222.098,318.512 224.5,317.5C 229.286,319.228 234.286,320.228 239.5,320.5C 239.596,324.311 240.262,324.311 241.5,320.5C 242.506,320.938 242.506,321.604 241.5,322.5C 242.167,322.833 242.833,323.167 243.5,323.5C 242.892,327.508 243.559,327.508 245.5,323.5C 244.156,320.669 243.156,317.336 242.5,313.5C 238.5,313.167 238.5,312.833 242.5,312.5C 242.232,310.901 242.566,309.568 243.5,308.5 Z"/></g>
<g><path style="opacity:1" fill="#2c7137" d="M 163.5,306.5 C 165.017,306.511 166.184,307.177 167,308.5C 168.052,311.5 169.885,313.833 172.5,315.5C 173.148,313.851 174.148,312.518 175.5,311.5C 176.087,312.233 176.087,313.233 175.5,314.5C 174.859,315.482 174.193,316.482 173.5,317.5C 174,317.833 174.5,318.167 175,318.5C 177.715,317.262 180.382,317.262 183,318.5C 183.529,320.585 183.029,322.418 181.5,324C 182.148,325.44 182.481,326.94 182.5,328.5C 185.751,329.51 188.751,329.51 191.5,328.5C 191.302,330.575 191.135,332.575 191,334.5C 195.433,337.466 199.933,340.132 204.5,342.5C 207.761,343.319 210.761,344.819 213.5,347C 215.473,347.495 217.473,347.662 219.5,347.5C 219.5,348.5 219.5,349.5 219.5,350.5C 194.963,343.295 176.296,328.629 163.5,306.5 Z"/></g>
<g><path style="opacity:1" fill="#f9faf9" d="M 11.5,321.5 C 12.8333,322.167 12.8333,322.167 11.5,321.5 Z"/></g>
<g><path style="opacity:1" fill="#17702a" d="M 233.5,335.5 C 230.813,335.336 228.146,335.503 225.5,336C 226.696,336.654 226.696,337.154 225.5,337.5C 223.401,334.016 220.901,333.682 218,336.5C 217.107,335.289 216.274,335.289 215.5,336.5C 218.107,337.318 220.774,337.818 223.5,338C 224.833,339 224.833,340 223.5,341C 221.047,341.738 218.547,342.238 216,342.5C 214.342,342.325 213.009,341.658 212,340.5C 209.772,342.113 207.272,342.78 204.5,342.5C 199.933,340.132 195.433,337.466 191,334.5C 191.135,332.575 191.302,330.575 191.5,328.5C 191.33,327.178 191.663,326.011 192.5,325C 197.047,323.455 201.713,323.121 206.5,324C 207.337,325.011 207.67,326.178 207.5,327.5C 210.187,327.336 212.854,327.503 215.5,328C 219.133,330.472 222.966,330.972 227,329.5C 228.46,331.422 230.127,332.089 232,331.5C 236.54,334.99 239.207,333.99 240,328.5C 240.692,329.025 241.192,329.692 241.5,330.5C 241.12,332.021 240.954,333.687 241,335.5C 238.637,334.768 236.137,334.768 233.5,335.5 Z"/></g>
<g><path style="opacity:1" fill="#287831" d="M 252.5,280.5 C 252.5,288.167 252.5,295.833 252.5,303.5C 250.923,305.994 251.59,307.827 254.5,309C 253.987,311.718 253.987,314.551 254.5,317.5C 255.038,319.117 255.371,320.784 255.5,322.5C 256.552,322.649 257.552,322.483 258.5,322C 259.22,319.878 260.387,319.378 262,320.5C 262.58,323.547 262.247,323.881 261,321.5C 258.693,324.594 259.027,327.261 262,329.5C 264.556,328.781 265.723,327.114 265.5,324.5C 267.46,325.138 269.293,325.138 271,324.5C 271.167,325 271.333,325.5 271.5,326C 266.814,327.551 266.647,330.051 271,333.5C 271.76,331.503 272.26,329.837 272.5,328.5C 278.373,329.881 284.04,331.714 289.5,334C 290.337,335.011 290.67,336.178 290.5,337.5C 291.978,337.238 293.311,337.571 294.5,338.5C 294.113,339.72 293.28,340.387 292,340.5C 287.777,339.115 287.444,339.782 291,342.5C 293.099,341.713 295.266,341.38 297.5,341.5C 290.092,345.715 282.092,347.382 273.5,346.5C 251.671,329.178 244.671,307.178 252.5,280.5 Z"/></g>
<g><path style="opacity:1" fill="#4b814d" d="M 334.5,308.5 C 321.526,328.635 303.693,342.635 281,350.5C 278.26,349.548 275.76,348.214 273.5,346.5C 282.092,347.382 290.092,345.715 297.5,341.5C 300.473,338.739 303.807,336.405 307.5,334.5C 306.757,333.818 306.091,333.151 305.5,332.5C 307.764,331.781 310.097,331.448 312.5,331.5C 312.351,330.448 312.517,329.448 313,328.5C 315.167,327.512 317,326.179 318.5,324.5C 320.512,323.659 321.845,322.159 322.5,320C 323.448,319.517 324.448,319.351 325.5,319.5C 325.238,318.022 325.571,316.689 326.5,315.5C 328.543,313.792 330.21,311.792 331.5,309.5C 332.325,308.614 333.325,308.281 334.5,308.5 Z"/></g>
<g><path style="opacity:1" fill="#18702c" d="M 247.5,326.5 C 249.062,326.733 250.395,327.4 251.5,328.5C 256.238,335.99 261.905,342.657 268.5,348.5C 268.539,349.583 268.873,350.583 269.5,351.5C 262.505,353.482 255.339,354.482 248,354.5C 241.835,354.067 235.668,353.733 229.5,353.5C 225.786,353.41 222.452,352.41 219.5,350.5C 219.5,349.5 219.5,348.5 219.5,347.5C 217.473,347.662 215.473,347.495 213.5,347C 210.761,344.819 207.761,343.319 204.5,342.5C 207.272,342.78 209.772,342.113 212,340.5C 213.009,341.658 214.342,342.325 216,342.5C 218.547,342.238 221.047,341.738 223.5,341C 224.833,340 224.833,339 223.5,338C 220.774,337.818 218.107,337.318 215.5,336.5C 216.274,335.289 217.107,335.289 218,336.5C 220.901,333.682 223.401,334.016 225.5,337.5C 226.696,337.154 226.696,336.654 225.5,336C 228.146,335.503 230.813,335.336 233.5,335.5C 236.245,336.168 238.745,337.501 241,339.5C 243.495,337.341 245.161,334.674 246,331.5C 246.92,331.07 247.753,330.736 248.5,330.5C 247.754,329.264 247.421,327.93 247.5,326.5 Z"/></g>
<g><path style="opacity:1" fill="#f9faf9" d="M 492.5,334.5 C 493.833,335.167 493.833,335.167 492.5,334.5 Z"/></g>
<g><path style="opacity:1" fill="#f9faf9" d="M 424.5,338.5 C 425.833,339.167 425.833,339.167 424.5,338.5 Z"/></g>
<g><path style="opacity:1" fill="#f9faf9" d="M 75.5,341.5 C 76.8333,342.167 76.8333,342.167 75.5,341.5 Z"/></g>
<g><path style="opacity:1" fill="#f9faf9" d="M 436.5,341.5 C 437.833,342.167 437.833,342.167 436.5,341.5 Z"/></g>
<g><path style="opacity:1" fill="#f9faf9" d="M 442.5,342.5 C 443.833,343.167 443.833,343.167 442.5,342.5 Z"/></g>
<g><path style="opacity:1" fill="#f9faf9" d="M 165.5,349.5 C 166.833,350.167 166.833,350.167 165.5,349.5 Z"/></g>
<g><path style="opacity:1" fill="#53865f" d="M 268.5,348.5 C 270.487,349.164 272.154,350.331 273.5,352C 273.167,352.333 272.833,352.667 272.5,353C 258.098,357.41 243.765,357.577 229.5,353.5C 235.668,353.733 241.835,354.067 248,354.5C 255.339,354.482 262.505,353.482 269.5,351.5C 268.873,350.583 268.539,349.583 268.5,348.5 Z"/></g>
<g><path style="opacity:1" fill="#f9faf9" d="M 153.5,368.5 C 154.833,369.167 154.833,369.167 153.5,368.5 Z"/></g>
<g><path style="opacity:1" fill="#f9faf9" d="M 223.5,368.5 C 224.833,369.167 224.833,369.167 223.5,368.5 Z"/></g>
<g><path style="opacity:1" fill="#f9faf9" d="M 167.5,375.5 C 168.833,376.167 168.833,376.167 167.5,375.5 Z"/></g>
<g><path style="opacity:1" fill="#f9faf9" d="M 128.5,376.5 C 129.833,377.167 129.833,377.167 128.5,376.5 Z"/></g>
<g><path style="opacity:1" fill="#f9faf9" d="M 200.5,376.5 C 201.833,377.167 201.833,377.167 200.5,376.5 Z"/></g>
<g><path style="opacity:1" fill="#f9faf9" d="M 253.5,385.5 C 254.833,386.167 254.833,386.167 253.5,385.5 Z"/></g>
<g><path style="opacity:1" fill="#f9faf9" d="M 315.5,391.5 C 316.833,392.167 316.833,392.167 315.5,391.5 Z"/></g>
<g><path style="opacity:1" fill="#f9faf9" d="M 315.5,396.5 C 316.833,397.167 316.833,397.167 315.5,396.5 Z"/></g>
<g><path style="opacity:1" fill="#f9faf9" d="M 156.5,405.5 C 157.833,406.167 157.833,406.167 156.5,405.5 Z"/></g>
<g><path style="opacity:1" fill="#f9faf9" d="M 178.5,406.5 C 179.833,407.167 179.833,407.167 178.5,406.5 Z"/></g>
<g><path style="opacity:1" fill="#f9faf9" d="M 239.5,412.5 C 240.833,413.167 240.833,413.167 239.5,412.5 Z"/></g>
<g><path style="opacity:1" fill="#f9faf9" d="M 16.5,414.5 C 17.8333,415.167 17.8333,415.167 16.5,414.5 Z"/></g>
<g><path style="opacity:1" fill="#f9faf9" d="M 82.5,424.5 C 83.8333,425.167 83.8333,425.167 82.5,424.5 Z"/></g>
<g><path style="opacity:1" fill="#f9faf9" d="M 86.5,439.5 C 87.8333,440.167 87.8333,440.167 86.5,439.5 Z"/></g>
<g><path style="opacity:1" fill="#f9faf9" d="M 126.5,442.5 C 127.833,443.167 127.833,443.167 126.5,442.5 Z"/></g>
<g><path style="opacity:1" fill="#f9faf9" d="M 459.5,453.5 C 460.833,454.167 460.833,454.167 459.5,453.5 Z"/></g>
<g><path style="opacity:1" fill="#f9faf9" d="M 230.5,457.5 C 231.833,458.167 231.833,458.167 230.5,457.5 Z"/></g>
<g><path style="opacity:1" fill="#f9faf9" d="M 345.5,458.5 C 346.833,459.167 346.833,459.167 345.5,458.5 Z"/></g>
<g><path style="opacity:1" fill="#f9faf9" d="M 182.5,464.5 C 183.833,465.167 183.833,465.167 182.5,464.5 Z"/></g>
<g><path style="opacity:1" fill="#f9faf9" d="M 269.5,470.5 C 270.833,471.167 270.833,471.167 269.5,470.5 Z"/></g>
<g><path style="opacity:1" fill="#f9faf9" d="M 25.5,472.5 C 26.8333,473.167 26.8333,473.167 25.5,472.5 Z"/></g>
<g><path style="opacity:1" fill="#f9faf9" d="M 221.5,473.5 C 222.833,474.167 222.833,474.167 221.5,473.5 Z"/></g>
<g><path style="opacity:1" fill="#f9faf9" d="M 422.5,478.5 C 423.833,479.167 423.833,479.167 422.5,478.5 Z"/></g>
<g><path style="opacity:1" fill="#f9faf9" d="M 262.5,485.5 C 263.833,486.167 263.833,486.167 262.5,485.5 Z"/></g>
</svg>
