<?xml version="1.0" encoding="UTF-8"?>
<!DOCTYPE svg PUBLIC "-//W3C//DTD SVG 1.1//EN" "http://www.w3.org/Graphics/SVG/1.1/DTD/svg11.dtd">
<svg xmlns="http://www.w3.org/2000/svg" version="1.1" width="500px" height="500px" style="shape-rendering:geometricPrecision; text-rendering:geometricPrecision; image-rendering:optimizeQuality; fill-rule:evenodd; clip-rule:evenodd" xmlns:xlink="http://www.w3.org/1999/xlink">
<g><path style="opacity:1" fill="#f9faf9" d="M 382.5,-0.5 C 382.833,-0.5 383.167,-0.5 383.5,-0.5C 383.315,0.170143 382.981,0.170143 382.5,-0.5 Z"/></g>
<g><path style="opacity:1" fill="#f9faf9" d="M 265.5,0.5 C 266.833,1.16667 266.833,1.16667 265.5,0.5 Z"/></g>
<g><path style="opacity:1" fill="#f9faf9" d="M 315.5,4.5 C 316.833,5.16667 316.833,5.16667 315.5,4.5 Z"/></g>
<g><path style="opacity:1" fill="#f9faf9" d="M 36.5,5.5 C 37.8333,6.16667 37.8333,6.16667 36.5,5.5 Z"/></g>
<g><path style="opacity:1" fill="#f9faf9" d="M 485.5,5.5 C 486.833,6.16667 486.833,6.16667 485.5,5.5 Z"/></g>
<g><path style="opacity:1" fill="#f9faf9" d="M 145.5,9.5 C 146.833,10.1667 146.833,10.1667 145.5,9.5 Z"/></g>
<g><path style="opacity:1" fill="#f9faf9" d="M 131.5,10.5 C 132.833,11.1667 132.833,11.1667 131.5,10.5 Z"/></g>
<g><path style="opacity:1" fill="#f9faf9" d="M 439.5,10.5 C 440.833,11.1667 440.833,11.1667 439.5,10.5 Z"/></g>
<g><path style="opacity:1" fill="#f9faf9" d="M 116.5,20.5 C 117.833,21.1667 117.833,21.1667 116.5,20.5 Z"/></g>
<g><path style="opacity:1" fill="#f9faf9" d="M 13.5,30.5 C 14.8333,31.1667 14.8333,31.1667 13.5,30.5 Z"/></g>
<g><path style="opacity:1" fill="#f9faf9" d="M 7.5,38.5 C 8.83333,39.1667 8.83333,39.1667 7.5,38.5 Z"/></g>
<g><path style="opacity:1" fill="#f9faf9" d="M 223.5,50.5 C 224.833,51.1667 224.833,51.1667 223.5,50.5 Z"/></g>
<g><path style="opacity:1" fill="#f9faf9" d="M 107.5,53.5 C 108.833,54.1667 108.833,54.1667 107.5,53.5 Z"/></g>
<g><path style="opacity:1" fill="#f9faf9" d="M 203.5,55.5 C 204.833,56.1667 204.833,56.1667 203.5,55.5 Z"/></g>
<g><path style="opacity:1" fill="#f9faf9" d="M 395.5,56.5 C 396.833,57.1667 396.833,57.1667 395.5,56.5 Z"/></g>
<g><path style="opacity:1" fill="#f9faf9" d="M 243.5,60.5 C 244.833,61.1667 244.833,61.1667 243.5,60.5 Z"/></g>
<g><path style="opacity:1" fill="#f9faf9" d="M 427.5,71.5 C 428.833,72.1667 428.833,72.1667 427.5,71.5 Z"/></g>
<g><path style="opacity:1" fill="#f9faf9" d="M 27.5,76.5 C 28.8333,77.1667 28.8333,77.1667 27.5,76.5 Z"/></g>
<g><path style="opacity:1" fill="#f9faf9" d="M 122.5,78.5 C 123.833,79.1667 123.833,79.1667 122.5,78.5 Z"/></g>
<g><path style="opacity:1" fill="#f9faf9" d="M 159.5,80.5 C 160.833,81.1667 160.833,81.1667 159.5,80.5 Z"/></g>
<g><path style="opacity:1" fill="#a7c176" d="M 271.5,102.5 C 266.725,102.67 266.392,103.67 270.5,105.5C 269.178,105.33 268.011,105.663 267,106.5C 263.365,121.843 253.865,127.343 238.5,123C 235.65,121.073 232.983,118.906 230.5,116.5C 229.004,112.647 227.338,108.981 225.5,105.5C 226.833,104.5 226.833,103.5 225.5,102.5C 231.47,85.3527 242.803,80.5193 259.5,88C 263.822,91.4626 266.155,95.9626 266.5,101.5C 268.415,101.216 270.081,101.549 271.5,102.5 Z M 236.5,116.5 C 239.044,116.896 241.211,116.229 243,114.5C 243.333,110.167 243.667,105.833 244,101.5C 246.738,100.518 249.572,99.8516 252.5,99.5C 252.5,101.5 252.5,103.5 252.5,105.5C 250.856,105.286 249.356,105.62 248,106.5C 246.333,113.167 248.667,115.167 255,112.5C 255.5,105.842 255.666,99.175 255.5,92.5C 250.591,93.6019 245.758,94.9352 241,96.5C 240.501,100.486 240.334,104.486 240.5,108.5C 236.167,108.167 234.167,110.167 234.5,114.5C 233.542,114.047 232.708,113.381 232,112.5C 228.251,101.67 231.417,93.5031 241.5,88C 259.144,86.9841 265.977,95.1508 262,112.5C 256.558,120.201 249.391,122.701 240.5,120C 238.907,119.051 237.574,117.885 236.5,116.5 Z"/></g>
<g><path style="opacity:1" fill="#f9faf9" d="M 488.5,89.5 C 489.833,90.1667 489.833,90.1667 488.5,89.5 Z"/></g>
<g><path style="opacity:1" fill="#f9faf9" d="M 196.5,93.5 C 197.833,94.1667 197.833,94.1667 196.5,93.5 Z"/></g>
<g><path style="opacity:1" fill="#3e7a47" d="M 236.5,116.5 C 236.5,115.833 236.167,115.5 235.5,115.5C 235.5,114.833 235.167,114.5 234.5,114.5C 234.167,110.167 236.167,108.167 240.5,108.5C 240.334,104.486 240.501,100.486 241,96.5C 245.758,94.9352 250.591,93.6019 255.5,92.5C 255.666,99.175 255.5,105.842 255,112.5C 248.667,115.167 246.333,113.167 248,106.5C 249.356,105.62 250.856,105.286 252.5,105.5C 252.5,103.5 252.5,101.5 252.5,99.5C 249.572,99.8516 246.738,100.518 244,101.5C 243.667,105.833 243.333,110.167 243,114.5C 241.211,116.229 239.044,116.896 236.5,116.5 Z"/></g>
<g><path style="opacity:1" fill="#f9faf9" d="M 64.5,100.5 C 65.8333,101.167 65.8333,101.167 64.5,100.5 Z"/></g>
<g><path style="opacity:1" fill="#398045" d="M 225.5,102.5 C 226.833,103.5 226.833,104.5 225.5,105.5C 224.833,106.833 223.833,107.833 222.5,108.5C 220.173,107.634 217.839,106.634 215.5,105.5C 217.075,103.886 217.741,101.886 217.5,99.5C 220.21,100.506 222.876,101.506 225.5,102.5 Z"/></g>
<g><path style="opacity:1" fill="#f9faf9" d="M 464.5,107.5 C 465.833,108.167 465.833,108.167 464.5,107.5 Z"/></g>
<g><path style="opacity:1" fill="#52845e" d="M 215.5,105.5 C 217.839,106.634 220.173,107.634 222.5,108.5C 220.734,112.156 218.734,112.156 216.5,108.5C 169.579,124.091 140.912,156.091 130.5,204.5C 129.849,205.091 129.182,205.757 128.5,206.5C 127.702,206.043 127.369,205.376 127.5,204.5C 136.398,158.442 162.398,126.276 205.5,108C 208.777,106.857 212.11,106.023 215.5,105.5 Z"/></g>
<g><path style="opacity:1" fill="#f9faf9" d="M 407.5,111.5 C 408.833,112.167 408.833,112.167 407.5,111.5 Z"/></g>
<g><path style="opacity:1" fill="#f9faf9" d="M 401.5,112.5 C 402.833,113.167 402.833,113.167 401.5,112.5 Z"/></g>
<g><path style="opacity:1" fill="#f9faf9" d="M 291.5,114.5 C 292.833,115.167 292.833,115.167 291.5,114.5 Z"/></g>
<g><path style="opacity:1" fill="#f9faf9" d="M 412.5,116.5 C 413.833,117.167 413.833,117.167 412.5,116.5 Z"/></g>
<g><path style="opacity:1" fill="#f9faf9" d="M 30.5,117.5 C 31.8333,118.167 31.8333,118.167 30.5,117.5 Z"/></g>
<g><path style="opacity:1" fill="#f9faf9" d="M 260.5,121.5 C 261.833,122.167 261.833,122.167 260.5,121.5 Z"/></g>
<g><path style="opacity:1" fill="#f9faf9" d="M 487.5,121.5 C 488.833,122.167 488.833,122.167 487.5,121.5 Z"/></g>
<g><path style="opacity:1" fill="#f9faf9" d="M 188.5,123.5 C 189.833,124.167 189.833,124.167 188.5,123.5 Z"/></g>
<g><path style="opacity:1" fill="#f9faf9" d="M 203.5,125.5 C 204.833,126.167 204.833,126.167 203.5,125.5 Z"/></g>
<g><path style="opacity:1" fill="#548562" d="M 271.5,102.5 C 320.407,112.897 352.907,141.897 369,189.5C 370.011,188.663 371.178,188.33 372.5,188.5C 372.146,192.23 370.813,195.563 368.5,198.5C 365.559,196.213 362.892,193.713 360.5,191C 361.793,190.51 363.127,190.343 364.5,190.5C 351.519,150.018 324.852,122.851 284.5,109C 279.885,107.52 275.219,106.353 270.5,105.5C 266.392,103.67 266.725,102.67 271.5,102.5 Z"/></g>
<g><path style="opacity:1" fill="#f9faf9" d="M 181.5,132.5 C 182.833,133.167 182.833,133.167 181.5,132.5 Z"/></g>
<g><path style="opacity:1" fill="#f9faf9" d="M 470.5,132.5 C 471.833,133.167 471.833,133.167 470.5,132.5 Z"/></g>
<g><path style="opacity:1" fill="#f9faf9" d="M 247.5,136.5 C 248.833,137.167 248.833,137.167 247.5,136.5 Z"/></g>
<g><path style="opacity:1" fill="#f9faf9" d="M 406.5,140.5 C 407.833,141.167 407.833,141.167 406.5,140.5 Z"/></g>
<g><path style="opacity:1" fill="#f9faf9" d="M 438.5,140.5 C 439.833,141.167 439.833,141.167 438.5,140.5 Z"/></g>
<g><path style="opacity:1" fill="#f9faf9" d="M 248.5,162.5 C 249.833,163.167 249.833,163.167 248.5,162.5 Z"/></g>
<g><path style="opacity:1" fill="#f9faf9" d="M 241.5,175.5 C 242.833,176.167 242.833,176.167 241.5,175.5 Z"/></g>
<g><path style="opacity:1" fill="#f9faf9" d="M 295.5,187.5 C 296.833,188.167 296.833,188.167 295.5,187.5 Z"/></g>
<g><path style="opacity:1" fill="#abc865" d="M 232.5,183.5 C 238.433,185.917 243.766,189.25 248.5,193.5C 244.007,191.837 239.674,189.837 235.5,187.5C 233.712,186.717 232.712,185.384 232.5,183.5 Z"/></g>
<g><path style="opacity:1" fill="#87bd31" d="M 232.5,183.5 C 232.712,185.384 233.712,186.717 235.5,187.5C 239.674,189.837 244.007,191.837 248.5,193.5C 254.446,195.471 259.779,198.471 264.5,202.5C 264.821,204.048 265.821,204.715 267.5,204.5C 267.34,206.199 267.506,207.866 268,209.5C 269.588,207.032 271.422,206.866 273.5,209C 273.167,209.333 272.833,209.667 272.5,210C 275.699,210.401 278.699,211.234 281.5,212.5C 281.548,215.635 283.215,217.302 286.5,217.5C 286.291,218.086 285.957,218.586 285.5,219C 286.672,219.419 287.672,220.085 288.5,221C 287.289,222.113 287.289,223.28 288.5,224.5C 286.239,226.992 283.406,228.658 280,229.5C 276.577,226.52 272.743,225.853 268.5,227.5C 254.245,225.771 241.412,221.437 230,214.5C 229.667,215.167 229.333,215.833 229,216.5C 227.301,215.594 225.467,215.261 223.5,215.5C 222.698,214.048 222.198,212.382 222,210.5C 220.324,211.061 218.991,212.061 218,213.5C 217.814,210.964 217.314,208.631 216.5,206.5C 216.334,198.493 216.5,190.493 217,182.5C 218.299,181.02 219.966,180.354 222,180.5C 225.596,181.394 229.096,182.394 232.5,183.5 Z"/></g>
<g><path style="opacity:1" fill="#f9faf9" d="M 289.5,210.5 C 290.833,211.167 290.833,211.167 289.5,210.5 Z"/></g>
<g><path style="opacity:1" fill="#80b637" d="M 264.5,202.5 C 275.09,207.77 285.423,213.437 295.5,219.5C 297.097,222.319 297.597,225.319 297,228.5C 294.233,231.118 291.4,233.451 288.5,235.5C 285.709,237.735 282.709,239.735 279.5,241.5C 280.764,239.065 282.597,237.065 285,235.5C 285.456,234.256 284.956,233.423 283.5,233C 283.833,232.667 284.167,232.333 284.5,232C 279.795,231.838 275.128,232.338 270.5,233.5C 265.129,232.899 259.796,232.066 254.5,231C 244.02,226.042 233.687,220.876 223.5,215.5C 225.467,215.261 227.301,215.594 229,216.5C 229.333,215.833 229.667,215.167 230,214.5C 241.412,221.437 254.245,225.771 268.5,227.5C 272.743,225.853 276.577,226.52 280,229.5C 283.406,228.658 286.239,226.992 288.5,224.5C 287.289,223.28 287.289,222.113 288.5,221C 287.672,220.085 286.672,219.419 285.5,219C 285.957,218.586 286.291,218.086 286.5,217.5C 283.215,217.302 281.548,215.635 281.5,212.5C 278.699,211.234 275.699,210.401 272.5,210C 272.833,209.667 273.167,209.333 273.5,209C 271.422,206.866 269.588,207.032 268,209.5C 267.506,207.866 267.34,206.199 267.5,204.5C 265.821,204.715 264.821,204.048 264.5,202.5 Z"/></g>
<g><path style="opacity:1" fill="#81ad48" d="M 232.5,183.5 C 229.096,182.394 225.596,181.394 222,180.5C 219.966,180.354 218.299,181.02 217,182.5C 216.5,190.493 216.334,198.493 216.5,206.5C 216.5,212.833 216.5,219.167 216.5,225.5C 216.5,229.5 216.5,233.5 216.5,237.5C 215.503,220.008 215.17,202.341 215.5,184.5C 215.848,180.655 218.015,178.655 222,178.5C 225.883,179.526 229.383,181.193 232.5,183.5 Z"/></g>
<g><path style="opacity:1" fill="#a9c178" d="M 127.5,204.5 C 127.369,205.376 127.702,206.043 128.5,206.5C 129.182,205.757 129.849,205.091 130.5,204.5C 137.511,206.652 143.011,210.985 147,217.5C 150.412,233.009 144.412,242.675 129,246.5C 113.497,244.666 106.497,236 108,220.5C 111.09,210.903 117.59,205.569 127.5,204.5 Z M 142.5,232.5 C 142.68,226.338 141.013,220.838 137.5,216C 134.289,215.202 131.289,215.702 128.5,217.5C 118.839,213.465 113.839,216.798 113.5,227.5C 112.698,228.952 112.198,230.618 112,232.5C 108.58,221.584 112.08,213.75 122.5,209C 138.848,207.682 146.015,215.182 144,231.5C 143.617,232.056 143.117,232.389 142.5,232.5 Z M 139.5,236.5 C 139.938,236.435 140.272,236.601 140.5,237C 134.755,242.556 128.088,243.89 120.5,241C 118.34,240.004 116.673,238.504 115.5,236.5C 119.155,236.528 121.822,234.861 123.5,231.5C 129.001,229.158 133.001,230.658 135.5,236C 136.793,236.49 138.127,236.657 139.5,236.5 Z M 121.5,221.5 C 122.776,222.386 122.776,223.386 121.5,224.5C 120.438,223.575 120.438,222.575 121.5,221.5 Z"/></g>
<g><path style="opacity:1" fill="#f9faf9" d="M 315.5,224.5 C 316.833,225.167 316.833,225.167 315.5,224.5 Z"/></g>
<g><path style="opacity:1" fill="#f9faf9" d="M 473.5,225.5 C 474.833,226.167 474.833,226.167 473.5,225.5 Z"/></g>
<g><path style="opacity:1" fill="#9fc171" d="M 295.5,219.5 C 296.458,219.953 297.292,220.619 298,221.5C 298.667,224.5 298.667,227.5 298,230.5C 295.174,232.829 292.008,234.496 288.5,235.5C 291.4,233.451 294.233,231.118 297,228.5C 297.597,225.319 297.097,222.319 295.5,219.5 Z"/></g>
<g><path style="opacity:1" fill="#f9faf9" d="M 202.5,232.5 C 203.833,233.167 203.833,233.167 202.5,232.5 Z"/></g>
<g><path style="opacity:1" fill="#f9faf9" d="M 23.5,233.5 C 24.8333,234.167 24.8333,234.167 23.5,233.5 Z"/></g>
<g><path style="opacity:1" fill="#71b032" d="M 216.5,206.5 C 217.314,208.631 217.814,210.964 218,213.5C 218.991,212.061 220.324,211.061 222,210.5C 222.198,212.382 222.698,214.048 223.5,215.5C 233.687,220.876 244.02,226.042 254.5,231C 259.796,232.066 265.129,232.899 270.5,233.5C 275.128,232.338 279.795,231.838 284.5,232C 284.167,232.333 283.833,232.667 283.5,233C 284.956,233.423 285.456,234.256 285,235.5C 282.597,237.065 280.764,239.065 279.5,241.5C 279.167,241.5 278.833,241.5 278.5,241.5C 271.032,244.958 263.365,247.958 255.5,250.5C 255.082,249.778 254.416,249.278 253.5,249C 254.167,248.667 254.833,248.333 255.5,248C 250.28,243.39 244.28,240.39 237.5,239C 233.129,236.484 228.796,233.984 224.5,231.5C 223.808,232.025 223.308,232.692 223,233.5C 220.697,230.594 219.363,227.594 219,224.5C 218.667,224.167 218.333,223.833 218,223.5C 217.722,224.416 217.222,225.082 216.5,225.5C 216.5,219.167 216.5,212.833 216.5,206.5 Z"/></g>
<g><path style="opacity:1" fill="#2b7637" d="M 142.5,232.5 C 141.853,234.141 140.853,235.474 139.5,236.5C 138.127,236.657 136.793,236.49 135.5,236C 133.001,230.658 129.001,229.158 123.5,231.5C 121.822,234.861 119.155,236.528 115.5,236.5C 113.758,233.855 113.091,230.855 113.5,227.5C 113.839,216.798 118.839,213.465 128.5,217.5C 131.289,215.702 134.289,215.202 137.5,216C 141.013,220.838 142.68,226.338 142.5,232.5 Z M 121.5,221.5 C 120.438,222.575 120.438,223.575 121.5,224.5C 122.776,223.386 122.776,222.386 121.5,221.5 Z"/></g>
<g><path style="opacity:1" fill="#f9faf9" d="M 104.5,238.5 C 105.833,239.167 105.833,239.167 104.5,238.5 Z"/></g>
<g><path style="opacity:1" fill="#5aa433" d="M 255.5,250.5 C 255.5,251.833 255.5,253.167 255.5,254.5C 254.127,254.343 252.793,254.51 251.5,255C 250.922,256.417 249.922,257.25 248.5,257.5C 246.628,258.795 244.962,258.628 243.5,257C 246.167,256.333 246.167,255.667 243.5,255C 241.765,254.349 240.098,254.515 238.5,255.5C 235.681,252.925 232.681,250.592 229.5,248.5C 227.899,249.165 226.399,249.499 225,249.5C 224,248.167 223,246.833 222,245.5C 221.149,248.612 219.983,248.946 218.5,246.5C 218.417,244.264 218.75,241.93 219.5,239.5C 218.867,237.481 217.867,237.147 216.5,238.5C 216.5,238.167 216.5,237.833 216.5,237.5C 216.5,233.5 216.5,229.5 216.5,225.5C 217.222,225.082 217.722,224.416 218,223.5C 218.333,223.833 218.667,224.167 219,224.5C 219.363,227.594 220.697,230.594 223,233.5C 223.308,232.692 223.808,232.025 224.5,231.5C 228.796,233.984 233.129,236.484 237.5,239C 244.28,240.39 250.28,243.39 255.5,248C 254.833,248.333 254.167,248.667 253.5,249C 254.416,249.278 255.082,249.778 255.5,250.5 Z"/></g>
<g><path style="opacity:1" fill="#81b05a" d="M 278.5,241.5 C 268.784,247.863 258.784,253.863 248.5,259.5C 248.5,258.833 248.5,258.167 248.5,257.5C 249.922,257.25 250.922,256.417 251.5,255C 252.793,254.51 254.127,254.343 255.5,254.5C 255.5,253.167 255.5,251.833 255.5,250.5C 263.365,247.958 271.032,244.958 278.5,241.5 Z"/></g>
<g><path style="opacity:1" fill="#f9faf9" d="M 342.5,248.5 C 343.833,249.167 343.833,249.167 342.5,248.5 Z"/></g>
<g><path style="opacity:1" fill="#f9faf9" d="M 388.5,251.5 C 389.833,252.167 389.833,252.167 388.5,251.5 Z"/></g>
<g><path style="opacity:1" fill="#f9faf9" d="M 407.5,251.5 C 408.833,252.167 408.833,252.167 407.5,251.5 Z"/></g>
<g><path style="opacity:1" fill="#f9faf9" d="M 445.5,252.5 C 446.833,253.167 446.833,253.167 445.5,252.5 Z"/></g>
<g><path style="opacity:1" fill="#31763e" d="M 137.5,256.5 C 136.167,256.5 134.833,256.5 133.5,256.5C 133.367,259.896 132.367,260.229 130.5,257.5C 129.893,257.624 129.56,257.957 129.5,258.5C 127.824,257.817 127.157,256.483 127.5,254.5C 128.089,248.946 130.423,248.112 134.5,252C 136.141,253.129 137.141,254.629 137.5,256.5 Z"/></g>
<g><path style="opacity:1" fill="#538661" d="M 273.5,342.5 C 272.167,341.5 272.167,340.5 273.5,339.5C 274.684,337.153 276.351,335.153 278.5,333.5C 279.281,334.729 279.781,336.062 280,337.5C 321.403,324.43 349.403,297.43 364,256.5C 365.446,252.278 366.28,247.945 366.5,243.5C 353.707,240.537 348.207,232.537 350,219.5C 357.1,203.531 368.267,200.031 383.5,209C 390.491,217.539 391.324,226.705 386,236.5C 381.847,240.743 376.847,243.41 371,244.5C 359.05,292.777 329.55,324.611 282.5,340C 281.897,341.825 281.23,343.659 280.5,345.5C 278.115,344.339 275.781,343.339 273.5,342.5 Z M 382.5,213.5 C 389.263,222.37 388.263,230.536 379.5,238C 370.785,242.989 362.951,241.822 356,234.5C 350.099,222.813 352.933,213.98 364.5,208C 371.776,206.15 377.776,207.984 382.5,213.5 Z M 365.5,229.5 C 366.289,229.783 366.956,230.283 367.5,231C 366.184,231.528 365.517,231.028 365.5,229.5 Z"/></g>
<g><path style="opacity:1" fill="#2c793f" d="M 382.5,213.5 C 383.573,219.115 383.74,224.782 383,230.5C 374.942,238.033 366.609,238.366 358,231.5C 357.333,225.833 357.333,220.167 358,214.5C 361.554,211.868 365.554,210.201 370,209.5C 374.154,210.94 378.32,212.274 382.5,213.5 Z M 365.5,229.5 C 365.517,231.028 366.184,231.528 367.5,231C 366.956,230.283 366.289,229.783 365.5,229.5 Z"/></g>
<g><path style="opacity:1" fill="#71a468" d="M 215.5,184.5 C 215.17,202.341 215.503,220.008 216.5,237.5C 216.5,237.833 216.5,238.167 216.5,238.5C 216.334,248.839 216.5,259.172 217,269.5C 220.321,270.971 223.821,271.637 227.5,271.5C 227.5,270.5 227.5,269.5 227.5,268.5C 229.167,268.5 230.833,268.5 232.5,268.5C 229.691,271.512 226.191,273.512 222,274.5C 218.446,273.894 216.112,271.894 215,268.5C 214.17,240.33 214.336,212.33 215.5,184.5 Z"/></g>
<g><path style="opacity:1" fill="#9db0a0" d="M 127.5,254.5 C 127.157,256.483 127.824,257.817 129.5,258.5C 128.292,259.782 126.958,259.782 125.5,258.5C 125.994,256.974 126.661,255.641 127.5,254.5 Z"/></g>
<g><path style="opacity:1" fill="#6a9c60" d="M 247.5,259.5 C 242.973,263.265 237.973,266.265 232.5,268.5C 233.174,266.976 234.174,265.642 235.5,264.5C 239.537,262.764 243.537,261.097 247.5,259.5 Z"/></g>
<g><path style="opacity:1" fill="#f9faf9" d="M 421.5,263.5 C 422.833,264.167 422.833,264.167 421.5,263.5 Z"/></g>
<g><path style="opacity:1" fill="#409534" d="M 248.5,257.5 C 248.5,258.167 248.5,258.833 248.5,259.5C 248.167,259.5 247.833,259.5 247.5,259.5C 243.537,261.097 239.537,262.764 235.5,264.5C 234.174,265.642 233.174,266.976 232.5,268.5C 230.833,268.5 229.167,268.5 227.5,268.5C 227.5,269.5 227.5,270.5 227.5,271.5C 223.821,271.637 220.321,270.971 217,269.5C 216.5,259.172 216.334,248.839 216.5,238.5C 217.867,237.147 218.867,237.481 219.5,239.5C 218.75,241.93 218.417,244.264 218.5,246.5C 219.983,248.946 221.149,248.612 222,245.5C 223,246.833 224,248.167 225,249.5C 226.399,249.499 227.899,249.165 229.5,248.5C 232.681,250.592 235.681,252.925 238.5,255.5C 240.098,254.515 241.765,254.349 243.5,255C 246.167,255.667 246.167,256.333 243.5,257C 244.962,258.628 246.628,258.795 248.5,257.5 Z"/></g>
<g><path style="opacity:1" fill="#f9faf9" d="M 423.5,269.5 C 424.833,270.167 424.833,270.167 423.5,269.5 Z"/></g>
<g><path style="opacity:1" fill="#f9faf9" d="M 222.5,275.5 C 223.833,276.167 223.833,276.167 222.5,275.5 Z"/></g>
<g><path style="opacity:1" fill="#f9faf9" d="M 447.5,277.5 C 448.833,278.167 448.833,278.167 447.5,277.5 Z"/></g>
<g><path style="opacity:1" fill="#f9faf9" d="M 166.5,279.5 C 167.833,280.167 167.833,280.167 166.5,279.5 Z"/></g>
<g><path style="opacity:1" fill="#f9faf9" d="M 170.5,292.5 C 171.833,293.167 171.833,293.167 170.5,292.5 Z"/></g>
<g><path style="opacity:1" fill="#f9faf9" d="M 174.5,307.5 C 175.833,308.167 175.833,308.167 174.5,307.5 Z"/></g>
<g><path style="opacity:1" fill="#51835e" d="M 137.5,256.5 C 136.791,257.404 135.791,257.737 134.5,257.5C 150.393,303.057 182.06,330.39 229.5,339.5C 229.5,340.5 229.5,341.5 229.5,342.5C 228.5,342.5 227.5,342.5 226.5,342.5C 189.336,334.835 160.836,314.835 141,282.5C 136.864,274.561 133.03,266.561 129.5,258.5C 129.56,257.957 129.893,257.624 130.5,257.5C 132.367,260.229 133.367,259.896 133.5,256.5C 134.833,256.5 136.167,256.5 137.5,256.5 Z"/></g>
<g><path style="opacity:1" fill="#f9faf9" d="M 210.5,313.5 C 211.833,314.167 211.833,314.167 210.5,313.5 Z"/></g>
<g><path style="opacity:1" fill="#f9faf9" d="M 166.5,322.5 C 167.833,323.167 167.833,323.167 166.5,322.5 Z"/></g>
<g><path style="opacity:1" fill="#a8c17a" d="M 273.5,339.5 C 272.167,340.5 272.167,341.5 273.5,342.5C 268.891,358.145 258.557,363.978 242.5,360C 235.202,356.906 231.202,351.406 230.5,343.5C 228.901,343.768 227.568,343.434 226.5,342.5C 227.5,342.5 228.5,342.5 229.5,342.5C 229.5,341.5 229.5,340.5 229.5,339.5C 230.893,326.607 238.06,319.607 251,318.5C 263.852,319.854 271.352,326.854 273.5,339.5 Z M 249.5,321.5 C 265.915,323.666 271.748,332.666 267,348.5C 260.827,358.443 252.327,360.943 241.5,356C 233.124,348.604 231.29,339.771 236,329.5C 239.617,325.116 244.117,322.45 249.5,321.5 Z M 257.5,333.5 C 257.5,334.167 257.833,334.5 258.5,334.5C 258.44,335.043 258.107,335.376 257.5,335.5C 256.227,334.743 256.227,334.077 257.5,333.5 Z M 248.5,332.5 C 249.368,330.375 250.368,330.209 251.5,332C 250.824,333.683 249.824,333.85 248.5,332.5 Z"/></g>
<g><path style="opacity:1" fill="#f9faf9" d="M 42.5,326.5 C 43.8333,327.167 43.8333,327.167 42.5,326.5 Z"/></g>
<g><path style="opacity:1" fill="#4c8858" d="M 256.5,341.5 C 257.234,340.292 257.567,338.959 257.5,337.5C 258.833,337.5 260.167,337.5 261.5,337.5C 261.785,335.712 261.452,334.045 260.5,332.5C 259.478,332.855 258.811,333.522 258.5,334.5C 257.833,334.5 257.5,334.167 257.5,333.5C 258.494,329.647 256.994,328.647 253,330.5C 252.667,332.167 252.333,333.833 252,335.5C 250.271,335.026 249.105,334.026 248.5,332.5C 247.226,331.811 247.226,330.977 248.5,330C 247.756,328.961 246.756,328.461 245.5,328.5C 251.126,325.884 256.46,326.551 261.5,330.5C 264.52,336.135 262.853,339.801 256.5,341.5 Z M 257.5,333.5 C 257.5,334.167 257.833,334.5 258.5,334.5C 258.44,335.043 258.107,335.376 257.5,335.5C 256.227,334.743 256.227,334.077 257.5,333.5 Z M 248.5,332.5 C 249.824,333.85 250.824,333.683 251.5,332C 250.368,330.209 249.368,330.375 248.5,332.5 Z"/></g>
<g><path style="opacity:1" fill="#588e5f" d="M 243.5,329.5 C 242.067,331.518 242.401,333.185 244.5,334.5C 245.686,335.705 245.686,337.039 244.5,338.5C 242.565,337.85 240.565,337.517 238.5,337.5C 238.5,339.167 238.5,340.833 238.5,342.5C 238.227,344.451 238.893,345.951 240.5,347C 239.944,347.383 239.611,347.883 239.5,348.5C 235.558,343.312 235.558,337.978 239.5,332.5C 240.588,331.066 241.922,330.066 243.5,329.5 Z"/></g>
<g><path style="opacity:1" fill="#f9faf9" d="M 84.5,335.5 C 85.8333,336.167 85.8333,336.167 84.5,335.5 Z"/></g>
<g><path style="opacity:1" fill="#287635" d="M 245.5,328.5 C 246.756,328.461 247.756,328.961 248.5,330C 247.226,330.977 247.226,331.811 248.5,332.5C 249.105,334.026 250.271,335.026 252,335.5C 252.333,333.833 252.667,332.167 253,330.5C 256.994,328.647 258.494,329.647 257.5,333.5C 256.227,334.077 256.227,334.743 257.5,335.5C 258.107,335.376 258.44,335.043 258.5,334.5C 258.811,333.522 259.478,332.855 260.5,332.5C 261.452,334.045 261.785,335.712 261.5,337.5C 260.167,337.5 258.833,337.5 257.5,337.5C 257.567,338.959 257.234,340.292 256.5,341.5C 256.5,342.833 257.167,343.5 258.5,343.5C 259.369,345.717 259.702,348.05 259.5,350.5C 252.067,356.205 245.401,355.538 239.5,348.5C 239.611,347.883 239.944,347.383 240.5,347C 238.893,345.951 238.227,344.451 238.5,342.5C 238.833,342.5 239.167,342.5 239.5,342.5C 239.427,344.027 240.094,345.027 241.5,345.5C 243.438,347.332 245.105,349.332 246.5,351.5C 247.5,351.5 248.5,351.5 249.5,351.5C 252.127,350.908 254.794,350.575 257.5,350.5C 257.33,349.178 257.663,348.011 258.5,347C 256.913,346.138 255.246,345.471 253.5,345C 252.359,344.259 252.359,343.425 253.5,342.5C 250.95,342.941 248.283,342.941 245.5,342.5C 247.792,340.742 250.459,339.576 253.5,339C 254.833,338.333 254.833,337.667 253.5,337C 250.319,336.403 247.319,336.903 244.5,338.5C 245.686,337.039 245.686,335.705 244.5,334.5C 242.401,333.185 242.067,331.518 243.5,329.5C 243.842,328.662 244.508,328.328 245.5,328.5 Z M 257.5,333.5 C 257.5,334.167 257.833,334.5 258.5,334.5C 258.44,335.043 258.107,335.376 257.5,335.5C 256.227,334.743 256.227,334.077 257.5,333.5 Z M 248.5,332.5 C 249.824,333.85 250.824,333.683 251.5,332C 250.368,330.209 249.368,330.375 248.5,332.5 Z"/></g>
<g><path style="opacity:1" fill="#f9faf9" d="M 88.5,336.5 C 89.8333,337.167 89.8333,337.167 88.5,336.5 Z"/></g>
<g><path style="opacity:1" fill="#f9faf9" d="M 147.5,343.5 C 148.833,344.167 148.833,344.167 147.5,343.5 Z"/></g>
<g><path style="opacity:1" fill="#82ce4b" d="M 241.5,345.5 C 240.094,345.027 239.427,344.027 239.5,342.5C 242.808,340.716 244.475,341.716 244.5,345.5C 243.5,345.5 242.5,345.5 241.5,345.5 Z"/></g>
<g><path style="opacity:1" fill="#6a9071" d="M 258.5,343.5 C 260.346,343.222 261.68,343.889 262.5,345.5C 262.043,347.598 261.043,349.264 259.5,350.5C 259.702,348.05 259.369,345.717 258.5,343.5 Z"/></g>
<g><path style="opacity:1" fill="#f9faf9" d="M 405.5,347.5 C 406.833,348.167 406.833,348.167 405.5,347.5 Z"/></g>
<g><path style="opacity:1" fill="#187523" d="M 249.5,351.5 C 251.111,349.167 250.611,347.5 248,346.5C 245.389,347.5 244.889,349.167 246.5,351.5C 245.105,349.332 243.438,347.332 241.5,345.5C 242.5,345.5 243.5,345.5 244.5,345.5C 244.475,341.716 242.808,340.716 239.5,342.5C 239.167,342.5 238.833,342.5 238.5,342.5C 238.5,340.833 238.5,339.167 238.5,337.5C 240.565,337.517 242.565,337.85 244.5,338.5C 247.319,336.903 250.319,336.403 253.5,337C 254.833,337.667 254.833,338.333 253.5,339C 250.459,339.576 247.792,340.742 245.5,342.5C 248.283,342.941 250.95,342.941 253.5,342.5C 252.359,343.425 252.359,344.259 253.5,345C 255.246,345.471 256.913,346.138 258.5,347C 257.663,348.011 257.33,349.178 257.5,350.5C 254.794,350.575 252.127,350.908 249.5,351.5 Z"/></g>
<g><path style="opacity:1" fill="#81ce4d" d="M 249.5,351.5 C 248.5,351.5 247.5,351.5 246.5,351.5C 244.889,349.167 245.389,347.5 248,346.5C 250.611,347.5 251.111,349.167 249.5,351.5 Z"/></g>
<g><path style="opacity:1" fill="#f9faf9" d="M 89.5,351.5 C 90.8333,352.167 90.8333,352.167 89.5,351.5 Z"/></g>
<g><path style="opacity:1" fill="#f9faf9" d="M 50.5,359.5 C 51.8333,360.167 51.8333,360.167 50.5,359.5 Z"/></g>
<g><path style="opacity:1" fill="#f9faf9" d="M 175.5,360.5 C 176.833,361.167 176.833,361.167 175.5,360.5 Z"/></g>
<g><path style="opacity:1" fill="#f9faf9" d="M 437.5,361.5 C 438.833,362.167 438.833,362.167 437.5,361.5 Z"/></g>
<g><path style="opacity:1" fill="#f9faf9" d="M 11.5,366.5 C 12.8333,367.167 12.8333,367.167 11.5,366.5 Z"/></g>
<g><path style="opacity:1" fill="#f9faf9" d="M 85.5,366.5 C 86.8333,367.167 86.8333,367.167 85.5,366.5 Z"/></g>
<g><path style="opacity:1" fill="#f9faf9" d="M 292.5,367.5 C 293.833,368.167 293.833,368.167 292.5,367.5 Z"/></g>
<g><path style="opacity:1" fill="#f9faf9" d="M 94.5,374.5 C 95.8333,375.167 95.8333,375.167 94.5,374.5 Z"/></g>
<g><path style="opacity:1" fill="#f9faf9" d="M 315.5,374.5 C 316.833,375.167 316.833,375.167 315.5,374.5 Z"/></g>
<g><path style="opacity:1" fill="#f9faf9" d="M 87.5,380.5 C 88.8333,381.167 88.8333,381.167 87.5,380.5 Z"/></g>
<g><path style="opacity:1" fill="#f9faf9" d="M 123.5,382.5 C 124.833,383.167 124.833,383.167 123.5,382.5 Z"/></g>
<g><path style="opacity:1" fill="#7a9757" d="M 267.5,381.5 C 268.167,381.5 268.833,381.5 269.5,381.5C 301.167,382.167 332.833,382.833 364.5,383.5C 318.5,383.5 272.5,383.5 226.5,383.5C 240.167,382.833 253.833,382.167 267.5,381.5 Z"/></g>
<g><path style="opacity:1" fill="#deecbf" d="M 226.5,383.5 C 272.5,383.5 318.5,383.5 364.5,383.5C 365.167,383.5 365.5,383.833 365.5,384.5C 365.167,384.5 364.833,384.5 364.5,384.5C 343.5,384.5 322.5,384.5 301.5,384.5C 245.664,384.168 189.998,384.501 134.5,385.5C 134.5,398.5 134.5,411.5 134.5,424.5C 134.167,424.5 133.833,424.5 133.5,424.5C 133.5,410.833 133.5,397.167 133.5,383.5C 164.5,383.5 195.5,383.5 226.5,383.5 Z"/></g>
<g><path style="opacity:1" fill="#f2f9e3" d="M 134.5,385.5 C 189.998,384.501 245.664,384.168 301.5,384.5C 291.675,385.33 281.675,385.83 271.5,386C 271.167,386.333 270.833,386.667 270.5,387C 272.5,387.333 274.5,387.667 276.5,388C 275.5,388.333 274.5,388.667 273.5,389C 273.833,389.333 274.167,389.667 274.5,390C 273.426,390.739 272.759,391.739 272.5,393C 273.734,395.678 275.4,397.845 277.5,399.5C 277.539,400.756 277.039,401.756 276,402.5C 274.591,399.418 272.758,396.585 270.5,394C 268.741,393.202 267.074,393.369 265.5,394.5C 268,398.833 270.5,403.167 273,407.5C 273.498,410.482 273.665,413.482 273.5,416.5C 272.883,416.389 272.383,416.056 272,415.5C 271.667,413.167 271.333,410.833 271,408.5C 267.739,406.74 266.573,404.24 267.5,401C 264.971,398.35 263.971,395.184 264.5,391.5C 266.527,391.662 268.527,391.495 270.5,391C 270.957,390.586 271.291,390.086 271.5,389.5C 269.922,388.702 268.256,388.202 266.5,388C 267.5,387.667 268.5,387.333 269.5,387C 267.5,386.667 265.5,386.333 263.5,386C 220.501,385.5 177.501,385.333 134.5,385.5 Z"/></g>
<g><path style="opacity:1" fill="#f9f9f8" d="M 301.5,384.5 C 322.5,384.5 343.5,384.5 364.5,384.5C 364.5,397.833 364.5,411.167 364.5,424.5C 287.889,424.314 211.223,424.314 134.5,424.5C 134.5,411.5 134.5,398.5 134.5,385.5C 177.501,385.333 220.501,385.5 263.5,386C 265.5,386.333 267.5,386.667 269.5,387C 268.5,387.333 267.5,387.667 266.5,388C 268.256,388.202 269.922,388.702 271.5,389.5C 271.291,390.086 270.957,390.586 270.5,391C 268.527,391.495 266.527,391.662 264.5,391.5C 263.971,395.184 264.971,398.35 267.5,401C 266.573,404.24 267.739,406.74 271,408.5C 271.333,410.833 271.667,413.167 272,415.5C 272.383,416.056 272.883,416.389 273.5,416.5C 275.167,416.5 276.833,416.5 278.5,416.5C 278.335,413.482 278.502,410.482 279,407.5C 282.066,403.292 284.566,398.792 286.5,394C 284.833,393.333 283.167,393.333 281.5,394C 280.253,395.952 278.919,397.785 277.5,399.5C 275.4,397.845 273.734,395.678 272.5,393C 272.759,391.739 273.426,390.739 274.5,390C 274.167,389.667 273.833,389.333 273.5,389C 274.5,388.667 275.5,388.333 276.5,388C 274.5,387.667 272.5,387.333 270.5,387C 270.833,386.667 271.167,386.333 271.5,386C 281.675,385.83 291.675,385.33 301.5,384.5 Z"/></g>
<g><path style="opacity:1" fill="#a4c593" d="M 269.5,381.5 C 302.173,381.167 334.84,381.5 367.5,382.5C 368.824,396.961 368.824,411.294 367.5,425.5C 367.667,412.496 367.5,399.496 367,386.5C 366.831,399.673 366.331,412.673 365.5,425.5C 365.5,411.833 365.5,398.167 365.5,384.5C 365.5,383.833 365.167,383.5 364.5,383.5C 332.833,382.833 301.167,382.167 269.5,381.5 Z"/></g>
<g><path style="opacity:1" fill="#f9faf9" d="M 62.5,395.5 C 63.8333,396.167 63.8333,396.167 62.5,395.5 Z"/></g>
<g><path style="opacity:1" fill="#f9faf9" d="M 122.5,395.5 C 123.833,396.167 123.833,396.167 122.5,395.5 Z"/></g>
<g><path style="opacity:1" fill="#e8f4cc" d="M 205.5,392.5 C 210.544,392.173 215.544,392.506 220.5,393.5C 221.63,394.622 222.297,395.956 222.5,397.5C 221.5,396.833 220.5,396.167 219.5,395.5C 219.389,394.883 219.056,394.383 218.5,394C 213.913,393.201 209.413,393.368 205,394.5C 204.179,401.679 204.345,408.679 205.5,415.5C 206.833,415.5 208.167,415.5 209.5,415.5C 209.5,413.5 209.5,411.5 209.5,409.5C 212.167,409.5 214.833,409.5 217.5,409.5C 215.833,410.167 214.167,410.833 212.5,411.5C 211.549,412.919 211.216,414.585 211.5,416.5C 208.833,416.5 206.167,416.5 203.5,416.5C 203.334,408.826 203.5,401.159 204,393.5C 204.383,392.944 204.883,392.611 205.5,392.5 Z"/></g>
<g><path style="opacity:1" fill="#a0c849" d="M 219.5,395.5 C 220.5,396.167 221.5,396.833 222.5,397.5C 223.629,399.628 223.796,401.961 223,404.5C 221.27,406.402 219.437,408.069 217.5,409.5C 214.833,409.5 212.167,409.5 209.5,409.5C 209.5,411.5 209.5,413.5 209.5,415.5C 208.167,415.5 206.833,415.5 205.5,415.5C 205.334,409.158 205.5,402.825 206,396.5C 210.253,394.16 214.753,393.827 219.5,395.5 Z"/></g>
<g><path style="opacity:1" fill="#94bc5e" d="M 252.5,394.5 C 254.364,393.207 256.364,393.207 258.5,394.5C 260.444,398.331 261.777,402.331 262.5,406.5C 261.533,405.194 260.199,404.527 258.5,404.5C 258.737,405.791 258.404,406.791 257.5,407.5C 257.483,405.435 257.15,403.435 256.5,401.5C 257.824,402.85 258.824,402.683 259.5,401C 257.997,399.079 257.331,396.912 257.5,394.5C 255.833,394.5 254.167,394.5 252.5,394.5 Z"/></g>
<g><path style="opacity:1" fill="#f5f9e9" d="M 210.5,398.5 C 212.591,398.318 214.591,398.652 216.5,399.5C 217.877,403.846 216.21,405.679 211.5,405C 210.577,402.959 210.244,400.792 210.5,398.5 Z"/></g>
<g><path style="opacity:1" fill="#468f36" d="M 293.5,394.5 C 293.5,396.167 293.5,397.833 293.5,399.5C 292.698,400.952 292.198,402.618 292,404.5C 291.333,405.833 290.667,405.833 290,404.5C 289.502,401.183 289.335,397.85 289.5,394.5C 290.833,394.5 292.167,394.5 293.5,394.5 Z"/></g>
<g><path style="opacity:1" fill="#6aa646" d="M 277.5,399.5 C 278.919,397.785 280.253,395.952 281.5,394C 283.167,393.333 284.833,393.333 286.5,394C 284.566,398.792 282.066,403.292 279,407.5C 278.502,410.482 278.335,413.482 278.5,416.5C 276.833,416.5 275.167,416.5 273.5,416.5C 273.665,413.482 273.498,410.482 273,407.5C 270.5,403.167 268,398.833 265.5,394.5C 267.074,393.369 268.741,393.202 270.5,394C 272.758,396.585 274.591,399.418 276,402.5C 277.039,401.756 277.539,400.756 277.5,399.5 Z"/></g>
<g><path style="opacity:1" fill="#dff2ca" d="M 256.5,401.5 C 257.15,403.435 257.483,405.435 257.5,407.5C 255.833,407.5 254.167,407.5 252.5,407.5C 252.993,405.194 253.326,402.861 253.5,400.5C 254.791,400.263 255.791,400.596 256.5,401.5 Z"/></g>
<g><path style="opacity:1" fill="#83b943" d="M 252.5,394.5 C 254.167,394.5 255.833,394.5 257.5,394.5C 257.331,396.912 257.997,399.079 259.5,401C 258.824,402.683 257.824,402.85 256.5,401.5C 255.791,400.596 254.791,400.263 253.5,400.5C 253.326,402.861 252.993,405.194 252.5,407.5C 251.312,406.316 250.145,406.316 249,407.5C 248.517,406.552 248.351,405.552 248.5,404.5C 249.263,400.863 250.597,397.53 252.5,394.5 Z"/></g>
<g><path style="opacity:1" fill="#679d5d" d="M 293.5,393.5 C 293.5,393.833 293.5,394.167 293.5,394.5C 292.167,394.5 290.833,394.5 289.5,394.5C 289.335,397.85 289.502,401.183 290,404.5C 290.667,405.833 291.333,405.833 292,404.5C 292.198,402.618 292.698,400.952 293.5,399.5C 293.5,402.5 293.5,405.5 293.5,408.5C 292.167,408.5 290.833,408.5 289.5,408.5C 288.608,403.562 288.274,398.562 288.5,393.5C 290.167,393.5 291.833,393.5 293.5,393.5 Z"/></g>
<g><path style="opacity:1" fill="#f9faf9" d="M 458.5,407.5 C 459.833,408.167 459.833,408.167 458.5,407.5 Z"/></g>
<g><path style="opacity:1" fill="#bed180" d="M 267.5,381.5 C 253.833,382.167 240.167,382.833 226.5,383.5C 195.5,383.5 164.5,383.5 133.5,383.5C 133.5,397.167 133.5,410.833 133.5,424.5C 133.5,425.833 132.833,426.5 131.5,426.5C 130.168,411.863 130.168,397.196 131.5,382.5C 176.828,381.5 222.162,381.167 267.5,381.5 Z"/></g>
<g><path style="opacity:1" fill="#f3f8ea" d="M 231.5,393.5 C 230.167,393.5 228.833,393.5 227.5,393.5C 226.508,400.982 226.175,408.648 226.5,416.5C 234.019,416.825 241.352,416.492 248.5,415.5C 248.539,414.417 248.873,413.417 249.5,412.5C 253.107,411.511 256.774,411.177 260.5,411.5C 260.815,415.8 263.149,417.467 267.5,416.5C 264.894,418.348 261.894,418.515 258.5,417C 259.337,415.989 259.67,414.822 259.5,413.5C 257.193,413.986 255.027,413.986 253,413.5C 251.684,414.974 250.684,416.641 250,418.5C 249.586,418.043 249.086,417.709 248.5,417.5C 248.167,418.167 247.833,418.833 247.5,419.5C 241.295,418.576 234.629,418.576 227.5,419.5C 223.603,418.693 222.937,417.026 225.5,414.5C 222.531,413.332 222.198,411.999 224.5,410.5C 224,410.167 223.5,409.833 223,409.5C 219.65,410.975 216.15,411.642 212.5,411.5C 214.167,410.833 215.833,410.167 217.5,409.5C 219.437,408.069 221.27,406.402 223,404.5C 223.796,401.961 223.629,399.628 222.5,397.5C 222.297,395.956 221.63,394.622 220.5,393.5C 215.544,392.506 210.544,392.173 205.5,392.5C 207.048,391.206 209.048,390.539 211.5,390.5C 215.888,391.296 220.222,391.296 224.5,390.5C 226.76,391.912 229.093,392.912 231.5,393.5 Z"/></g>
<g><path style="opacity:1" fill="#5da03b" d="M 248.5,404.5 C 248.351,405.552 248.517,406.552 249,407.5C 250.145,406.316 251.312,406.316 252.5,407.5C 254.167,407.5 255.833,407.5 257.5,407.5C 258.404,406.791 258.737,405.791 258.5,404.5C 260.199,404.527 261.533,405.194 262.5,406.5C 264.293,408.426 265.293,410.759 265.5,413.5C 265.265,414.097 264.765,414.43 264,414.5C 262.826,413.456 261.659,412.456 260.5,411.5C 256.774,411.177 253.107,411.511 249.5,412.5C 248.873,413.417 248.539,414.417 248.5,415.5C 246.585,415.784 244.919,415.451 243.5,414.5C 244.167,412.833 244.833,411.167 245.5,409.5C 246.263,407.632 247.263,405.965 248.5,404.5 Z"/></g>
<g><path style="opacity:1" fill="#d1eccb" d="M 293.5,393.5 C 294.833,400.833 294.833,408.167 293.5,415.5C 293.5,413.833 293.5,412.167 293.5,410.5C 292.167,410.5 290.833,410.5 289.5,410.5C 289.5,409.833 289.5,409.167 289.5,408.5C 290.833,408.5 292.167,408.5 293.5,408.5C 293.5,405.5 293.5,402.5 293.5,399.5C 293.5,397.833 293.5,396.167 293.5,394.5C 293.5,394.167 293.5,393.833 293.5,393.5 Z"/></g>
<g><path style="opacity:1" fill="#729360" d="M 367.5,425.5 C 367.5,426.5 367.5,427.5 367.5,428.5C 348.825,428.543 330.158,428.209 311.5,427.5C 329.5,426.833 347.5,426.167 365.5,425.5C 366.331,412.673 366.831,399.673 367,386.5C 367.5,399.496 367.667,412.496 367.5,425.5 Z"/></g>
<g><path style="opacity:1" fill="#d7f0c5" d="M 231.5,393.5 C 232.489,398.975 232.822,404.642 232.5,410.5C 236.898,410.706 241.232,410.373 245.5,409.5C 244.833,411.167 244.167,412.833 243.5,414.5C 242.596,413.791 242.263,412.791 242.5,411.5C 239.167,411.5 235.833,411.5 232.5,411.5C 231.51,405.69 231.177,399.69 231.5,393.5 Z"/></g>
<g><path style="opacity:1" fill="#c1dc8b" d="M 219.5,395.5 C 214.753,393.827 210.253,394.16 206,396.5C 205.5,402.825 205.334,409.158 205.5,415.5C 204.345,408.679 204.179,401.679 205,394.5C 209.413,393.368 213.913,393.201 218.5,394C 219.056,394.383 219.389,394.883 219.5,395.5 Z"/></g>
<g><path style="opacity:1" fill="#6ea83e" d="M 227.5,393.5 C 228.833,393.5 230.167,393.5 231.5,393.5C 231.177,399.69 231.51,405.69 232.5,411.5C 235.287,412.477 238.287,412.81 241.5,412.5C 241.5,413.5 241.5,414.5 241.5,415.5C 236.833,415.5 232.167,415.5 227.5,415.5C 227.5,408.167 227.5,400.833 227.5,393.5 Z"/></g>
<g><path style="opacity:1" fill="#5b9052" d="M 289.5,410.5 C 290.833,410.5 292.167,410.5 293.5,410.5C 293.5,412.167 293.5,413.833 293.5,415.5C 288.757,417.077 287.424,415.411 289.5,410.5 Z"/></g>
<g><path style="opacity:1" fill="#5c9150" d="M 260.5,411.5 C 261.659,412.456 262.826,413.456 264,414.5C 264.765,414.43 265.265,414.097 265.5,413.5C 266.401,414.29 267.068,415.29 267.5,416.5C 263.149,417.467 260.815,415.8 260.5,411.5 Z"/></g>
<g><path style="opacity:1" fill="#91b37e" d="M 227.5,393.5 C 227.5,400.833 227.5,408.167 227.5,415.5C 232.167,415.5 236.833,415.5 241.5,415.5C 241.5,414.5 241.5,413.5 241.5,412.5C 238.287,412.81 235.287,412.477 232.5,411.5C 235.833,411.5 239.167,411.5 242.5,411.5C 242.263,412.791 242.596,413.791 243.5,414.5C 244.919,415.451 246.585,415.784 248.5,415.5C 241.352,416.492 234.019,416.825 226.5,416.5C 226.175,408.648 226.508,400.982 227.5,393.5 Z"/></g>
<g><path style="opacity:1" fill="#f9faf9" d="M 397.5,421.5 C 398.833,422.167 398.833,422.167 397.5,421.5 Z"/></g>
<g><path style="opacity:1" fill="#f6fae6" d="M 364.5,384.5 C 364.833,384.5 365.167,384.5 365.5,384.5C 365.5,398.167 365.5,411.833 365.5,425.5C 339.5,425.5 313.5,425.5 287.5,425.5C 258.167,425.5 228.833,425.5 199.5,425.5C 177.66,425.831 155.994,425.497 134.5,424.5C 211.223,424.314 287.889,424.314 364.5,424.5C 364.5,411.167 364.5,397.833 364.5,384.5 Z"/></g>
<g><path style="opacity:1" fill="#d1d494" d="M 133.5,424.5 C 133.833,424.5 134.167,424.5 134.5,424.5C 155.994,425.497 177.66,425.831 199.5,425.5C 204.833,426.167 210.167,426.833 215.5,427.5C 188.815,427.193 162.148,427.526 135.5,428.5C 133.645,428.66 132.312,427.993 131.5,426.5C 132.833,426.5 133.5,425.833 133.5,424.5 Z"/></g>
<g><path style="opacity:1" fill="#dff8b9" d="M 199.5,425.5 C 228.833,425.5 258.167,425.5 287.5,425.5C 278.5,426.167 269.5,426.833 260.5,427.5C 245.476,426.714 230.476,426.714 215.5,427.5C 210.167,426.833 204.833,426.167 199.5,425.5 Z"/></g>
<g><path style="opacity:1" fill="#b7c89c" d="M 287.5,425.5 C 313.5,425.5 339.5,425.5 365.5,425.5C 347.5,426.167 329.5,426.833 311.5,427.5C 294.5,427.5 277.5,427.5 260.5,427.5C 269.5,426.833 278.5,426.167 287.5,425.5 Z"/></g>
<g><path style="opacity:1" fill="#f9faf9" d="M 1.5,427.5 C 2.83333,428.167 2.83333,428.167 1.5,427.5 Z"/></g>
<g><path style="opacity:1" fill="#f9faf9" d="M 95.5,435.5 C 96.8333,436.167 96.8333,436.167 95.5,435.5 Z"/></g>
<g><path style="opacity:1" fill="#f9faf9" d="M 493.5,436.5 C 494.833,437.167 494.833,437.167 493.5,436.5 Z"/></g>
<g><path style="opacity:1" fill="#f9faf9" d="M 385.5,441.5 C 386.833,442.167 386.833,442.167 385.5,441.5 Z"/></g>
<g><path style="opacity:1" fill="#f9faf9" d="M 292.5,447.5 C 293.833,448.167 293.833,448.167 292.5,447.5 Z"/></g>
<g><path style="opacity:1" fill="#f9faf9" d="M 412.5,457.5 C 413.833,458.167 413.833,458.167 412.5,457.5 Z"/></g>
<g><path style="opacity:1" fill="#f9faf9" d="M 405.5,465.5 C 406.833,466.167 406.833,466.167 405.5,465.5 Z"/></g>
<g><path style="opacity:1" fill="#f9faf9" d="M 155.5,467.5 C 156.833,468.167 156.833,468.167 155.5,467.5 Z"/></g>
<g><path style="opacity:1" fill="#f9faf9" d="M 126.5,471.5 C 127.833,472.167 127.833,472.167 126.5,471.5 Z"/></g>
<g><path style="opacity:1" fill="#f9faf9" d="M 290.5,472.5 C 291.833,473.167 291.833,473.167 290.5,472.5 Z"/></g>
<g><path style="opacity:1" fill="#f9faf9" d="M 313.5,480.5 C 314.833,481.167 314.833,481.167 313.5,480.5 Z"/></g>
<g><path style="opacity:1" fill="#f9faf9" d="M 340.5,486.5 C 341.833,487.167 341.833,487.167 340.5,486.5 Z"/></g>
<g><path style="opacity:1" fill="#f9faf9" d="M 368.5,489.5 C 369.833,490.167 369.833,490.167 368.5,489.5 Z"/></g>
<g><path style="opacity:1" fill="#f9faf9" d="M 406.5,489.5 C 407.833,490.167 407.833,490.167 406.5,489.5 Z"/></g>
<g><path style="opacity:1" fill="#f9faf9" d="M 144.5,497.5 C 145.833,498.167 145.833,498.167 144.5,497.5 Z"/></g>
</svg>
